<?xml version="1.0" encoding="utf-8"?>
<!-- Generator: Adobe Illustrator 22.1.0, SVG Export Plug-In . SVG Version: 6.00 Build 0)  -->
<svg version="1.1" id="图层_1" xmlns="http://www.w3.org/2000/svg" xmlns:xlink="http://www.w3.org/1999/xlink" x="0px" y="0px"
	 viewBox="0 0 750 520" style="enable-background:new 0 0 750 520;" xml:space="preserve">
<style type="text/css">
	.st0{fill:#E0E0E0;}
	.st1{fill:#EBEBEB;}
	.st2{fill:#263238;}
	.st3{fill:#F5F5F5;}
	.st4{fill:#455A64;}
	.st5{fill:#FF8F00;}
	.st6{fill:#23A463;}
	.st7{opacity:0.2;}
	.st8{fill:#DB8A76;}
	.st9{fill:#9A5D53;}
	.st10{fill:#FFFFFF;}
	.st11{fill:#824943;}
	.st12{opacity:0.3;}
	.st13{opacity:0.7;}
	.st14{opacity:0.3;enable-background:new    ;}
</style>
<g id="background-complete">
	<path class="st0" d="M176,484.1c1.2-0.1,2.6-0.2,3.8-0.5c2.5-0.7,5.1-0.4,7.3,0.9c5,2.9,10.6,4.3,16.4,4.3c3.3-0.2,6.5-0.7,9.7-1.8
		c2.3-0.6,2.5-2.3,0.5-3.6c-1.4-1-3-1.8-4.7-2.4c-5.3-2.1-11-2.4-16.5-0.9c-4.2,1.2-8.7,1.2-11.7-3.2c-0.5-0.7-1.7-0.9-2.5-1.4
		l-0.5,0.6l2.3,4.5l-4.4,2.3L176,484.1z"/>
	<path class="st0" d="M204,501.7c0.4,0.8,0.9,1.5,1.4,2.2c0.1,0.3-4.7,1.9-3.5,3.3c1.9-0.2,3.3-0.5,4.7-0.5c1.3-0.1,2.8-0.1,4.2,0
		c3.3,0.4,6.6,1.4,9.9,1.5c6.4,0.1,12.9-0.8,19-2.9c2.9-0.7,5.6-2.2,7.7-4.1c1.1-1.1,1.1-1.9-0.2-2.6c-1.1-0.6-2.4-1-3.6-1.2
		c-4.6-0.8-9.5-1-14.2-0.4c-4.2,0.3-8.4,1.8-12,4c-3.5,2.3-8.2,1.9-11.3-0.9c-0.8-0.7-1.7-1.8-2.9-1
		C202.1,499.8,203.8,500.7,204,501.7z"/>
	<path class="st0" d="M243.7,481.9c0.2,0.5,0.6,0.9,0.9,1.4c0,0.2-3,1.2-2.2,2.1c1.1-0.1,2.1-0.3,3-0.4c0.9-0.1,1.8-0.1,2.7,0
		c2.1,0.3,4.2,0.9,6.3,1c4.1,0.1,8.2-0.5,12.1-1.9c1.9-0.5,3.5-1.3,5-2.7c0.7-0.7,0.7-1.1-0.1-1.7c-0.7-0.4-1.5-0.6-2.3-0.8
		c-3-0.5-6-0.6-9-0.2c-2.7,0.2-5.4,1.1-7.6,2.6c-2.3,1.4-5.2,1.1-7.1-0.6c-0.5-0.4-1-1.1-1.9-0.6
		C242.6,480.7,243.5,481.3,243.7,481.9z"/>
	<path class="st1" d="M722.2,92.1c0.9-6.9-8.9-12.6-16.2-13.2c-3.5-0.3-7.1,0.3-10.5-0.9c-7.2-2.5-10.1-11.8-17.1-14.8
		c-5.3-2.3-11.4-0.2-16.4,2.4c-5.1,2.6-10.1,5.8-15.8,6.2c-5,0.3-10.3-1.5-14.7,0.9c-3.2,1.8-5,5.5-7.8,7.7
		c-2.9,2.3-6.7,2.6-10.3,2.8c-3.6,0.2-7.3,0.2-10.6,1.8c-3.3,1.5-6,5-5.4,8.6L722.2,92.1z"/>
	<path class="st2" d="M516.6,381.6c0,0.1-105.4,0.3-235.5,0.3s-235.5-0.2-235.5-0.3c0-0.1,105.4-0.3,235.5-0.3
		S516.6,381.3,516.6,381.6z"/>
	<path class="st1" d="M736.7,323.6c-36.1,7.6-126.3,13.4-163.1,12.1c-28.3-1-41.5,0.6-69.8-0.5c-22.6-0.8-60.3-1.3-82.8-3.3
		c-31.4-2.7-56.6-10-90.8-21.4c-18.6-6.2-37.4-16-54.5-25.6c-12.2-6.9-24.9-13.1-37.2-19.7C172.1,229.6,112,222,50.2,233.3L0,237.8
		v143.8l698.2-1L736.7,323.6z"/>
	<path class="st3" d="M463.6,188.1c0.7-5-6.3-9-11.5-9.4c-2.5-0.2-5.1,0.2-7.4-0.6c-5.1-1.8-7.1-8.4-12.2-10.5
		c-3.7-1.5-8.1-0.2-11.7,1.7c-3.6,1.9-7.2,4.1-11.3,4.3c-3.5,0.2-7.3-1-10.4,0.6c-2.3,1.2-3.5,3.9-5.6,5.5c-2.1,1.5-4.7,1.9-7.3,2
		c-2.6,0.1-5.2,0.2-7.5,1.2c-2.4,1-4.2,3.5-3.8,6.1L463.6,188.1z"/>
	<path class="st3" d="M681.5,224.4c0.7-5-6.3-9-11.6-9.4c-2.5-0.2-5.1,0.2-7.4-0.6c-5.2-1.8-7.1-8.4-12.2-10.5
		c-3.7-1.5-8.1-0.2-11.7,1.7c-3.6,1.9-7.2,4.1-11.3,4.3c-3.5,0.2-7.3-1-10.4,0.6c-2.3,1.2-3.5,3.9-5.6,5.5c-2.1,1.5-4.7,1.9-7.3,2
		s-5.3,0.2-7.5,1.2s-4.2,3.5-3.8,6.1L681.5,224.4z"/>
	<path class="st3" d="M109,87.5c0.7-5-6.3-9-11.5-9.4c-2.5-0.2-5.1,0.2-7.4-0.6C85,75.7,83,69.1,78,67c-3.7-1.5-8.1-0.2-11.7,1.7
		c-3.6,1.9-7.2,4.1-11.3,4.3c-3.5,0.2-7.3-1-10.4,0.6c-2.3,1.2-3.5,3.9-5.6,5.5c-2.1,1.5-4.7,1.9-7.3,2c-2.6,0.1-5.3,0.2-7.5,1.2
		c-2.3,1-4.2,3.6-3.8,6.2L109,87.5z"/>
	<polygon class="st1" points="180.9,250.2 193.7,196.8 213.6,246.4 207.7,244.6 222.2,274.3 213.9,271.5 223.9,282.8 179.2,282.8 
		183,272.9 179.2,278.1 187.5,246.8 	"/>
	<polygon class="st1" points="213.7,259.1 223.8,216.9 239.6,256.1 235,254.8 246.5,278.2 239.8,276 247.8,285 212.4,285 
		215.4,277.2 212.4,281.2 218.9,256.5 	"/>
	<polygon class="st1" points="42.4,210.8 60,137.3 87.5,205.6 79.4,203.2 99.3,244 88,240.2 101.7,266.7 40.1,266.7 45.3,242.1 
		40.1,249.2 51.5,206.2 	"/>
	<polygon class="st1" points="2.6,197.8 20.1,124.3 47.7,192.5 39.6,190.1 59.5,230.9 48.1,227.2 61.8,253.7 0.2,253.7 5.5,229.1 
		0.2,236.2 11.7,193.1 	"/>
	<polygon class="st1" points="133.6,210.8 151.2,137.3 178.6,205.6 170.6,203.2 190.5,244 179.1,240.2 192.9,266.7 131.2,266.7 
		136.4,242.1 131.2,249.2 142.6,206.2 	"/>
	<polygon class="st1" points="250.6,278.7 257.6,249.4 268.7,276.7 265.3,275.7 273.3,291.9 268.8,290.4 274.3,301 249.7,301 
		251.7,291.2 249.7,294 254.2,276.9 	"/>
	<polygon class="st1" points="354.5,306.7 365.8,258.9 383.8,303.3 378.5,301.7 391.4,328.4 384.1,325.9 393,343.1 352.9,343.1 
		356.3,327.1 352.9,331.7 360.3,303.7 	"/>
	<polygon class="st1" points="331.9,307 339,277.7 349.9,304.9 346.7,304 354.7,320.3 350.1,318.8 355.6,329.4 331,329.4 
		333.1,319.5 331,322.4 335.6,305.3 	"/>
	<polygon class="st1" points="92.9,217.9 106.6,160.7 127.9,213.9 121.7,212 137.2,243.8 128.3,240.8 139.1,261.5 91.1,261.5 
		95.1,242.3 91.1,247.8 99.9,214.3 	"/>
</g>
<g id="background-simple">
	<path class="st3" d="M323.9,301.9l0.7-2.8c6.4-23.3-0.2-48.3-17.8-64.6c-2.3-2.1-4.6-4-7.2-5.8c-18.4-12.6-43.3-15-63.9-6.2
		c-12.2,5.2-23.4,14-36.6,14.5c-17.1,0.5-30.7-13.2-42-25.9c-11.4-12.7-25-26.4-42-25.8c-10.7,0.4-20.5,6.6-28,14.5
		c-19.6,20.8-24.5,52.7-16.3,79.7s27.9,49.5,50.9,65.7c32.3,22.7,73.2,34.7,112.5,28S310.2,339.4,323.9,301.9z"/>
	<circle class="st3" cx="410.1" cy="189.9" r="35.3"/>
</g>
<g id="Plants">
	<path class="st4" d="M129.1,268.7c0,0,0,0.2-0.1,0.6s-0.2,0.9-0.4,1.7c-0.4,1.4-0.8,3.7-1.4,6.5s-1.2,6.3-2,10.3s-1.2,8.7-1.9,13.8
		c-1,10.3-2.5,22.5-4.1,36.1c-1.7,13.6-3.6,28.5-5.7,44.2c-4.1,31.3-7.5,59.7-9.6,80.2c-1,10.3-1.7,18.6-2.2,24.4
		c-0.2,2.9-0.4,5.1-0.5,6.6c-0.1,0.7-0.1,1.3-0.1,1.8s-0.1,0.6-0.1,0.6s0-0.2,0-0.6s0-1,0.1-1.8c0.1-1.5,0.2-3.8,0.4-6.7
		c0.4-5.8,1-14.1,2-24.4c1.9-20.6,5.3-49,9.4-80.3c2.1-15.7,4.2-30.6,5.7-44.1c1.4-13.5,3.1-25.8,4.2-36.1c0.6-5.2,1.2-9.8,2-13.8
		s1.4-7.5,2.1-10.3s1.1-5.1,1.5-6.5c0.2-0.7,0.3-1.2,0.4-1.7S129.1,268.7,129.1,268.7z"/>
	<path class="st4" d="M164.2,284.9c-0.1,0.2-0.2,0.4-0.3,0.6l-1,1.9c-0.9,1.7-2.4,3.9-4.1,6.7c-4.9,7.2-10.1,14.1-15.9,20.6
		c-6.7,7.7-13,14.4-17.6,19.2l-5.5,5.7l-1.4,1.5c-0.2,0.2-0.3,0.3-0.5,0.5c0.1-0.2,0.3-0.4,0.4-0.6l1.4-1.7l5.3-5.8
		c4.5-5,10.8-11.7,17.4-19.3c5.7-6.5,11-13.3,16-20.5c1.9-2.8,3.3-5.1,4.3-6.6l1.1-1.9C163.9,285.3,164,285.1,164.2,284.9z"/>
	<path class="st4" d="M150.8,304.5c-0.4-0.5-1.5-0.5,0.5-4.6c2.1-4.1,13.7-16.6,13.7-16.6s-4.4,10.3-7,14.1
		C153.7,303.8,150.8,304.5,150.8,304.5z"/>
	<path class="st4" d="M144.1,313.8c-0.1-0.6-0.4,0.2,1-1.8c2.7-3.8,22.1-12.3,22.1-12.3s-8.9,7.7-13.1,10.2
		C147,314.3,144.1,313.8,144.1,313.8z"/>
	<path class="st4" d="M135.6,322.8c0-0.5-0.3,0.2,1-1.3c2.6-2.9,19.5-8.1,19.5-8.1s-8.2,5.5-12,7.2
		C137.9,323.4,135.6,322.8,135.6,322.8z"/>
	<path class="st4" d="M128.2,330.4c0-0.4-0.3,0.1,0.9-1c2.4-2.1,16.6-4.3,16.6-4.3c-3.4,1.7-6.8,3.2-10.4,4.5
		C130.1,331.2,128.2,330.4,128.2,330.4z"/>
	<path class="st4" d="M132.3,326.1c-0.4-0.2,0,0.3-0.5-1.3c-0.8-3.1,3-16.9,3-16.9c0.1,3.8,0,7.5-0.3,11.4
		C133.7,324.8,132.3,326.1,132.3,326.1z"/>
	<path class="st4" d="M97.6,294c0.1,0.2,0.1,0.4,0.1,0.7c0.1,0.5,0.2,1.1,0.3,2.1c0.2,1.8,0.6,4.2,1.2,7.4c1.7,8.1,3.7,16.1,6.2,24
		c2.9,9.3,5.8,17.6,7.8,23.5c1,3,1.9,5.4,2.4,7.1c0.3,0.8,0.5,1.4,0.6,2c0.1,0.2,0.1,0.4,0.2,0.7c-0.1-0.2-0.2-0.4-0.3-0.6l-0.7-1.9
		c-0.6-1.8-1.5-4.1-2.6-7c-2.2-6-5.2-14.2-8.1-23.4c-2.5-8-4.5-16-6-24.2c-0.5-3.1-0.8-5.7-1-7.4c-0.1-0.8-0.1-1.5-0.2-2.1
		C97.7,294.5,97.6,294.2,97.6,294z"/>
	<path class="st4" d="M101.7,316.1c0.6-0.3,1.5,0.1,1.3-4.2c-0.2-4.3-5.7-19.7-5.7-19.7s-0.1,10.6,0.7,15
		C99.4,314.5,101.7,316.1,101.7,316.1z"/>
	<path class="st4" d="M104.1,326.9c0.3-0.5,0.2,0.4-0.2-2c-0.8-4.3-14.7-19.1-14.7-19.1s4.9,10.1,7.5,13.9
		C101.3,326.2,104.1,326.9,104.1,326.9z"/>
	<path class="st4" d="M108.1,337.9c0.2-0.5,0.2,0.3-0.4-1.5c-1.1-3.5-14-14.5-14-14.5s5.1,8,7.7,10.8
		C105.8,337.6,108.1,337.9,108.1,337.9z"/>
	<path class="st4" d="M111.6,347.3c0.1-0.4,0.2,0.2-0.5-1.2c-1.3-2.7-12.9-10.1-12.9-10.1c2.3,2.8,4.7,5.4,7.4,8
		C109.6,347.3,111.6,347.3,111.6,347.3z"/>
	<path class="st4" d="M109.7,342.1c0.4-0.1-0.1,0.3,0.9-0.9c1.9-2.4,3.8-15.9,3.8-15.9c-1.5,3.2-2.9,6.6-4.1,10
		C108.9,340.4,109.7,342.1,109.7,342.1z"/>
	<path class="st4" d="M124.3,296.3c-0.3-0.4-0.2,0.3,0.1-1.7c0.5-3.6,12-15.7,12-15.7s-3.7,8.5-6,11.6
		C126.7,295.8,124.3,296.3,124.3,296.3z"/>
	<path class="st4" d="M125,287.9c-0.5,0,0.1,0.3-1.3-0.9c-2.9-2.3-7.5-18.3-7.5-18.3s5.4,7.5,6.9,10.9
		C125.8,285.6,125,287.9,125,287.9z"/>
	<path class="st4" d="M126.7,279.5c-0.5-0.3-0.1,0.3-0.5-1.5c-0.8-3.6,5.5-19,5.5-19s-0.4,9.2-1.3,12.9
		C128.6,278.3,126.7,279.5,126.7,279.5z"/>
	<path class="st4" d="M32.7,306.8c0,0,0,0.2,0,0.5v1.4c0,1.2,0,3.1,0,5.6c0.1,6.8,0.6,13.5,1.4,20.2c1,8.5,2.2,18.7,3.4,29.9
		s2.4,23.7,3.6,36.8c2.4,26.1,5,49.7,7.1,66.7c1,8.6,2.1,15.4,2.8,20.1c0.3,2.4,0.6,4.2,0.8,5.5c0.1,0.6,0.2,1,0.2,1.4
		c0,0.4,0,0.5,0,0.5s0-0.2-0.1-0.5c-0.1-0.3-0.1-0.8-0.3-1.4l-0.9-5.5c-0.7-4.7-1.9-11.6-2.9-20.1c-2.3-17-4.9-40.7-7.2-66.7
		c-1.2-13-2.3-25.5-3.5-36.8S35,343,34,334.5c-0.8-6.7-1.2-13.5-1.2-20.3c0-2.4,0-4.2,0.1-5.6l0.1-1.4
		C32.7,307,32.7,306.8,32.7,306.8z"/>
	<path class="st4" d="M12,333.1c0.1,0.2,0.2,0.3,0.3,0.5c0.1,0.4,0.4,0.9,0.6,1.5c0.5,1.3,1.3,3.3,2.4,5.8c2.8,6.3,6,12.4,9.4,18.3
		c4,6.9,8,13.1,10.7,17.6l3.3,5.3c0.3,0.6,0.6,1,0.8,1.4c0.1,0.2,0.2,0.3,0.3,0.5c-0.1-0.1-0.3-0.3-0.3-0.5l-0.9-1.4l-3.4-5.3
		c-2.9-4.4-6.8-10.5-10.8-17.6c-3.5-5.9-6.6-12.1-9.3-18.4c-1-2.5-1.8-4.4-2.3-5.8c-0.2-0.6-0.4-1.1-0.5-1.7
		C12.1,333.5,12.1,333.3,12,333.1z"/>
	<path class="st4" d="M19.4,350.2c0.4-0.4,1.3-0.2,0.3-3.6c-1-3.4-8.3-15-8.3-15s2,8.7,3.4,12C17.3,349.3,19.4,350.2,19.4,350.2z"/>
	<path class="st4" d="M23.3,358.5c0.2-0.5,0.3,0.2-0.5-1.5c-1.4-3.4-15.4-12.8-15.4-12.8s5.8,7.3,8.7,9.9
		C21,358.4,23.3,358.5,23.3,358.5z"/>
	<path class="st4" d="M28.6,366.7c0.1-0.4,0.2,0.2-0.6-1.2c-1.5-2.6-14-9.1-14-9.1c2.6,2.6,5.4,5.1,8.3,7.3
		C26.7,366.9,28.6,366.7,28.6,366.7z"/>
	<path class="st4" d="M33.1,373.8c0-0.3,0.2,0.1-0.6-0.9c-1.5-2-12.3-5.8-12.3-5.8c2.4,1.8,4.9,3.5,7.4,5.1
		C31.7,374.1,33.1,373.8,33.1,373.8z"/>
	<path class="st4" d="M30.8,369.8c0.3-0.1,0,0.2,0.6-0.9c1.1-2.3,0.2-13.5,0.2-13.5c-0.7,2.9-1.1,5.9-1.5,8.8
		C29.7,368.5,30.8,369.8,30.8,369.8z"/>
	<path class="st4" d="M34.1,330c-0.3-0.3-0.1,0.3-0.2-1.3c-0.3-3.1,6.7-15,6.7-15c-0.7,3.5-1.5,7-2.7,10.4
		C35.9,329.2,34.1,330,34.1,330z"/>
	<path class="st4" d="M33,323.1c-0.4,0.1,0.2,0.2-1.2-0.5c-2.8-1.3-9.5-13.4-9.5-13.4c2.7,2.4,5.3,5,7.6,7.6
		C33.2,321.1,33,323.1,33,323.1z"/>
	<path class="st4" d="M32.8,316.1c-0.4-0.1,0,0.3-0.7-1.1c-1.3-2.8,0.9-16.3,0.9-16.3c0.6,3.5,1,7.1,1.2,10.7
		C34.2,314.6,32.8,316.1,32.8,316.1z"/>
	<path class="st4" d="M78.4,365.3c0,0.1,0,0.2,0.1,0.3l0.1,0.9c0.1,0.8,0.2,2.1,0.4,3.7c0.3,3.3,0.7,8.1,0.7,13.8
		c0,2.9,0,6.2-0.1,9.6s-0.3,7.1-0.3,10.9c-0.2,7.7-0.3,16.2-0.5,25.2c-0.3,17.9-0.5,34-0.6,45.7c-0.1,5.8-0.2,10.5-0.3,13.8
		c0,1.7-0.1,2.9-0.1,3.7c0,0.4,0,0.7,0,1c0,0.1,0,0.2,0,0.3c0-0.1,0-0.2,0-0.3v-1v-3.7c0-3.3,0-8.1,0.1-13.8
		c0.1-11.8,0.3-27.9,0.5-45.7c0.2-8.9,0.4-17.4,0.6-25.2c0.1-3.8,0.2-7.5,0.3-10.9s0.2-6.6,0.2-9.6c0-5.9-0.3-10.5-0.5-13.8
		c-0.1-1.5-0.2-2.9-0.3-3.7c0-0.4-0.1-0.7-0.1-0.9C78.5,365.5,78.4,365.4,78.4,365.3z"/>
	<path class="st4" d="M49.1,374.1c0.1,0.2,0.2,0.3,0.3,0.5c0.2,0.4,0.4,0.9,0.7,1.5c0.6,1.3,1.4,3.3,2.7,5.7
		c3.1,6.1,6.5,12.1,10.2,17.8c4.3,6.7,8.6,12.7,11.5,17l3.5,5.2l0.9,1.4c0.1,0.2,0.2,0.3,0.3,0.5c-0.1-0.1-0.3-0.3-0.4-0.4l-1-1.3
		c-0.9-1.2-2.2-3-3.6-5.1c-3.1-4.3-7.3-10.2-11.7-16.9c-3.7-5.8-7.1-11.8-10-17.9c-1.1-2.4-2-4.3-2.5-5.7l-0.6-1.5
		C49.2,374.5,49.1,374.3,49.1,374.1z"/>
	<path class="st4" d="M57.3,390.8c0.4-0.4,1.2-0.3,0.1-3.6c-1.1-3.3-8.9-14.6-8.9-14.6s2.3,8.6,3.9,11.9
		C55.2,390,57.3,390.8,57.3,390.8z"/>
	<path class="st4" d="M61.5,399c0.2-0.5,0.3,0.2-0.6-1.5c-1.7-3.3-15.9-12.1-15.9-12.1s6.1,7,9.1,9.5C59.3,399,61.5,399,61.5,399z"
		/>
	<path class="st4" d="M67.3,406.8c0.1-0.4,0.2,0.2-0.6-1.1c-1.8-2.6-14.4-8.4-14.4-8.4c2.7,2.5,5.6,4.7,8.6,6.9
		C65.4,407.1,67.3,406.8,67.3,406.8z"/>
	<path class="st4" d="M72.2,413.6c0-0.3,0.2,0.1-0.6-0.9c-1.7-1.9-12.5-5.3-12.5-5.3c2.5,1.7,5.1,3.3,7.6,4.6
		C70.6,414,72.2,413.6,72.2,413.6z"/>
	<path class="st4" d="M69.5,409.8c0.3-0.1,0,0.2,0.5-0.9c1-2.3-0.5-13.5-0.5-13.5c-0.5,3-0.8,5.9-1,8.9
		C68.6,408.7,69.5,409.8,69.5,409.8z"/>
	<path class="st4" d="M100.1,388.5c0,0.2,0,0.4-0.1,0.5c-0.1,0.4-0.2,0.9-0.3,1.5c-0.3,1.3-0.8,3.3-1.7,5.7
		c-2.1,6.2-4.5,12.3-7.3,18.2c-3.3,6.9-6.5,13-8.9,17.4l-2.8,5.3l-0.8,1.4c-0.1,0.2-0.2,0.3-0.3,0.5c0-0.2,0.1-0.4,0.2-0.5
		c0.2-0.4,0.4-0.8,0.7-1.4l2.7-5.3c2.3-4.4,5.5-10.6,8.8-17.6c2.8-5.9,5.4-11.9,7.4-18.1c0.8-2.4,1.4-4.3,1.8-5.7l0.4-1.5
		C100,389,100,388.7,100.1,388.5z"/>
	<path class="st4" d="M94.5,405.4c-0.4-0.3-1.2-0.1-0.5-3.4c0.7-3.3,6.6-14.8,6.6-14.8s-1.1,8.4-2.3,11.7
		C96.4,404.3,94.5,405.4,94.5,405.4z"/>
	<path class="st4" d="M91.5,413.5c-0.2-0.4-0.2,0.3,0.4-1.4c1.1-3.3,13.6-13.3,13.6-13.3s-5,7.3-7.4,10
		C93.6,413.3,91.5,413.5,91.5,413.5z"/>
	<path class="st4" d="M87,421.8c-0.1-0.4-0.2,0.2,0.5-1.1c1.3-2.6,12.6-9.7,12.6-9.7c-2.3,2.7-4.6,5.2-7.2,7.5
		C88.9,421.8,87,421.8,87,421.8z"/>
	<path class="st4" d="M83.3,428.7c-0.1-0.3-0.2,0.1,0.5-0.9c1.3-2,11.2-6.5,11.2-6.5c-2.2,1.9-4.3,3.7-6.6,5.4
		C84.8,428.9,83.3,428.7,83.3,428.7z"/>
	<path class="st4" d="M85.4,424.8c-0.3-0.1,0,0.2-0.6-0.8c-1.2-2.1-1.2-12.8-1.2-12.8c0.8,2.7,1.5,5.5,2.1,8.3
		C86.1,423.5,85.4,424.8,85.4,424.8z"/>
	<path class="st4" d="M79,387.4c0.3-0.3,0.1,0.2,0.1-1.2c0-2.9-7.5-13.6-7.5-13.6c0.9,3.3,2.1,6.5,3.4,9.7
		C77.2,386.8,79,387.4,79,387.4z"/>
	<path class="st4" d="M79.4,380.7c0.4,0.1-0.2,0.2,1.1-0.5c2.5-1.4,7.8-13.4,7.8-13.4c-2.4,2.5-4.6,5.1-6.6,7.8
		C79.1,378.8,79.4,380.7,79.4,380.7z"/>
	<path class="st4" d="M79.1,374.1c0.4-0.2,0,0.3,0.6-1.1c1-2.7-2.2-15.5-2.2-15.5c-0.3,3.4-0.4,6.8-0.3,10.2
		C77.6,372.8,79.1,374.1,79.1,374.1z"/>
	<path class="st4" d="M3.2,460.2h13.2l11.3,57.4v-54.9l13.2,2v48.1l14.2-44.6l22.5,3.4l-3.9,42.2L86.5,474c0,0,9.8,0,9.3,1.4
		c-0.5,1.4-3.9,34.4-3.9,34.4l15.2-31.9l9.8,6.4l-8.4,30.4l18.7-25.7l5.4,4.6l-10.7,21.1l14.2-9.8l8.4,3.9v11.4H0.3v-59.9"/>
</g>
<g id="Sun">
	
		<ellipse transform="matrix(0.1594 -0.9872 0.9872 0.1594 279.6229 527.5476)" class="st5" cx="449.6" cy="99.6" rx="17.2" ry="17.2"/>
	<path class="st5" d="M449.5,116.8c-9.5,0-17.1-7.7-17.1-17.2s7.7-17.1,17.2-17.1s17.1,7.7,17.1,17.2c0,6.9-4.1,13.1-10.5,15.8
		C454.1,116.4,451.8,116.8,449.5,116.8z"/>
	<path class="st5" d="M447.1,138.1c-0.1,0-0.2-3.2-0.2-7.1c0-3.9,0.1-7.1,0.2-7.1c0.2,2.4,0.2,4.7,0.2,7.1
		C447.3,133.3,447.3,135.7,447.1,138.1z"/>
	<path class="st5" d="M447.1,138.2c0,0-0.1,0-0.1-2.1c0-1.3,0-3.1,0-5.1s0-3.7,0-5.1c0-2.1,0.1-2.1,0.1-2.1s0.1,0,0.1,2.1
		c0,1.3,0,3.1,0,5.1s0,3.7,0,5.1C447.2,138.2,447.1,138.2,447.1,138.2z M447.1,123.9c-0.1,0.3-0.1,3-0.1,7.1c0,4.1,0.1,6.8,0.1,7.1
		c0.1-0.3,0.2-3,0.2-7.1C447.3,126.9,447.2,124.2,447.1,123.9z"/>
	<path class="st5" d="M437.2,119.9c-1.1,2.3-2.3,4.4-3.6,6.6c-2.1,3.6-3.8,6.5-3.9,6.5c1.1-2.3,2.3-4.4,3.6-6.6
		C435.3,122.7,437.1,119.8,437.2,119.9z"/>
	<path class="st5" d="M429.5,133L429.5,133c0,0-0.1,0,1-2c0.7-1.2,1.7-2.9,2.6-4.6c0.9-1.8,2-3.4,2.7-4.6c1-1.8,1.1-1.9,1.2-1.9l0,0
		c0,0,0.1,0-1,2c-0.7,1.2-1.7,2.9-2.6,4.6C431.7,129.6,429.7,132.9,429.5,133L429.5,133z M437.1,119.9c-0.2,0.2-1.8,2.7-3.9,6.4
		c-2.2,3.7-3.5,6.3-3.6,6.6c0.2-0.2,1.8-2.7,3.9-6.4C435.6,122.8,437.1,120.2,437.1,119.9z"/>
	<path class="st5" d="M426.9,113.5c-1.2,1.2-2.6,2.4-4,3.4c-1.3,1.1-2.8,2.2-4.2,3.1c1.2-1.2,2.6-2.4,4-3.4
		C424,115.5,425.4,114.4,426.9,113.5z"/>
	<path class="st5" d="M418.7,120.1L418.7,120.1c0,0-0.1-0.1,1.1-1.1c0.7-0.6,1.8-1.4,2.9-2.4c1.3-1.1,2.8-2.2,4.2-3.1l0,0l0,0l0,0
		c-1.2,1.2-2.6,2.4-4,3.4c-1.1,0.8-2.2,1.7-3,2.3C419.5,119.6,419.1,119.9,418.7,120.1z M426.9,113.5c-1.4,0.9-2.9,2-4.2,3.1
		c-1.4,1-2.8,2.2-4,3.4c1.4-0.9,2.9-2.1,4.2-3.2C424.2,115.9,425.6,114.8,426.9,113.5z"/>
	<path class="st5" d="M464.3,131.1c-0.2-0.5-0.3-1.1-0.4-1.8c-0.2-1.1-0.6-2.6-1-4.2c-0.4-1.7-0.9-3.1-1.2-4.1
		c-0.2-0.5-0.4-1.1-0.5-1.8c0.3,0.5,0.5,1.1,0.7,1.7c0.4,1,0.9,2.5,1.3,4.1s0.7,3.2,0.9,4.2C464.2,129.9,464.3,130.6,464.3,131.1z"
		/>
	<path class="st5" d="M464.3,131.2c-0.1,0-0.1-0.3-0.5-1.8c-0.2-1-0.6-2.6-1-4.2c-0.4-1.7-0.9-3.2-1.2-4.1l0,0
		c-0.4-1.4-0.5-1.8-0.5-1.8s0,0,0.3,0.4c0.3,0.4,0.3,0.7,0.5,1.2c0.3,0.7,0.8,2.2,1.3,4.1s0.8,3.5,0.9,4.2
		C464.3,129.9,464.3,130.6,464.3,131.2L464.3,131.2z M461.1,119.3c0.1,0.6,0.3,1.1,0.5,1.7l0,0c0.3,0.9,0.7,2.5,1.2,4.1
		c0.5,1.7,0.8,3.2,1,4.2c0.1,0.6,0.3,1.1,0.4,1.8c0-0.6-0.1-1.1-0.2-1.8c-0.1-0.7-0.4-2.3-0.9-4.2s-1-3.4-1.3-4.1
		C461.6,120.3,461.4,119.8,461.1,119.3L461.1,119.3z"/>
	<path class="st5" d="M481.8,118.7c-1.8-1.3-3.5-2.7-5.1-4.2c-1.7-1.4-3.3-2.9-4.9-4.4c1.8,1.3,3.5,2.8,5.1,4.2
		C478.7,115.7,480.2,117.1,481.8,118.7z"/>
	<path class="st5" d="M481.8,118.7c-1.8-1.3-3.4-2.7-5.1-4.2c-1.3-1.1-2.6-2.3-3.5-3.1c-1.4-1.3-1.4-1.3-1.3-1.3l0,0
		c0.2,0,2.8,2.2,5.1,4.2c1.3,1.1,2.6,2.3,3.5,3.1C481.9,118.7,481.9,118.7,481.8,118.7L481.8,118.7L481.8,118.7z M471.8,110
		c0.1,0.2,2,2,4.9,4.4c2.9,2.5,4.9,4.1,5.1,4.2c-0.1-0.2-2-2-4.9-4.4C474,111.8,472.1,110.1,471.8,110z"/>
	<path class="st5" d="M488.5,101.6c-0.7,0-1.3-0.1-2.1-0.3c-1.2-0.2-3.1-0.5-5.1-0.7c-2-0.2-3.7-0.3-5.1-0.4c-0.7,0-1.3-0.1-2.1-0.2
		c0.7-0.1,1.3-0.1,2.1-0.1c1.3,0,3.1,0.1,5.1,0.3c2,0.2,3.7,0.5,5.1,0.8C487.1,101.2,487.9,101.4,488.5,101.6z"/>
	<path class="st5" d="M488.5,101.6c-0.1,0-0.5-0.1-1.7-0.2l-0.4-0.1c-1.8-0.3-3.4-0.5-5.1-0.7c-1.7-0.2-3.3-0.3-5.1-0.4h-0.4
		c-1.4-0.1-1.7-0.1-1.7-0.2l0,0c0.7-0.1,1.3-0.1,2.1-0.1c1.7,0,3.4,0.1,5.1,0.3c2.4,0.3,4.1,0.6,5.1,0.8
		C487.1,101.2,487.9,101.4,488.5,101.6L488.5,101.6L488.5,101.6L488.5,101.6z M474.3,100c0.1,0,0.8,0.1,1.7,0.1h0.4
		c1.8,0.1,3.5,0.3,5.1,0.4c1.5,0.1,3.2,0.4,5.1,0.7l0.4,0.1c0.8,0.1,1.4,0.2,1.7,0.2l0,0c-0.6-0.2-1.3-0.4-2-0.5
		c-3.3-0.7-6.7-1.1-10.1-1.1C475.7,99.9,474.9,99.9,474.3,100z"/>
	<path class="st5" d="M488.5,84.8c0,0.1-3.7,1.1-8.4,2.3c-4.6,1.1-8.4,2-8.5,1.9c-0.1-0.1,3.7-1.1,8.4-2.3S488.5,84.7,488.5,84.8z"
		/>
	<path class="st5" d="M471.7,88.9L471.7,88.9c0,0,0-0.1,2.4-0.7c1.5-0.4,3.7-0.9,5.9-1.5s4.3-1,6-1.3c2.5-0.5,2.5-0.5,2.5-0.5l0,0
		c0,0,0,0.1-2.5,0.7c-1.5,0.4-3.7,0.9-5.9,1.4c-2.2,0.5-4.3,1-6,1.3C473.4,88.7,472.6,88.8,471.7,88.9z M488.5,84.8
		c-0.3,0-3.5,0.7-8.4,1.9c-4.9,1.1-8.1,2.1-8.3,2.2c0.3,0,3.5-0.7,8.4-1.9S488.2,85,488.5,84.8L488.5,84.8z"/>
	<path class="st5" d="M469,65.3c0.1,0-1.7,2.9-4,6.4c-2.4,3.5-4.2,6.2-4.3,6.2c-0.1,0,1.7-2.9,4-6.4C467,68,469,65.2,469,65.3z"/>
	<path class="st5" d="M460.7,77.9L460.7,77.9c0-0.2,2.1-3.4,4-6.4c1.1-1.7,2.2-3.2,3-4.4c1.2-1.8,1.3-1.8,1.3-1.8l0,0
		c0,0,0.1,0-1.1,2c-0.7,1.2-1.8,2.8-2.9,4.4c-1.1,1.7-2.2,3.2-3,4.4C460.9,77.7,460.8,77.9,460.7,77.9z M469,65.3
		c-0.2,0.2-1.9,2.5-4.2,6.2s-3.9,6.1-4,6.3c0.2-0.2,1.9-2.5,4.2-6.2S468.9,65.6,469,65.3L469,65.3z"/>
	<path class="st5" d="M449.6,61.2c0.1,0.8,0.1,1.5,0,2.4c0,1.4,0,3.5,0,5.7s0,4.2,0.1,5.7c0.1,0.8,0.1,1.5,0,2.4
		c-0.1-0.8-0.2-1.5-0.2-2.4c-0.1-1.4-0.2-3.5-0.2-5.7s0.1-4.2,0.1-5.7C449.4,62.8,449.5,62,449.6,61.2z"/>
	<path class="st5" d="M449.6,77.4c0,0,0,0-0.1-0.6c0-0.4-0.1-1-0.1-1.8c-0.1-1-0.2-3-0.2-5.7s0.1-4.7,0.1-5.7c0-0.7,0.1-1.3,0.1-1.8
		c0.1-0.6,0.1-0.6,0.1-0.6l0,0c0,0,0.1,0.2,0,2.4c0,1.3,0,3.4,0,5.7s0,4.1,0.1,5.6V75C449.6,77.2,449.6,77.4,449.6,77.4L449.6,77.4z
		 M449.6,61.3c0,0.2-0.1,0.9-0.2,2.4c-0.1,1-0.1,3-0.1,5.7s0.1,4.7,0.2,5.7c0,0.8,0.1,1.5,0.2,2.4c0-0.2,0-1.4,0-2.4v-0.1
		c0-1.4,0-3.4,0-5.6s0-4.3,0-5.7C449.6,62.7,449.6,61.5,449.6,61.3L449.6,61.3z"/>
	<path class="st5" d="M435,79.4c-0.1,0-1.9-2.8-4-6.3c-2.2-3.5-3.8-6.4-3.8-6.5c0-0.1,1.9,2.8,4,6.3C433.3,76.5,435.1,79.4,435,79.4
		z"/>
	<path class="st5" d="M435,79.4c0,0-0.2-0.1-1.2-1.9c-0.7-1.2-1.8-2.8-2.8-4.4c-1.9-3-3.8-6.3-3.7-6.5l0,0c0,0,0.1,0,1.2,1.9
		c0.7,1.1,1.8,2.8,2.8,4.4c1,1.7,2,3.3,2.7,4.5C435.1,79.4,435,79.4,435,79.4L435,79.4L435,79.4z M427.2,66.7
		c0.1,0.3,1.4,2.8,3.7,6.4c2.3,3.6,3.8,6.1,4,6.3c-0.1-0.3-1.4-2.8-3.7-6.4C429,69.4,427.5,67,427.2,66.7z"/>
	<path class="st5" d="M426.2,86.9c-0.6,0-1.2-0.1-1.9-0.3c-1.1-0.2-2.7-0.6-4.3-1.1s-3.2-1-4.2-1.4c-0.6-0.2-1.1-0.4-1.7-0.7
		c0.6,0.1,1.2,0.3,1.8,0.5c1.1,0.3,2.6,0.8,4.2,1.3c1.7,0.5,3.2,0.9,4.3,1.2C425.1,86.5,425.7,86.7,426.2,86.9z"/>
	<path class="st5" d="M426.2,86.9c-0.1,0-0.3,0-0.4,0c-0.3,0-0.8-0.1-1.3-0.2c-0.7-0.2-2.4-0.5-4.3-1.1c-2-0.6-3.5-1.1-4.2-1.4
		c-0.5-0.2-0.9-0.4-1.2-0.5c-0.5-0.2-0.5-0.2-0.4-0.3c0.1-0.1,0.3,0,1.9,0.5c0.8,0.3,2.5,0.8,4.2,1.3c1.5,0.5,3.1,0.8,4.3,1.2
		C426,86.8,426.3,86.9,426.2,86.9L426.2,86.9C426.3,87,426.2,86.9,426.2,86.9z M414.1,83.4c0.5,0.3,1.1,0.5,1.7,0.7
		c0.7,0.3,2.3,0.8,4.2,1.4c2,0.6,3.6,0.9,4.3,1.1c0.6,0.1,1.1,0.2,1.8,0.3l0,0c-0.1-0.1-1-0.3-1.8-0.5c-1.2-0.3-2.7-0.7-4.3-1.2
		c-1.8-0.5-3.4-1-4.2-1.3C415.3,83.7,414.3,83.4,414.1,83.4L414.1,83.4z"/>
	<path class="st5" d="M422.4,100.2c-1.9,0.3-3.6,0.6-5.5,0.7c-1.9,0.2-3.7,0.3-5.6,0.3c1.9-0.3,3.6-0.6,5.5-0.7
		C418.7,100.3,420.5,100.2,422.4,100.2z"/>
	<path class="st5" d="M411.7,101.2c-0.1,0-0.2,0-0.3,0l0,0l0,0c3.6-0.6,7.3-0.9,11-1l0,0l0,0c-1.9,0.3-3.6,0.6-5.5,0.7
		C414.8,101.1,412.5,101.2,411.7,101.2z M411.3,101.2c1.9,0,3.7-0.1,5.5-0.3c1.9-0.1,3.7-0.4,5.5-0.7c-1.9,0-3.7,0.1-5.5,0.3
		C415.1,100.7,413.2,100.9,411.3,101.2L411.3,101.2z"/>
</g>
<g id="Floor">
	<path class="st2" d="M42.3,520.1c0-0.1,157-0.3,350.7-0.3s350.8,0.1,350.8,0.3s-157,0.3-350.8,0.3S42.3,520.3,42.3,520.1z"/>
</g>
<g id="seagulls">
	<path class="st2" d="M184.7,140.5c-0.7-0.1-1.5-0.2-2.3-0.5c-1.3-0.3-3.2-0.9-5.3-1.7c-2.1-0.7-3.9-1.4-5.2-2
		c-0.7-0.2-1.4-0.6-2.1-1c0.7,0.1,1.4,0.3,2.2,0.7l5.2,1.9l5.3,1.8C183.3,139.8,184,140.2,184.7,140.5z"/>
	<path class="st2" d="M186.6,138.6c-0.7-0.1-1.5-0.2-2.3-0.5c-1.3-0.4-3.2-0.9-5.3-1.7c-2.1-0.7-3.9-1.4-5.2-2
		c-0.7-0.2-1.4-0.6-2.1-1c0.7,0.1,1.4,0.4,2.2,0.7l5.2,1.9l5.3,1.8C185.1,138,185.8,138.3,186.6,138.6z"/>
	<path class="st0" d="M128.5,120.3c0,0,3.4-3.6,6.2-4c2.8-0.4,25.4,3.3,25.4,3.3l36.6,13.8c0,0-2.3,3.6-8.3,2.5
		c-6-1.1-12.7-3.1-12.7-3.1c-3.6,2.2-7.8,3.3-12,3.3c-6.8-0.1-15.4-1.7-20.4-7c-5.1-5.4-11.2-1.9-12.4-6.4
		C130.5,121.4,129.7,120.5,128.5,120.3z"/>
	<path class="st0" d="M218,80.1c-2.3,3.2-4.9,6.2-7.6,9.1c-0.7,0.9-1.9,1.5-3,1.8c3.7-4.7,6.6-10.1,8.3-15.9
		c-1.1,1.8-2.4,3.5-3.7,5.2c-0.9,1.2-2,2.5-3.1,3.6c-3.1,2.8-6.5,5.3-10.1,7.3c-2.7,1.8-5.5,3.4-8.4,4.7c-6,2.5-6.3,2.2-12.7,4.2
		c-2,0.6-5.7,1.4-7.2,2.8c-0.7,0.7-1.4,1.5-2,2.4c-5.1,6.9-11.7,12.5-19.2,16.3l11.8,5.8c5.3,0.7,10.5-0.6,14.9-3.6
		c4.2-3.1,7.8-7,10.3-11.7c0.5-1.1,1.3-2.2,2.4-3c0.9-0.5,2-0.8,3-1c1.8-0.5,3.3-1.4,4.5-2.8c-1.1,0.4-2.4,0.5-3.6,0.1
		c3.7-1.4,7.3-3,10.9-4.9c3.3-1.8,6.6-3.7,8.7-6.8c-1.3,1.1-3,1.9-4.7,2.2C212.3,91.9,216,86.4,218,80.1z"/>
	<path class="st2" d="M134.5,119.2c-0.2-0.1-0.5-0.1-0.7,0c-0.2,0.2-0.3,0.4-0.4,0.7c-0.1,0.5,0.2,1,0.7,1.2c0.5,0.2,1,0,1.3-0.5
		c0.2-0.5,0.1-1-0.3-1.3c-0.3-0.2-0.6-0.3-1-0.3"/>
	<path class="st6" d="M129.5,119.4c0,0-3.4-0.3-5.1,1.3c-1.7,1.7-2.3,3.2-2.1,3.4c0,0,0.7-0.9,3.4-1.1c1.8-0.1,3.5-0.1,5.3-0.1
		L129.5,119.4z"/>
	<path class="st0" d="M156.6,115.5c-3.2-4.9-6.4-9.8-9.6-14.8c-1.1-1.7-2.2-3.4-2.9-5.4c-1.4-4-0.9-8.5-2.5-12.5
		c-0.5,0.9-1,1.8-1.5,2.7c0-2.7-0.3-5.3-1.1-7.8l-1.7,3.1c0.2-3.6-0.4-7.3-1.7-10.7c-1.4,1-2.4,2.5-2.8,4.1
		c-0.3-3.3-0.8-6.6-1.5-9.8c-5.2,6.8-6.3,15.8-6.4,24.4c-0.1,1.7,0,3.3,0.4,5c0.5,1.8,1.3,3.4,2.5,5c4.4,6.6,10.1,12.4,12.9,19.8
		l19,4.2C158.9,122.2,156.9,116,156.6,115.5z"/>
	<path class="st0" d="M159.8,122.9h-0.1H159.8z"/>
	<path class="st2" d="M186.2,112.2c0.5-1.1,1.3-2.2,2.4-3c0.9-0.5,2-0.8,3-1c1.8-0.5,3.3-1.4,4.5-2.8c-1.1,0.4-2.4,0.5-3.6,0.1
		c3.7-1.4,7.3-3,10.9-4.9c3.3-1.8,6.6-3.7,8.7-6.8c-1.3,1.1-3,1.9-4.9,2.2c5.1-4.1,8.9-9.8,10.7-16c-2.3,3.2-4.9,6.2-7.6,9.1
		c-0.7,0.9-1.9,1.5-3,1.8c3.7-4.7,6.6-10.1,8.3-15.9c-1.1,1.8-2.4,3.5-3.7,5.2c-0.9,1.2-2,2.5-3.1,3.6c-3.1,2.8-6.5,5.3-10.1,7.3
		c-2.8,1.7-5.5,3.3-8.4,4.7l12.3-2.2l-7.4,5.3l6.9-1.1c0,0-12.3,5.7-15.1,9.5c-1.7,2-2.4,4.5-2.2,7.1L186.2,112.2z"/>
	<path class="st2" d="M144,95.3c-1.4-4-0.9-8.5-2.5-12.5c-0.5,0.9-1,1.8-1.5,2.7c0-2.7-0.3-5.3-1.1-7.8l-1.7,3.1
		c0.2-3.6-0.4-7.3-1.7-10.7c-1.4,1-2.4,2.5-2.8,4.1c-0.3-3.3-0.8-6.6-1.5-9.8c-5.2,6.8-6.3,15.8-6.4,24.4c-0.1,1.7,0,3.3,0.4,5
		l2.4-6.5c0,0,2.7-8.6,4.1-4.5s4.5,10.8,4.5,10.8l0.6-6.2c0,0,1.9,6,3.8,7.2C141.8,95.5,142.9,95.7,144,95.3z"/>
	<path class="st2" d="M169.5,103.7L169.5,103.7L169.5,103.7c-0.1,0.2-0.1,0.3-0.2,0.4c-0.2,0.3-0.5,0.6-0.8,1.1
		c-0.8,0.9-1.9,2.3-3.3,3.9c-1.4,1.7-3.2,3.5-5.2,5.6c-1,1-2.1,2.1-3.3,3.1c-0.6,0.5-1.2,0.9-2,1.3c-0.4,0.1-0.9,0.1-1.3,0.1
		s-0.8-0.1-1.2-0.1c-6.6-0.8-12.4-1.9-16.6-2.5c-0.9-0.1-1.9,0.1-2.7,0.6c-0.6,0.3-1.2,0.7-1.9,1.1c-0.9,0.7-1.4,1.2-1.4,1.1
		c0.1-0.2,0.2-0.3,0.3-0.4c0.3-0.3,0.6-0.6,1-0.9c0.5-0.5,1.1-0.9,1.9-1.2c0.8-0.5,1.9-0.8,2.9-0.7c4.3,0.4,10.2,1.4,16.7,2.3
		l1.2,0.1c0.3,0,0.7,0,1,0c0.7-0.3,1.3-0.8,1.9-1.3c1.1-0.9,2.3-2,3.3-3c2.1-2,3.8-3.9,5.3-5.5l3.5-3.7l0.9-1V103.7
		C169.5,103.7,169.5,103.6,169.5,103.7L169.5,103.7z"/>
	<path class="st2" d="M195.3,98.4c-0.1,0.1-0.2,0.2-0.3,0.3c-0.3,0.3-0.5,0.6-0.8,0.8c-1.1,0.9-2.4,1.8-3.8,2.4
		c-2.1,0.8-4.1,1.5-6.3,2.1c-1.2,0.3-2.5,0.7-3.7,1.1c-1.2,0.5-2.5,1.1-3.5,2.1c-2,1.9-3.6,3.9-5.2,6.1c-1.3,1.8-2.9,3.4-4.5,4.9
		c-1.1,0.9-2.4,1.9-3.7,2.6c-0.4,0.3-0.8,0.4-1,0.6c-0.2,0.2-0.4,0.2-0.4,0.2c0.4-0.3,0.9-0.6,1.3-0.9c1.2-0.8,2.4-1.7,3.4-2.6
		c1.7-1.4,3.1-3.1,4.4-4.9c1.5-2.3,3.3-4.3,5.3-6.2c1-0.9,2.3-1.7,3.6-2.2c1.2-0.4,2.5-0.8,3.7-1.1c2.1-0.5,4.2-1.1,6.2-2
		c1.3-0.6,2.7-1.3,3.8-2.2C194.8,98.8,195.2,98.3,195.3,98.4z"/>
	<path class="st2" d="M159.1,131.6c-0.8,0.2-1.7,0.2-2.4-0.3c-1.2-0.5-1.9-1.5-1.8-1.7c0.1-0.1,0.8,0.6,2,1.1
		C158.1,131.3,159.1,131.4,159.1,131.6z"/>
	<path class="st2" d="M164.3,132.2c-2.7,0.4-5.5-0.5-7.3-2.7c0.1-0.1,1.4,1,3.5,1.8C162.5,132,164.3,132,164.3,132.2z"/>
	<path class="st6" d="M243.3,128.8c-0.8-0.1-1.8,0-2.6,0.1c-1.4,0.4-2.7,1.3-3.5,2.6c0.4,0.1,0.9,0.1,1.3,0c1.8-0.2,3.5-0.3,5.4-0.2
		C244,130.5,243.8,129.5,243.3,128.8"/>
	<path class="st0" d="M273,136c-6.1-0.9-12.2-2.5-18-4.4c-4,3.7-6.6,8.9-11.2,12c-2.1,1.4-4.4,2.4-6.3,3.9c-2.6,2.3-3.9,5.6-5.1,8.8
		c-3.1,8.8-5.8,17.8-7.8,26.9l6.1-8.1l-0.2,4.9l8.5-13.7l0.8,4.4l19.4-17.1c3.5-3.2,6.8-6.6,9.9-10.3L273,136z"/>
	<path class="st0" d="M256.5,126.7c2.4-3.1,4.3-6.6,5.7-10.3c2.6-6.5,3.3-20,10.8-25.5c7.5-5.5,26.3-18.8,26.3-18.8l-7.8,10.9
		l9.5-7.6c-2,4-4.6,7.7-8.1,10.7l7.6-3.6c0,0-0.9,8.3-4.4,8.8c-0.5,0.1-2.7,3.1-2.7,3.1l0.8,2c0,0-9.1,19.3-11.5,23.2
		c-2.4,3.9-8.6,11.5-8.6,11.5L256.5,126.7z"/>
	<path class="st0" d="M242.9,129.4c0.1-0.3,0.4-3.6,6-3.8c2.7-0.2,5.4,0,8,0.5c0,0,15.8,4.2,18,5.5c2.2,1.2,18.3-2.6,18.3-2.6
		s7.2,12.7-2.3,21c-9.5,8.3-14.8,5.3-14.8,5.3s-0.8-9.9-4.9-12.5c0,0-7-0.1-10.3-1.8c-3.3-1.7-9.6-7.5-10.8-8.3s-4.9-0.3-6.2-1.2
		C243.2,131.2,242.8,130.2,242.9,129.4z"/>
	<circle class="st2" cx="246.6" cy="128.6" r="1.1"/>
	<path class="st2" d="M294.4,96.5l-0.8-2c0,0,2.2-3,2.7-3.1c3.4-0.6,4.4-8.8,4.4-8.8l-7.6,3.6c3.3-3,6.1-6.7,8.1-10.7l-9.5,7.6
		l7.8-10.9c0,0-18.8,13.3-26.3,18.8l12.1-3.8l-2.3,5.7l9.5-4.1c-1.1,1.7-1.4,3.7-0.9,5.7C292.5,97.2,294.4,96.5,294.4,96.5z"/>
	<path class="st2" d="M240.1,170.8l-0.8-4.4l-8.5,13.7l0.2-4.9l-6.2,8.1c2.1-9.1,4.6-18.1,7.7-26.9l-0.2,8.2l4.7-3.4v5.9l4.1-3.8
		L240.1,170.8z"/>
	<path class="st2" d="M284.7,146.2c0,0.1-0.6-0.4-1.7-0.8c-1-0.4-2.6-0.9-4.2-1.7c-2.1-0.8-3.8-2.1-5.4-3.6c0.1-0.1,2.4,1.7,5.6,3.1
		c1.5,0.7,3.1,1.2,4.2,1.8S284.8,146.2,284.7,146.2z"/>
	<path class="st2" d="M286.8,142.8c-2.1-0.2-4.1-0.7-6.1-1.5c-2-0.7-3.8-1.7-5.6-3c0.1-0.1,2.5,1.2,5.7,2.5
		C284,142,286.8,142.6,286.8,142.8z"/>
	<path class="st2" d="M272,142.3c-0.3,0.2-0.5,0.3-0.8,0.4c-0.8,0.3-1.7,0.5-2.5,0.7c-1.2,0.3-2.6,0.3-3.8,0.2
		c-1.5-0.3-3-0.9-4.3-1.8c-2.4-1.4-4.6-3.1-6.7-5.1c-0.7-0.7-1.3-1.3-1.8-1.9c-0.2-0.2-0.4-0.5-0.5-0.7c0.1,0,0.9,0.9,2.6,2.4
		c2.1,1.9,4.3,3.5,6.7,5c1.2,0.8,2.7,1.4,4.1,1.8c1.2,0.2,2.5,0.1,3.6-0.1C270.6,142.6,272,142.2,272,142.3z"/>
	<path class="st2" d="M284.1,89.8c-0.3,0.4-0.7,0.9-1.1,1.3l-3.3,3.4c-1.3,1.4-3.1,3.1-4.9,5c-0.9,0.9-1.5,2.2-1.9,3.4
		c-0.2,1.4-0.2,2.9-0.1,4.3c0.2,2.9-0.1,5.8-0.6,8.6c-0.5,2.3-1.4,4.5-2.7,6.5c-0.8,1.3-1.9,2.6-3.1,3.6c-0.3,0.3-0.6,0.5-1,0.8
		c-0.2,0.2-0.4,0.2-0.4,0.2c1.7-1.4,3-3,4.1-4.9c1.1-2,2.1-4.1,2.5-6.4c0.6-2.8,0.8-5.6,0.6-8.5c-0.1-1.4-0.1-3,0.1-4.4
		c0.3-1.4,1-2.7,2.1-3.7c1.9-1.9,3.6-3.5,5-5l3.4-3.3C283.2,90.5,283.7,90.1,284.1,89.8z"/>
	<path class="st2" d="M293,99c0,0-0.2,0.2-0.7,0.5c-0.5,0.3-1.1,0.7-2,1.2c-4.5,2.6-9.6,4.2-14.8,4.7c-1,0.1-1.8,0.1-2.4,0.1
		c-0.3,0-0.6,0-0.8,0c1-0.2,2.1-0.4,3.2-0.5c2.6-0.4,5.1-0.9,7.5-1.8c2.5-0.8,4.9-1.8,7.1-3C291.2,100,292.1,99.5,293,99z"/>
	<path class="st2" d="M293.4,91.2c0,0-0.1,0.3-0.5,0.8c-0.5,0.6-1.1,1.2-1.9,1.7c-1,0.6-2.2,1.1-3.3,1.7c-1.2,0.6-2.7,1.1-4.1,1.8
		c-3,1.1-5.7,2.1-7.6,2.8c-1,0.4-2.2,0.7-3.2,0.9c1-0.5,2.1-0.9,3.1-1.3l7.5-2.9c1.4-0.6,2.9-1.1,4.1-1.7c1.1-0.4,2.3-0.9,3.3-1.5
		C291.9,92.8,292.7,92,293.4,91.2z"/>
	<path class="st2" d="M286.4,108.9c-0.4,0.6-1,1-1.7,1.2c-1.5,0.5-3.2,1-4.9,1.3c-1.7,0.4-3.3,0.7-5.1,0.8c-0.7,0.1-1.4-0.1-2.1-0.5
		c0.7,0.1,1.3,0.1,2.1,0.1c1.7-0.2,3.3-0.5,4.9-0.9c2-0.4,3.7-0.7,4.9-1.1C285.2,109.5,285.8,109.3,286.4,108.9z"/>
	<path class="st2" d="M235.3,163.4c0.1-0.4,0.2-0.8,0.4-1.2c0.4-1.1,1-2.2,1.7-3.2c1-1.4,2.3-2.8,3.7-3.8c1.8-1.2,3.7-2.3,5.8-3.1
		c2-0.8,3.9-1.9,5.7-3.1c1.4-1,2.7-2.2,3.9-3.5c1-1.2,2-2.6,2.9-3.9c-0.1,0.4-0.3,0.8-0.5,1.2c-0.6,1-1.2,2.1-2.1,3
		c-1.1,1.3-2.5,2.6-3.9,3.7c-1.8,1.2-3.7,2.3-5.8,3.1c-2,0.8-3.9,1.9-5.7,3c-1.4,1-2.7,2.3-3.7,3.7
		C236.7,160.4,235.9,161.8,235.3,163.4z"/>
	<path class="st2" d="M243.7,165.7c0.4-1.9,0.6-3.7,0.8-5.6c0-1.9-0.1-3.8-0.4-5.7C245.5,158.1,245.3,162.1,243.7,165.7z"/>
	<path class="st2" d="M250.2,160.4c-0.1,0,0-1.9-0.2-4.1c-0.2-1.3-0.3-2.8-0.3-4.1C250.6,154.8,250.8,157.7,250.2,160.4z"/>
	<path class="st2" d="M255.5,156.1c-0.3-1.3-0.6-2.7-0.8-4c-0.3-1.3-0.6-2.7-0.8-4c0.7,1.2,1.1,2.6,1.3,3.9
		C255.6,153.3,255.7,154.7,255.5,156.1z"/>
	<path class="st2" d="M261.5,147.1c-0.1,0.1-0.8-0.3-1.5-1c-0.7-0.7-1.2-1.2-1.1-1.3c0.1-0.1,0.8,0.3,1.5,1
		C261.1,146.5,261.6,147,261.5,147.1z"/>
	<path class="st2" d="M276,128.2c-1.3-0.6-2.6-1.4-3.6-2.4c-1.2-0.8-2.4-1.8-3.3-2.8c1.3,0.6,2.6,1.4,3.6,2.4
		C273.8,126.2,275,127.1,276,128.2z"/>
	<path class="st2" d="M282.9,119.2c-1.9,0.9-3.9,1.4-6.1,1.4c-1.8,0-3.3-0.2-4.3-0.2c-0.6,0-1.2,0-1.9-0.2c0.6-0.2,1.2-0.3,1.9-0.2
		c1.1,0,2.7,0.1,4.3,0.1C278.9,119.9,280.9,119.6,282.9,119.2z"/>
</g>
<g id="Ground">
	<g class="st7">
		<path d="M405.1,378.6c-0.5-0.5-0.7-0.6-1.3-0.5c-0.4,0-0.7,0.2-0.9,0.5c-0.4,0.3-0.5,0.9-0.3,1.4c0.2,0.3,0.6,0.5,0.9,0.5
			c0.6,0.2,1.2,0.1,1.8-0.2C405.7,379.9,405.6,379,405.1,378.6z"/>
	</g>
	<g class="st7">
		<path d="M408.4,377.6c-0.3-0.3-0.4-0.4-0.8-0.3c-0.2,0-0.4,0.1-0.5,0.3c-0.2,0.2-0.3,0.5-0.2,0.8c0.1,0.2,0.3,0.3,0.5,0.3
			c0.3,0.1,0.7,0.1,1-0.1C408.8,378.3,408.7,377.9,408.4,377.6z"/>
	</g>
	<path class="st0" d="M280.5,404.2c0,0-21-6.1-25.4-6.4c-3.5-0.3-6.7,3.9-7.8,5.7c-0.3,0.5-0.5,0.7-0.5,0.7H280.5z"/>
	<path class="st2" d="M280.5,404.2l-9.7,0.1c-6.1,0.1-14.7,0.2-24.2,0.2h-0.5l0.2-0.4c0.3-0.5,0.6-1,0.9-1.4
		c1.3-2.1,3.2-3.7,5.5-4.7c0.5-0.2,1.1-0.3,1.8-0.3c0.3,0,0.6,0,0.9,0s0.5,0.1,0.8,0.1c1.1,0.2,2.2,0.4,3.2,0.6
		c4.1,0.9,7.8,2,10.9,2.9s5.6,1.7,7.3,2.2l2,0.6C280.1,404,280.3,404.1,280.5,404.2c-0.2,0-0.5-0.1-0.7-0.1l-2-0.5l-7.3-2
		c-3.1-0.8-6.8-1.8-10.9-2.7c-1-0.2-2.1-0.4-3.2-0.6c-1-0.2-2.2-0.2-3.2,0.2c-2.1,1-3.9,2.6-5.2,4.5c-0.3,0.5-0.6,1-0.9,1.4
		l-0.2-0.4c9.3,0,17.7,0.1,23.7,0.2L280.5,404.2z"/>
	<path class="st2" d="M344.6,403.9c0,0.1-34.3,0.4-76.5,0.6c-42.2,0.2-76.5,0.2-76.5,0.1s34.3-0.4,76.5-0.6S344.6,403.7,344.6,403.9
		z"/>
	<path class="st2" d="M288.2,409.4c0,0.1-9.4,0.3-21.1,0.3c-11.7,0-21.1-0.1-21.1-0.3s9.4-0.3,21.1-0.3
		C278.8,409.1,288.2,409.3,288.2,409.4z"/>
	<path class="st4" d="M499.3,361.2l-2.2-0.8l-2.9,2.8l1.9-5.3l-3.8-0.7l-3.2,5.3l1.5-6.6l-3.8-0.5l-2.2,7.2l0.6-9.9l-1.8,0.5
		l-2.6,10.2l0.9-12.9c0,0-4.5-1.7-4.6-1.3c-0.1,0.3-5.9,13-5.9,13l1.4-12.8l-10.8-2.1l-2.8,15.5l-0.4-15.4l-9.4-0.9l-2.3,17.8
		l-1.7-18.6l-2.1,0.1l0.7,19l-5.4-19.8l-11.7,0.4l0.5,21.1l-5.1-20.4l-2.7,0.4l3.5,20.6l-6.3-17.9l-4.6,1.4l-1.9,4.6l-0.5,19
		l-3-20.8l-2.7,0.4l1.4,21l-6-20.1l-11.4,3.2l1,20.5l-5.2-18.3l-2.1,0.5l4.1,18.2l-7.6-16.2l-8.6,3.8l4.3,14.8l-7.4-13.8l-9.6,5.4
		l5.4,11.8c0,0-9.4-10.3-9.6-10.6s-4,2.7-4,2.7l4.9,12l-5.6-8.9h-1.9l3.7,9.3l-4.3-6.2l-3.5,1.7l3.5,5.9l-4.6-4l-3.4,1.9l3.4,4.4
		l-3.6-1.9l-1.9,1.5l3,3.1l83.7-16.3l-1.5-4.4l76.3-9.2L499.3,361.2z"/>
	<path class="st0" d="M292.9,404.4c0,0,126.1-36.2,163.8-41.1s97.2,0,97.2,0L543.2,384l-198.5,19.9L292.9,404.4z"/>
	<path class="st2" d="M292.9,404.4l51.7-0.7l0,0l198.5-20l-0.2,0.1c2.8-5.4,5.8-11.2,8.8-16.9l1.9-3.7l0.2,0.4
		c-18.4-1.3-36.3-2.1-53.7-2.2c-8.7,0-17.2,0.1-25.5,0.6c-8.2,0.4-16.2,1.2-24.3,2.6c-2,0.3-3.9,0.7-5.9,1l-5.8,1.1l-11.3,2.5
		l-10.8,2.5l-10.5,2.6c-13.7,3.4-26.5,6.7-38.1,9.7c-23.2,6.1-42,11.4-54.9,14.9l-14.9,4.1l-3.9,1L292.9,404.4l1.2-0.4l3.9-1.1
		l14.9-4.2c12.9-3.6,31.7-8.9,54.9-15.1c11.7-3.1,24.4-6.4,38.1-9.8l10.5-2.5l10.8-2.6l11.3-2.5l5.8-1.1c2-0.4,3.8-0.8,5.9-1
		c8.1-1.3,16.2-2.2,24.4-2.6c8.4-0.5,16.8-0.6,25.6-0.6c17.3,0,35.4,0.7,53.8,2.1h0.4l-0.2,0.4l-1.9,3.7l-8.7,16.9l-0.1,0.1h-0.1
		l-198.5,19.8l0,0L292.9,404.4z"/>
	<g class="st7">
		<path d="M335,392.5c0,0,35.3,2.8,45.4,2.6s53.4-7.5,54.7-7.4s23.3-14.2,32.2-14.7c8.9-0.4,39,3.6,39,3.6l5.5-3.7
			c0,0-39.2-5.1-46.4-4.9s-24.9,15.5-31.1,16.5c-6.2,1-71.7,4.4-76.4,3l-2.2-0.7L335,392.5z"/>
	</g>
	<path class="st8" d="M516.3,384.1l-2.5-99.7l12.6-10.5l-1-2.1l-11.8,8.4l-5.8-72.9H505c0,0-2.1,162.7-5.6,168.3s-9.9,8.6-9.9,8.6
		H516.3z"/>
	<path class="st9" d="M512.7,378.9c0-0.1,0-0.2,0-0.3c0-0.2,0-0.5,0.1-0.9c0.1-0.8,0.2-2.1,0.4-3.6c0.3-3.1,0.8-7.7,1.3-13.3
		c0.5-6.6,0.7-13.2,0.4-19.8c-0.2-3.9-0.5-7.8-1.1-11.7c-0.6-4-1.7-8.2-2.6-12.4c-0.9-4.1-1.7-8.3-2.2-12.5c-0.2-2-0.3-4-0.2-6
		c0.1-2,0.2-3.8,0.5-5.8c0.5-3.7,1.2-7.2,2-10.4c0.7-3.2,1.3-6.3,1.7-9.1c0.7-4.4,0.7-8.9,0-13.3c-0.2-1.2-0.5-2.4-0.8-3.5
		c-0.1-0.4-0.2-0.6-0.3-0.9c0-0.1-0.1-0.2-0.1-0.3c0,0,0,0.1,0.1,0.3l0.3,0.9c0.4,1.1,0.7,2.4,0.9,3.5c0.8,4.4,0.8,9,0.1,13.4
		c-0.4,2.8-0.9,5.9-1.7,9.2c-0.7,3.3-1.4,6.7-1.9,10.4c-0.2,1.9-0.4,3.8-0.4,5.7c0,2,0.1,4,0.2,6c0.5,4.1,1.2,8.3,2.2,12.4
		c0.9,4.2,1.9,8.4,2.6,12.4c0.6,3.9,1,7.7,1.1,11.7c0.2,6.6,0.1,13.3-0.5,19.9c-0.5,5.7-1,10.2-1.4,13.3c-0.2,1.5-0.4,2.8-0.5,3.6
		c0,0.4-0.1,0.7-0.1,0.9C512.7,378.7,512.7,378.8,512.7,378.9z"/>
	<path class="st9" d="M493.6,384c1.5,0.1,3.1-0.1,4.5-0.5c3.9-1.1,7.3-3.6,9.6-6.9c1.4-2.3,2.6-4.7,3.3-7.3c0.8-3,1.3-6,1.8-9
		c0.9-6.9,1.1-13.9,0.4-21c-0.1-1.1-0.3-2.4-0.9-3.4c-0.3-0.5-0.6-0.9-1.1-1.2c-0.5-0.3-1.1-0.4-1.7-0.3c-1.1,0.3-2.1,1-2.7,2.1
		s-1.1,2.1-1.4,3.1c-1.5,3.9-2,8.3-1.1,12.4c0.1,0.9,0.4,1.9,0.8,2.7c0.2,0.4,0.6,0.6,1,0.6s0.8-0.2,1.1-0.6
		c0.3-0.3,0.5-0.7,0.7-1.1s0.4-0.8,0.5-1.1c0.3-0.7,0.5-1.5,0.6-2.4c0.5-2.8,0-5.6-1.3-8.1h0.2c-1.2,1.7-1.9,3.6-1.9,5.7
		c0,0.5,0,1,0.1,1.5c0,0.2,0.1,0.3,0.1,0.5c-0.2-0.6-0.3-1.3-0.3-2.1c0-2.1,0.6-4.1,1.8-5.8l0.1-0.2l0.1,0.2
		c1.3,2.5,1.9,5.5,1.4,8.3c-0.2,1.8-0.9,3.4-2,4.9c-0.3,0.4-0.8,0.7-1.4,0.7c-0.6,0-1.1-0.3-1.4-0.7c-0.5-0.8-0.8-1.9-0.9-2.8
		c-0.8-4.2-0.4-8.7,1.1-12.7c0.4-1.1,0.9-2.2,1.5-3.1c0.3-0.5,0.7-1,1.2-1.4c0.5-0.4,1.1-0.7,1.8-0.9c0.7-0.1,1.4,0,2.1,0.4
		c0.5,0.3,1,0.8,1.3,1.4c0.5,1.1,0.9,2.4,0.9,3.6c0.7,7,0.5,14-0.4,21.1c-0.4,3.1-0.9,6.1-1.8,9.1c-0.7,2.6-1.9,5.2-3.4,7.3
		c-2.4,3.4-5.9,5.9-9.8,6.9c-1.1,0.3-2.3,0.4-3.4,0.4c-0.3,0-0.6,0-0.9-0.1C493.7,384,493.6,384,493.6,384z"/>
	<path class="st9" d="M509.4,270.9c-0.1-0.1-0.3-0.2-0.4-0.3l-1.2-1h0.1c-0.3,0.8-0.5,1.8-0.6,2.7c-0.1,1.3,0.2,2.7,0.7,3.9
		c0.1,0.4,0.3,0.7,0.6,1c0.2,0.3,0.6,0.5,1,0.4c0.4-0.1,0.7-0.4,0.9-0.8c0.2-0.4,0.3-0.8,0.4-1.2c0.3-2,0.3-4,0-6
		c-0.1-1.1-0.4-2.2-0.7-3.3c-0.1-0.5-0.4-1.1-0.6-1.7c-0.3-0.5-0.7-0.9-1.1-1.2c-0.5-0.3-1.1-0.3-1.7,0s-0.9,0.8-1.1,1.3
		c-0.3,0.6-0.5,1.1-0.6,1.8c-0.2,0.6-0.3,1.2-0.4,2c-1,5.2-0.4,10.9,0.2,16.8c0.7,6.7,1.1,13.3,1,20c-0.1,5.5-0.4,10.9-1.1,16.3
		c-0.5,4.6-1.2,8.4-1.8,10.9c-0.2,1.2-0.5,2.3-0.6,3c-0.1,0.3-0.1,0.5-0.2,0.7c0,0.1,0,0.2-0.1,0.3c0-0.1,0-0.2,0-0.3
		c0-0.2,0.1-0.4,0.1-0.8c0.1-0.7,0.3-1.7,0.5-3c0.5-2.6,1-6.3,1.5-10.9c0.5-4.6,0.9-10.2,0.9-16.3c0.1-6.7-0.3-13.4-1-20
		c-0.6-5.9-1.2-11.7-0.2-16.9c0.1-0.6,0.3-1.3,0.5-2c0.1-0.6,0.4-1.2,0.6-1.9c0.3-0.6,0.7-1.1,1.3-1.5c0.6-0.3,1.4-0.3,2.2,0
		c0.6,0.3,1,0.8,1.3,1.4c0.3,0.5,0.5,1.1,0.6,1.7c0.3,1.1,0.5,2.2,0.7,3.3c0.2,2.1,0.2,4.1-0.1,6.1c-0.1,0.5-0.2,0.9-0.4,1.3
		c-0.2,0.4-0.6,0.8-1.1,0.9c-0.5,0.1-1-0.1-1.3-0.5c-0.3-0.3-0.5-0.6-0.6-1c-0.9-2.2-0.9-4.5,0-6.7v-0.1l0.1,0.1l1.1,1
		C509.1,270.6,509.3,270.7,509.4,270.9z"/>
	<path class="st4" d="M508.4,139c0,1-22.8,61.6-22.8,61.6l11.5-9.8l-16.5,42.4l10.9-12.7l-17.3,53.7l10.7-6.1L474,305.6l9.3-9.8
		l-9.3,28.1l73.6-4.5l-17.4-52.9l10.5,9.8l-13.6-38.5l7,3.3l-15.9-49.6l7.3,4.2L508.4,139z"/>
	<polygon class="st9" points="357.6,520.1 404.4,484.3 426.7,461.6 421.6,411.5 532.2,388.2 750,387.5 751,520 414.5,520.1 	"/>
	<g class="st7">
		<path class="st10" d="M645.5,448.4c0,0-29.9-6.3-56.6-1.5s-65.4,19-96.6,16.9c-31.3-2.1-66.2-18.1-66.2-18.1l-1,0.2l1.2,12.1
			c0,0,41.1,11.2,63.3,18.4c22.2,7.2,70.2-17.2,89.2-22.4c19-5.2,52.3-1.4,62.7,4c10.3,5.5,108.8-15.7,108.8-15.7l-0.2-24.8
			L645.5,448.4z"/>
	</g>
	<path class="st11" d="M593.6,385.9c-0.7,0.5-9.5,8.2-9.5,8.2l-1,10.8l-4.1,1.2l-9.7-2.3l-7.3,6.5l-8.2-3.2l8,4.6l2.5-1l5.4-4.7
		l9.3,2.2l-8.5,1.7l-5.2,4.6l0.3,6.1l1-5.2l4.3-3.8l9.9-2.5l4.7-2.9l2-7.2l1.5,7.4l-7.8,5.4l-1.3,10.1l-10.7,2.7l-6.4,4.6l-3.7-5.5
		l-12.5-1.4l11.2,2.9l4.6,6.7l-3,3.5l-8.3-2.1l-9.4,9.6l9.3-6.9l9,1.5l3.2-2.7l1.9-5.1l4.9-4.2l8.9-1.3l1,6L570,436l-1.9,10.6
		l-9.4,3.7l11.4-3.8l1.5-9.2l10.9-5.9l-1-8l1.7-11.6l3.3-1.8l-0.3,10l6.5,3.6l-4.2-4.4l0.2-9.3l3.1-4l-1.8-8.9l-1-3.8l5.7-5.2
		L593.6,385.9z"/>
	<path class="st11" d="M589.4,399.4c0.6,0.1,9,3.3,9,3.3l3.5,7.6l3.3-0.2l6.4-4.1l7,2.8l5.1-4.4l-4.5,5.4l-2.1-0.1l-5.1-2l-6.1,3.9
		l6.5-1l5,2.1l1.3,4.4l-2.1-3.5l-4.1-1.7l-7.7,0.8l-4.2-0.8l-3.3-4.7l0.8,5.8l7,1.9l3.5,7l8.4-0.8l5.8,1.7l1.2-5l8.7-4.2l-7.2,5
		l-1.5,6.1l3,1.8l5.5-3.6l9.3,4.5l-8.5-2.6l-6.1,3.5l-3-1.1l-2.6-3.2l-4.6-1.8l-6.7,1.3l0.8,4.5l8.6,1.5l4,7.1l7.7,0.3l-9.2,0.2
		l-3.5-6.2l-9.4-1.3l-1.3-6l-4.2-7.8l-2.9-0.4l2.8,7.1l-3.7,4.2l1.9-4.3l-2.6-6.6l-3.3-2.1l-1-6.8l-0.3-3l-5.5-2.3L589.4,399.4z"/>
	<path class="st4" d="M750,321.7c0,0-271.4,47.4-290.1,59.5c-13.6,8.9-26.2,19-37.9,30.3l0.6,6.6c0,0,54.3-2.3,95.8-14.1l78.8-12.5
		l152.8,1.4V321.7z"/>
	<path class="st8" d="M705.1,344.7l-2.6-104.3l13.2-11l-1-2.2l-12.4,8.8l-6.1-76.2h-3c0,0-2.2,170.1-5.8,175.9
		c-3.6,5.9-10.4,9-10.4,9H705.1z"/>
	<path class="st9" d="M701.2,339.3c0-0.1,0-0.2,0-0.3c0-0.2,0-0.5,0.1-1c0.1-0.9,0.2-2.2,0.4-3.8c0.3-3.3,0.9-8.1,1.3-13.9
		c0.6-6.9,0.7-13.8,0.5-20.8c-0.2-4.1-0.6-8.2-1.2-12.2c-0.7-4.2-1.7-8.5-2.7-12.9c-1-4.3-1.8-8.7-2.3-13c-0.2-2.1-0.3-4.2-0.2-6.3
		c0.1-2,0.2-4,0.5-6c0.5-3.9,1.3-7.5,2.1-10.9s1.3-6.6,1.8-9.5c0.7-4.6,0.7-9.3,0-13.9c-0.2-1.2-0.5-2.5-0.9-3.7
		c-0.1-0.4-0.2-0.7-0.3-0.9c0-0.1-0.1-0.2-0.1-0.3c0.1,0.1,0.1,0.2,0.1,0.3c0.1,0.2,0.2,0.5,0.3,0.9c0.4,1.2,0.8,2.5,1,3.7
		c0.8,4.6,0.8,9.4,0.2,14c-0.4,3-1,6.2-1.8,9.6c-0.7,3.4-1.4,7-2,10.9c-0.3,2-0.4,3.9-0.5,6c0,2.1,0.1,4.1,0.3,6.2
		c0.5,4.3,1.2,8.7,2.2,13c1,4.4,2,8.8,2.7,13c0.6,4,1,8.2,1.2,12.2c0.2,6.9,0,13.8-0.6,20.8c-0.5,5.9-1.1,10.6-1.5,13.9
		c-0.2,1.7-0.4,2.9-0.5,3.8C701.2,338.6,701.2,338.9,701.2,339.3C701.3,339.1,701.3,339.2,701.2,339.3z"/>
	<path class="st9" d="M681.3,344.6c1.5,0.1,3.2-0.1,4.7-0.5c4.1-1.1,7.6-3.7,10-7.2c1.5-2.4,2.8-5,3.5-7.6c0.8-3.1,1.4-6.2,1.9-9.4
		c1-7.2,1.1-14.6,0.4-21.9c-0.1-1.2-0.4-2.5-0.9-3.6c-0.3-0.5-0.7-1-1.2-1.3c-0.5-0.3-1.1-0.4-1.8-0.3c-1.1,0.3-2.2,1.1-2.8,2.2
		c-0.6,1-1.1,2.1-1.5,3.2c-1.5,4.1-2,8.6-1.2,12.9c0.1,1,0.4,2,0.9,2.8c0.2,0.4,0.6,0.6,1.1,0.6c0.4,0,0.8-0.3,1.1-0.6
		c0.3-0.3,0.5-0.7,0.7-1.1c0.2-0.4,0.4-0.8,0.5-1.2c0.3-0.8,0.5-1.7,0.7-2.5c0.5-2.9,0-5.9-1.3-8.5h0.2c-1.2,1.8-2,3.8-2,5.9
		c0,0.5,0,1.1,0.1,1.7c0,0.2,0.1,0.4,0.1,0.5c-0.2-0.7-0.3-1.4-0.3-2.2c0-2.2,0.6-4.2,1.9-6.1l0.1-0.2l0.1,0.2
		c1.4,2.6,2,5.7,1.5,8.6c-0.3,1.9-0.9,3.6-2.1,5.1c-0.3,0.4-0.9,0.7-1.4,0.7c-0.6,0-1.1-0.3-1.5-0.8c-0.5-0.9-0.9-1.9-1-3
		c-0.8-4.4-0.4-9,1.1-13.2c0.4-1.1,0.9-2.3,1.5-3.3c0.3-0.5,0.8-1,1.2-1.4c0.5-0.5,1.1-0.8,1.9-0.9c0.7-0.1,1.4,0,2.1,0.4
		c0.6,0.4,1,0.9,1.3,1.5c0.6,1.1,0.9,2.5,1,3.7c0.7,7.3,0.6,14.8-0.5,22c-0.4,3.2-1,6.4-1.9,9.5c-0.7,2.8-2,5.4-3.6,7.7
		c-2.5,3.6-6.1,6.1-10.3,7.2c-1.1,0.3-2.4,0.4-3.5,0.4c-0.4,0-0.7,0-0.9-0.1L681.3,344.6z"/>
	<path class="st9" d="M697.8,226.3c-0.2-0.1-0.3-0.2-0.4-0.3l-1.3-1h0.1c-0.9,2.3-0.8,4.7,0.1,6.9c0.1,0.4,0.3,0.7,0.6,1
		c0.2,0.3,0.6,0.5,1,0.4s0.7-0.4,0.9-0.8c0.2-0.4,0.4-0.8,0.4-1.3c0.3-2.1,0.3-4.2,0-6.3c-0.1-1.1-0.4-2.3-0.7-3.4
		c-0.2-0.6-0.4-1.1-0.7-1.7c-0.3-0.5-0.7-1-1.2-1.3s-1.2-0.3-1.8,0s-0.9,0.8-1.2,1.4c-0.3,0.6-0.5,1.2-0.6,1.9
		c-0.2,0.6-0.3,1.3-0.5,2c-1,5.5-0.4,11.5,0.2,17.7c0.8,6.9,1.1,13.9,1,21c-0.1,5.7-0.4,11.5-1.1,17.1c-0.6,4.9-1.2,8.8-1.9,11.5
		c-0.2,1.3-0.5,2.4-0.6,3.1l-0.2,0.8c0,0.1,0,0.2-0.1,0.3v-0.3c0-0.2,0.1-0.5,0.1-0.8c0.1-0.7,0.3-1.8,0.5-3.1
		c0.5-2.7,1.1-6.6,1.7-11.5c0.5-4.9,0.9-10.6,1-17.1c0.1-7-0.3-13.9-1.1-21c-0.7-6.2-1.3-12.2-0.2-17.8c0.2-0.7,0.3-1.3,0.5-2.1
		c0.1-0.7,0.4-1.3,0.7-2c0.3-0.6,0.8-1.2,1.4-1.7c0.7-0.4,1.5-0.4,2.3,0c0.6,0.3,1.1,0.8,1.4,1.4c0.3,0.5,0.5,1.1,0.7,1.8
		c0.3,1.1,0.6,2.3,0.7,3.5c0.3,2.2,0.2,4.2-0.1,6.4c-0.1,0.5-0.2,0.9-0.5,1.4c-0.2,0.5-0.6,0.8-1.1,0.9c-0.5,0.1-1-0.1-1.3-0.5
		c-0.3-0.3-0.5-0.7-0.6-1.1c-0.5-1.3-0.8-2.7-0.7-4.1c0.1-1,0.3-2,0.7-2.9v-0.1l0.1,0.1l1.2,1.1
		C697.4,226.1,697.6,226.2,697.8,226.3z"/>
	<path class="st4" d="M696.8,88.4c0,1-23.9,64.4-23.9,64.4l12-10.2L667.7,187l11.4-13.3l-18.2,56.2l11.3-6.3l-11.4,39.2l9.7-10.2
		l-9.7,29.3l76.9-4.7l-18.3-55.2l11,10.2l-14.2-40.3l7.3,3.4l-16.6-51.9l7.7,4.4L696.8,88.4z"/>
	<path class="st9" d="M528.1,404.9l-4.6-7.7c1.9,1.5,3.8,3,5.8,4.3c-1.2-3-2-6.3-2.1-9.6c1.2,3.2,2.9,6.3,5,9.1
		c0.2-2.1,0.4-4.2,1.8-5.9c0.1,3.5,1,6.9,2.6,10.1c-2.1-0.5-4.3-0.5-6.4,0"/>
	<circle class="st11" cx="448.2" cy="465.8" r="4.5"/>
	<path class="st11" d="M694,417.2c0,2.7-2.2,4.9-4.9,4.9c-2.7,0-4.9-2.2-4.9-4.9s2.2-4.9,4.9-4.9l0,0
		C691.8,412.4,694,414.6,694,417.2z"/>
	<g class="st7">
		<path d="M612.3,459.6c0,2.7-2.2,4.9-4.9,4.9c-2.7,0-4.9-2.2-4.9-4.9s2.2-4.9,4.9-4.9l0,0C610.2,454.7,612.3,456.9,612.3,459.6
			L612.3,459.6z"/>
	</g>
	<path class="st11" d="M461.2,458c0,1.5-1.2,2.7-2.7,2.7c-1.4,0-2.7-1.2-2.7-2.7c0-1.5,1.2-2.7,2.7-2.7
		C460,455.3,461.2,456.5,461.2,458L461.2,458z"/>
	<circle class="st11" cx="673.8" cy="409.3" r="2.9"/>
	<g class="st7">
		<circle cx="593" cy="473.2" r="2.9"/>
	</g>
	<path class="st11" d="M357.6,520.1c14.4-3.3,29.3-15.3,45-14.7c4.3,0.1,8.5,1.7,12.7,2.5c13.6,2.6,27.6-1.8,40.5-6.9
		c7.7-3.1,15.7-6.6,24.1-6.3c7.1,0.2,13.9,3.2,21.1,3.5c19.1,0.7,34.9-17.7,54-17.6c10.3,0,20.3,5.6,30.5,3.6
		c8.4-1.5,15.1-7.8,23.1-10.7c9.3-3.3,19.8-1.5,28.5,3c0,0,9.1,4,17.6,2s19.2-12.9,25.3-12.7c6.1,0.2,70.6,2.1,70.6,2.1l0.4,52.1
		l-304.1,0.2l-37.4,0.4L357.6,520.1z"/>
	<path class="st2" d="M534.1,344.9c0.7,0.5,1.4,1.2,2,2c3,3.3,5.3,7.2,6.8,11.5c0.3,0.8,0.6,1.8,0.7,2.7c-0.4-0.8-0.8-1.7-1.1-2.6
		c-0.8-2.1-1.9-4-3-5.9s-2.4-3.7-3.8-5.5C535.1,346.3,534.6,345.6,534.1,344.9z"/>
	<path class="st2" d="M544.1,336.5c0,0.3,0,0.6,0,0.9c0,0.8,0.1,1.8,0.2,2.6c0.3,2.2,0.7,5.2,1.2,8.5c0.5,3.3,1.1,6.2,1.5,8.4
		c0.3,1.1,0.5,2.3,0.6,3.5c-0.4-1.1-0.7-2.3-0.9-3.4c-0.5-2.2-1.1-5.1-1.7-8.4c-0.5-3.3-0.9-6.3-1.1-8.5c-0.1-0.8-0.1-1.8,0-2.6
		C543.9,337.1,543.9,336.8,544.1,336.5z"/>
	<path class="st2" d="M550.5,349c0.2,0-0.2,2.4-0.2,5.3c0,2.9,0.4,5.2,0.2,5.3C549.5,356,549.5,352.4,550.5,349L550.5,349z"/>
	<path class="st2" d="M641.8,342.7c-0.1,0.1-1.5-3.1-3.7-6.7c-2.2-3.6-4.2-6.3-4.1-6.4c0.6,0.5,1.1,1,1.5,1.7
		c1.1,1.4,2.2,2.9,3.1,4.4c0.9,1.5,1.8,3.2,2.5,4.9C641.3,341.3,641.7,342,641.8,342.7z"/>
	<path class="st2" d="M643.6,341.5c-0.2,0-1-2.9-2.4-6.5c-1.3-3.6-2.8-6.3-2.7-6.3c0.4,0.5,0.8,1.1,1.1,1.8c1.5,2.9,2.8,5.9,3.6,9.1
		C643.5,340.1,643.6,340.7,643.6,341.5z"/>
	<path class="st2" d="M645,324.9c0.1,0.8,0.2,1.5,0.1,2.4c0,1.7,0.1,3.6,0.1,5.8c0,2.2,0.2,4,0.2,5.8c0.1,0.8,0.1,1.5,0,2.4
		c-0.2-0.7-0.3-1.5-0.4-2.4c-0.2-1.4-0.3-3.5-0.4-5.8s0-4.3,0-5.8C644.7,326.6,644.8,325.8,645,324.9z"/>
	<path class="st2" d="M482.7,397.6c-0.1,0.1-1.2-1.8-3-3.8c-1.8-2.1-3.3-3.6-3.2-3.7C479.2,391.9,481.3,394.6,482.7,397.6
		L482.7,397.6z"/>
	<path class="st2" d="M485.8,397.5c-0.5-0.5-0.9-1.1-1.1-1.9c-0.6-1.1-1.5-2.8-2.5-4.5s-1.7-3.5-2.2-4.7c-0.3-0.6-0.5-1.3-0.7-2.1
		c1.2,2.2,2.4,4.3,3.3,6.5C484.4,394.5,486,397.4,485.8,397.5z"/>
	<path class="st2" d="M489.7,397c-0.3-0.6-0.6-1.2-0.7-2c-0.4-1.7-0.7-3.3-1-5c-0.2-1.7-0.3-3.4-0.3-5.1c0-0.7,0-1.3,0.2-2.1
		c0.1,0,0.1,3.2,0.6,7.1C489,394,489.8,397,489.7,397z"/>
	<polygon class="st4" points="674,349.3 691.4,340.3 707.9,336.1 709.8,352.1 687.7,354.2 	"/>
	<polygon class="st11" points="468.9,441.2 481.2,443.3 491.2,431.2 481.4,423.5 463.8,429.6 	"/>
	<polygon class="st11" points="544.5,457.2 546.3,463.5 554.2,465.6 555.7,459.2 548.8,452.2 	"/>
	<polygon class="st11" points="474,478.2 482.6,487.2 502.4,489.5 510.7,475.5 492.4,470.3 	"/>
	<path class="st11" d="M517,471.9c0.3,1,1,5.5,1,5.5h3.8l4.1-2.7L517,471.9z"/>
	<g class="st7">
		<path class="st10" d="M576.5,390.5c0.1,0.3-4.7,2-13,2.3c-4.9,0.2-9.6-0.1-14.4-0.9c-1.4-0.2-2.9-0.6-4.2-1.1
			c-0.8-0.3-1.5-0.9-2.2-1.5c-0.3-0.4-0.6-0.9-0.7-1.4c-0.1-0.5-0.1-1.1,0-1.7c0.2-0.8,0.6-1.7,1-2.4c0.2-0.3,0.4-0.6,0.5-0.9
			c0.1-0.2,0.2-0.5,0.3-0.7c0.1-0.3,0.1-0.7-0.1-1c-0.1-0.1-0.4-0.3-1.1-0.4c-6.1-0.3-12-0.5-17.3-0.9l-7.6-0.5
			c-1.2,0-2.6-0.3-3.7-0.8c-0.7-0.3-1.2-0.8-1.7-1.4c-0.4-0.7-0.4-1.5-0.2-2.3c0.4-1,1-2,1.9-2.7l1.8-1.9c1.1-1.1,2.1-2.2,2.9-3
			c1.5-1.5,2.6-2.5,2.7-2.3c0.1,0.2-0.5,1.1-1.9,3c-0.7,0.9-1.5,2-2.6,3.3l-1.5,2.1c-0.5,0.6-1,1.3-1.2,2.1c-0.1,0.2,0,0.5,0.1,0.7
			c0.2,0.3,0.5,0.5,0.8,0.6c0.9,0.3,2,0.5,3,0.4l7.5,0.2c5.4,0.2,11.2,0.4,17.4,0.7c0.5,0,1,0.1,1.4,0.3c0.6,0.2,1.1,0.5,1.5,1
			s0.6,1.1,0.7,1.8c0.1,0.5,0,1-0.1,1.5c-0.1,0.5-0.3,0.9-0.5,1.3c-0.2,0.4-0.4,0.7-0.6,1c-0.3,0.5-0.6,1-0.8,1.5
			c-0.1,0.3,0,0.7,0.2,0.9c0.3,0.4,0.7,0.7,1.2,0.9c1.1,0.5,2.4,0.8,3.6,1c4.5,0.9,9.2,1.4,13.8,1.5
			C571.5,391,576.4,390.1,576.5,390.5z"/>
	</g>
	<polygon class="st8" points="594.4,192.5 604.5,178.1 605.9,182.5 594,200 	"/>
	<path class="st4" d="M568,339.6c-0.8,4.5,0.1,9.2,1,13.7c-2.8-3.8-5.5-7.7-8.1-11.7c0.6,4.4,2.1,8.7,4.1,12.6
		c-2.5-2.2-5.1-4.3-7.7-6.2c2.6,3.4,5.1,6.8,7.4,10.4l8.9-0.9C571.1,351.8,569.3,345.8,568,339.6z"/>
	<path class="st4" d="M724.2,311.3c-0.8,4.5,0.1,9.2,1,13.7c-2.8-3.8-5.5-7.6-8.1-11.7c0.6,4.4,2.1,8.7,4.1,12.6
		c-2.5-2.2-5.1-4.3-7.7-6.2c2.6,3.4,5.1,6.8,7.4,10.4l8.9-0.9C727.3,323.4,725.3,317.4,724.2,311.3z"/>
	<polygon class="st0" points="558.6,381.7 567.3,371.6 579.3,365.7 587.9,371.8 581.3,378.9 	"/>
	<path class="st2" d="M558.5,381.8L558.5,381.8l8.8-10.2l12-5.9l0,0l8.6,6.2l0,0l-6.7,7.1l0,0L558.5,381.8z M567.3,371.6l-8.7,10.1
		l22.5-2.8l6.6-7.1l-8.6-6.2L567.3,371.6z"/>
	<path class="st4" d="M598.3,59.1c0,1.2-27.5,80.4-27.5,80.4l13.7-12.8L564.7,182l13.1-16.6l-20.9,70l12.9-7.8l-13.1,48.9l11.2-12.8
		l-11.2,36.6l88.6-6l-21-69l12.7,12.8l-16.4-50.2l8.4,4.2L610,127.6l8.9,5.6L598.3,59.1z"/>
	<path class="st8" d="M607.8,378.9l-2.9-130.1l15.3-13.8l-1.2-2.7l-14.2,10.9l-7-95h-3.5c0,0-2.5,212.2-6.7,219.5
		c-4.2,7.3-12,11.2-12,11.2H607.8z"/>
	<path class="st9" d="M603.5,372.2c0-0.1,0-0.3,0-0.4c0-0.3,0.1-0.7,0.1-1.2c0.1-1.1,0.3-2.7,0.5-4.7c0.4-4.1,1-10,1.5-17.4
		c0.6-8.6,0.8-17.2,0.5-25.9c-0.2-5.1-0.6-10.2-1.4-15.3c-0.8-5.3-2-10.6-3.1-16.1c-1.1-5.4-2.1-10.8-2.6-16.3
		c-0.2-2.6-0.3-5.3-0.3-7.8c0.1-2.5,0.2-5.1,0.5-7.5c0.6-4.9,1.5-9.4,2.4-13.6s1.5-8.3,2.1-11.9c0.8-5.8,0.8-11.7,0-17.3
		c-0.2-1.5-0.6-3.1-1-4.6c-0.1-0.5-0.3-0.9-0.3-1.1c0-0.1-0.1-0.3-0.1-0.4c0.1,0.1,0.1,0.2,0.2,0.4l0.4,1.1c0.5,1.5,0.9,3.1,1.1,4.6
		c0.9,5.8,1,11.7,0.2,17.4c-0.4,3.7-1.1,7.6-2,12c-0.8,4.3-1.8,8.8-2.3,13.6c-0.3,2.4-0.5,5-0.5,7.4s0.1,5.2,0.3,7.7
		c0.6,5.5,1.4,10.8,2.6,16.2c1.1,5.5,2.3,10.9,3.1,16.2c0.7,5.1,1.2,10.2,1.4,15.3c0.3,8.7,0.1,17.3-0.7,25.9
		c-0.6,7.3-1.2,13.3-1.8,17.4c-0.2,2.1-0.4,3.6-0.6,4.7c-0.1,0.5-0.1,0.9-0.2,1.2C603.6,371.9,603.6,372,603.5,372.2z"/>
	<path class="st9" d="M580.4,378.8c1.9,0.1,3.7-0.1,5.5-0.6c4.9-1.5,8.9-4.7,11.6-9.1c1.9-3,3.2-6.2,4-9.5c0.9-3.8,1.7-7.7,2.1-11.8
		c1.1-9.1,1.3-18.3,0.5-27.4c-0.1-1.5-0.4-3.1-1-4.4c-0.3-0.6-0.8-1.2-1.3-1.7c-0.6-0.4-1.3-0.5-2-0.4c-1.3,0.4-2.6,1.3-3.2,2.7
		c-0.7,1.2-1.3,2.6-1.8,4c-1.9,5.2-2.3,10.7-1.3,16.2c0.1,1.2,0.5,2.4,1,3.5c0.3,0.4,0.7,0.7,1.3,0.7c0.5-0.1,1-0.3,1.3-0.8
		c0.3-0.4,0.6-0.9,0.8-1.4c0.2-0.5,0.4-1,0.6-1.5c0.3-1,0.6-2.1,0.7-3.1c0.5-3.6,0-7.3-1.5-10.5h0.3c-1.4,2.2-2.3,4.7-2.3,7.3
		c0,0.7,0,1.3,0.1,2.1c0,0.2,0.1,0.4,0.1,0.7c-0.2-0.9-0.4-1.9-0.4-2.7c-0.1-2.7,0.7-5.3,2.2-7.5l0.1-0.2l0.1,0.2
		c1.7,3.3,2.3,7,1.8,10.7c-0.3,2.3-1,4.4-2.3,6.3c-0.4,0.5-1,0.9-1.7,0.9c-0.7,0-1.3-0.4-1.8-0.9c-0.6-1.1-1-2.4-1.1-3.7
		c-0.9-5.5-0.5-11.2,1.3-16.4c0.5-1.4,1.1-2.8,1.9-4.1c0.4-0.7,0.9-1.2,1.4-1.9c0.6-0.6,1.3-0.9,2.2-1.1c0.8-0.1,1.7,0,2.4,0.5
		c0.7,0.5,1.2,1.1,1.5,1.9c0.7,1.4,1,3.1,1.1,4.6c0.8,9.2,0.7,18.4-0.5,27.5c-0.4,4-1.1,8-2.2,11.8c-0.8,3.4-2.3,6.6-4.1,9.6
		c-2.7,4.3-6.9,7.5-11.9,9.1c-1.3,0.4-2.7,0.5-4.1,0.5c-0.5,0-0.8-0.1-1-0.1C580.7,378.8,580.6,378.8,580.4,378.8z"/>
	<path class="st9" d="M599.5,231.3c-0.2-0.1-0.3-0.2-0.5-0.4l-1.4-1.3h0.1c-1,2.8-0.9,5.9,0.2,8.6c0.2,0.5,0.4,0.9,0.7,1.3
		c0.3,0.4,0.7,0.6,1.2,0.5c0.5-0.2,0.8-0.5,1-1c0.2-0.5,0.4-1,0.5-1.7c0.6-4,0.3-8.2-0.8-12.1c-0.2-0.7-0.4-1.4-0.8-2.1
		c-0.3-0.6-0.8-1.2-1.4-1.7c-0.6-0.4-1.4-0.4-2.1,0c-0.6,0.4-1.1,1-1.4,1.8c-0.3,0.7-0.6,1.5-0.7,2.4c-0.2,0.8-0.3,1.7-0.5,2.5
		c-1.2,6.8-0.5,14.4,0.3,22c0.9,8.7,1.3,17.4,1.2,26.2c-0.1,8.1-0.6,15.3-1.3,21.4c-0.7,6.1-1.4,10.9-2.1,14.2
		c-0.3,1.7-0.6,3-0.7,3.8l-0.2,1c0,0.1,0,0.2-0.1,0.3c0-0.1,0-0.2,0-0.3c0-0.3,0.1-0.6,0.2-1c0.1-0.9,0.4-2.2,0.6-3.8
		c0.5-3.4,1.2-8.3,1.9-14.2c0.6-6,1.1-13.3,1.1-21.3c0.1-8.8-0.3-17.4-1.2-26.1c-0.8-7.6-1.4-15.3-0.2-22.1c0.2-0.8,0.3-1.8,0.5-2.6
		c0.2-0.8,0.4-1.7,0.8-2.5c0.3-0.8,0.9-1.5,1.7-2c0.8-0.5,1.8-0.5,2.6,0c0.7,0.4,1.2,1.1,1.7,1.9c0.3,0.7,0.6,1.4,0.8,2.2
		c0.4,1.4,0.7,2.9,0.8,4.3c0.3,2.7,0.3,5.4-0.1,8c-0.1,0.6-0.2,1.2-0.5,1.8c-0.2,0.6-0.7,1-1.3,1.2c-0.6,0.1-1.2-0.2-1.5-0.6
		s-0.5-0.9-0.7-1.4c-0.6-1.7-0.9-3.4-0.8-5.2c0.1-1.2,0.3-2.5,0.8-3.6v-0.1l0.1,0.1l1.4,1.3C599.1,231,599.3,231.1,599.5,231.3z"/>
	<path class="st4" d="M582.2,146c-1.7,18.1,8.8,34.1,12.9,42c0.6-4.2,0.6-8.5-0.2-12.6c0.3,1.8,1,3.4,2.1,4.9l8.2,12.5
		c-1.3-5.6-2.5-11.2-3.3-16.8c3.9,5.9,9.8,10.1,16.5,12.2c0,0-11.4-6.7-12.7-20.5s1.2-21.6,1.2-21.6"/>
	<path class="st2" d="M606.8,146c0,0.1,0,0.1,0,0.2c0,0.2-0.1,0.3-0.2,0.6c-0.1,0.5-0.3,1.3-0.5,2.5c-0.5,3.1-0.8,6.3-0.8,9.5
		c0,2.1,0.1,4.3,0.3,6.8c0.1,2.7,0.6,5.3,1.4,7.7c2.1,6,6.1,11,11.4,14.6l1.3,0.9l-1.5-0.4c-6.8-2.1-12.6-6.4-16.6-12.3l0.5-0.2
		c0.6,4.3,1.4,8.8,2.5,13.3l0.8,3.5l0.3,1.4l-0.8-1.2l-5.7-8.7l-2.8-4.2c-1-1.3-1.7-2.9-1.9-4.5l0.5-0.1c0.8,4.2,0.9,8.5,0.2,12.7
		l-0.1,0.7l-0.3-0.6c-3-5.3-5.7-10.7-8.2-16.3c-1.9-4.3-3.2-8.9-4-13.5c-0.5-3-0.7-6.1-0.7-9.1c0.1-1,0.1-1.9,0.2-2.4
		c0-0.3,0-0.4,0-0.6s0-0.2,0-0.2c0,0.1,0,0.1,0,0.2c0,0.2,0,0.3,0,0.6c0,0.6,0,1.3-0.1,2.4c0,3,0.3,6.1,0.8,9.1
		c0.9,4.6,2.3,9.1,4.1,13.4c2.5,5.6,5.3,10.9,8.3,16.2l-0.4,0.1c0.6-4.1,0.6-8.4-0.2-12.5l0.5-0.1c0.2,1.5,0.8,3.1,1.9,4.3l2.8,4.2
		l5.7,8.7l-0.5,0.2l-0.8-3.5c-1-4.5-1.9-9.1-2.5-13.4l-0.2-1.1l0.6,0.9c3.9,5.8,9.6,10,16.3,12.1l-0.2,0.4
		c-5.4-3.5-9.4-8.8-11.6-14.9c-0.8-2.6-1.3-5.2-1.4-7.8c-0.2-2.5-0.2-4.7-0.2-6.8c0-3.2,0.3-6.4,0.9-9.5c0.2-1,0.4-2,0.6-2.5
		c0.1-0.3,0.1-0.5,0.2-0.6C606.7,146.1,606.8,146.1,606.8,146z"/>
	<polygon class="st4" points="616.6,365.7 595.5,369 570.7,383.5 619.5,386.3 629.3,373.6 	"/>
	<path class="st2" d="M636.6,381.8c-0.1-0.1-0.3-0.2-0.4-0.3l-1.1-0.8l-4.2-3.3l-14.5-11.5l0.2,0.1l-12,1.9l-9.1,1.4h0.1l-17.8,10.2
		l-5.2,3l-1.4,0.8c-0.1,0.1-0.3,0.2-0.5,0.2c0.1-0.1,0.3-0.2,0.4-0.3l1.3-0.8l5.2-3.1l17.7-10.4l0,0l0,0l9.1-1.4l12-1.9h0.1l0.1,0.1
		l14.4,11.7l4.1,3.4l1,0.9C636.3,381.6,636.4,381.7,636.6,381.8z"/>
	<g class="st7">
		<path class="st10" d="M748.3,366.1c0.1,0.2-2.2,1.1-6.4,2.7c-4.2,1.5-10.3,3.5-17.9,5.8s-16.7,4.7-27.1,7.1
			c-2.7,0.6-5.5,1-8.3,1.1c-3,0.1-6-0.4-8.8-1.7c-2.9-1.3-5.3-3.6-6.8-6.5c-0.8-1.5-1.1-3.2-1.1-4.9c0-0.4,0-0.9,0.1-1.3
			s0.2-0.9,0.3-1.2c0.2-0.7,0.5-1.5,0.8-2.3c0.6-1.3,1.1-2.7,1.5-4c0.2-0.5,0.2-1.1,0.2-1.8c0-0.4-0.2-0.8-0.5-1.1
			c-0.6-0.6-1.8-0.8-3.2-0.8c-1.4,0-2.9-0.1-4.2,0c-5.5,0.1-10.8,0.6-16.3,1.2c-10.3,1.3-19.8,2.7-27.9,2.8c-2.1,0.2-4.1-0.1-6-0.8
			c-0.2-0.1-0.4-0.2-0.7-0.4c-0.1-0.1-0.2-0.1-0.3-0.2l-0.2-0.1c-0.1-0.1-0.1-0.2-0.2-0.2c-0.2-0.3-0.4-0.7-0.3-1.1
			c0-0.3,0.1-0.6,0.2-0.8c0.3-0.8,0.8-1.5,1.3-2.3c1.7-2.2,3.5-4.1,5.6-6c3.3-3.1,5.3-4.5,5.4-4.4c0.1,0.1-1.5,1.9-4.5,5.2
			c-1.9,2-3.5,4-5.1,6.2c-0.4,0.6-0.7,1.2-1,2c0,0.1-0.1,0.3-0.1,0.4c0,0.1,0,0.1,0,0.1s0,0-0.1,0h-0.1l0,0l0,0l0,0l0.1-0.1l0,0
			l0.1,0.1l0.2,0.1c0.2,0.1,0.3,0.2,0.5,0.3c1.7,0.6,3.4,0.7,5.2,0.5c7.8-0.4,17.1-1.9,27.6-3.3c5.5-0.8,10.9-1.2,16.5-1.4
			c1.4-0.1,2.9,0,4.4,0c0.8,0,1.7,0.1,2.4,0.2c0.9,0.2,1.9,0.6,2.6,1.3c0.7,0.7,1.2,1.8,1.3,2.8c0.1,0.9,0,1.9-0.2,2.7
			c-0.4,1.5-1,3-1.7,4.4c-0.3,0.6-0.5,1.3-0.7,2c-0.1,0.3-0.1,0.6-0.2,0.9c-0.1,0.3,0,0.6-0.1,0.9c0,1.2,0.3,2.6,0.9,3.7
			c1.2,2.4,3.2,4.2,5.6,5.4c2.4,1,5,1.5,7.5,1.4c2.6-0.1,5.2-0.4,7.7-1c10.2-2.2,19.4-4.5,27.1-6.5c7.6-2,13.8-3.7,18.1-5
			C745.8,367,748.2,365.9,748.3,366.1z"/>
	</g>
</g>
<g id="fossils">
	<path class="st11" d="M509.7,421.1l-2,1.2c0,0-1.9,6.5-1.8,6.6c0.1,0.1-8.8,6.2-8.1,8.9c0.4,1.3,0.9,4,1.3,6.4
		c0.5,2.5,2.2,4.5,4.5,5.6l5.8,2.3c1.9,0.7,3.9,0.5,5.6-0.6c2.8-2,6.9-5,7.7-6.1c1.2-1.9,2.1-9.6,2.1-9.8c0,0,0-0.1,0-0.2
		c-0.8-5.4-4.4-9.9-9.4-11.9L509.7,421.1z"/>
	<path class="st0" d="M507.5,432.4c-1.8,0.6-3.3,1.5-4.6,2.7c-1.4,1.2-2.3,2.9-2.5,4.6c0,1.1,0.2,2.2,0.6,3.2c1.2,3.3,4,6.2,7.5,6.7
		c1.4,0.1,2.8,0,4.2-0.3c4.2-0.9,8.6-3.4,9.9-7.5c0.4-1.2,0.5-2.6,0.5-3.8c0.1-3.9-1.4-7.7-4.2-10.5c-2.6-2.4-6.1-3.4-9.6-3.7
		L507.5,432.4z"/>
	<path class="st2" d="M510.2,438.5c-0.4,0.1-0.7,0.4-1,0.7c-0.3,0.4-0.4,0.8-0.4,1.3c0.1,0.6,0.4,1.2,0.9,1.5
		c1.4,0.9,3.3,0.6,4.5-0.5c0.7-0.6,1.2-1.5,1.4-2.5c0.2-1,0.1-2.2-0.3-3.1c-0.4-0.9-1.1-1.8-2-2.4c-0.8-0.5-1.8-0.9-2.7-1
		c-0.8-0.2-1.8-0.2-2.7-0.1c-0.7,0.1-1.5,0.3-2.2,0.7c-1,0.5-2,1.1-2.9,1.9l-0.7,0.6c-0.1,0.1-0.2,0.1-0.2,0.2
		c0.3-0.3,0.6-0.6,0.9-0.8c0.8-0.7,1.9-1.3,2.9-1.9c0.7-0.3,1.4-0.6,2.3-0.7c0.9-0.1,1.9-0.1,2.7,0.1c1,0.1,2,0.5,2.8,1
		c0.9,0.6,1.7,1.4,2.1,2.5c0.4,1,0.5,2.2,0.3,3.2c-0.2,1-0.8,1.9-1.5,2.6c-1.2,1.2-3.2,1.5-4.7,0.5c-0.5-0.4-0.9-1-0.9-1.7
		c0-0.5,0.1-1,0.4-1.4c0.2-0.2,0.4-0.4,0.7-0.6C509.9,438.5,510,438.5,510.2,438.5z"/>
	<path class="st2" d="M510.2,449.5c-0.2-1.1-0.2-2.3,0-3.3c0.1-0.9,0.3-1.8,0.5-2.4c0.1-0.3,0.1-0.6,0.3-0.9
		c-0.1,1.1-0.3,2.2-0.5,3.3c-0.1,0.7-0.2,1.5-0.2,2.4C510.2,448.9,510.2,449.2,510.2,449.5z"/>
	<path class="st2" d="M519.4,445.3c-0.6-0.8-1.3-1.5-2.1-2.3c-0.8-0.6-1.7-1.2-2.5-1.8c0.3,0.1,0.6,0.2,0.8,0.4
		c1.2,0.7,2.4,1.7,3.2,2.9C519.1,444.7,519.3,445.1,519.4,445.3z"/>
	<path class="st2" d="M522.7,435c0,0.2-1.5,0.3-3.5,0.7c-0.9,0.2-1.9,0.4-2.5,0.5c-0.3,0.1-0.7,0.2-1,0.2c0.3-0.2,0.7-0.3,1-0.4
		c0.8-0.2,1.7-0.4,2.5-0.6C521.1,435.1,522.7,435,522.7,435z"/>
	<path class="st2" d="M517.2,426.1c-0.3,0.2-0.7,0.4-1,0.7c-0.6,0.7-1.2,1.5-1.7,2.4c-0.5,0.8-0.9,1.8-1.2,2.7
		c-0.1,0.4-0.3,0.8-0.4,1.1c0-0.4,0.1-0.8,0.3-1.2c0.3-0.9,0.7-1.9,1.2-2.7c0.5-0.9,1-1.7,1.8-2.4c0.2-0.2,0.5-0.4,0.7-0.5
		C516.9,426.2,517.1,426.1,517.2,426.1z"/>
	<path class="st2" d="M510.6,439.8c0,0-0.1,0.1-0.3,0.2c-0.2,0.2-0.3,0.5-0.1,0.7c0.2,0.4,0.6,0.6,1,0.6c0.5,0,1-0.3,1.2-0.8
		c0.1-0.5,0-1-0.3-1.4c-0.2-0.3-0.6-0.6-1-0.6c-0.4,0-0.8,0-1.2,0.2c0,0,0.1-0.1,0.3-0.2c0.3-0.1,0.6-0.2,0.9-0.1
		c1,0.1,1.8,1,1.7,2.1c0,0.1,0,0.2,0,0.2c-0.3,0.7-1,1-1.8,0.8c-0.3-0.1-0.6-0.4-0.7-0.7c-0.2-0.3-0.1-0.7,0.2-0.9
		C510.5,439.9,510.5,439.8,510.6,439.8z"/>
	<path class="st2" d="M508.9,440.9c-0.4,0.2-0.7,0.3-1.1,0.4c-0.9,0.3-1.8,0.8-2.6,1.3c-0.8,0.5-1.5,1.2-2.3,2
		c-0.5,0.5-0.8,0.9-0.8,0.9c0-0.1,0.1-0.2,0.2-0.3c0.2-0.2,0.3-0.5,0.5-0.7c0.6-0.7,1.4-1.4,2.3-2c0.8-0.5,1.8-1,2.7-1.3
		c0.3-0.1,0.6-0.2,0.9-0.2C508.7,440.9,508.8,440.9,508.9,440.9z"/>
	<path class="st2" d="M509.6,438.8c-0.4-0.2-0.7-0.5-1-0.8c-0.3-0.3-0.6-0.6-1-0.9c-0.5-0.3-1-0.5-1.5-0.6c-1-0.1-2.1-0.1-3.1,0
		c-0.4,0.1-0.8,0.1-1.3,0.1c0.4-0.1,0.8-0.2,1.3-0.3c1-0.2,2.2-0.2,3.2,0c0.6,0.1,1.1,0.3,1.7,0.6c0.4,0.3,0.7,0.6,1,1
		C509,438.2,509.3,438.5,509.6,438.8z"/>
	<path class="st2" d="M510.7,433c0.2,0.2,0.3,0.4,0.4,0.7c0.3,0.6,0.4,1.2,0.5,2c0,0.7,0,1.3-0.2,2.1c-0.1,0.3-0.2,0.5-0.3,0.7
		c0.3-0.9,0.4-1.9,0.3-2.8C511.3,434.7,511.1,433.8,510.7,433z"/>
	<path class="st2" d="M515.7,439.8c-0.3,0.5-0.9,0.8-1.5,0.8c-0.6,0.1-1.2-0.1-1.7-0.6C513.5,440.6,514.8,440.5,515.7,439.8
		L515.7,439.8z"/>
	<path class="st2" d="M516.3,448.4c-0.3-1-0.7-2.1-1.1-3c-0.5-0.9-1-1.9-1.7-2.8c0.2,0.2,0.4,0.4,0.6,0.7c0.9,1.2,1.7,2.6,2.1,4.1
		C516.2,447.7,516.2,448,516.3,448.4z"/>
	<path class="st2" d="M522.4,441.9c-0.2-0.3-0.4-0.5-0.6-0.8c-0.5-0.7-1.2-1.2-2.1-1.5c-0.8-0.3-1.7-0.5-2.6-0.6
		c-0.3-0.1-0.7-0.1-1-0.3c0.3,0,0.7,0,1,0.1c0.9,0.1,1.8,0.3,2.6,0.5c0.8,0.3,1.5,0.8,2.1,1.7C522,441.1,522.2,441.4,522.4,441.9z"
		/>
	<path class="st2" d="M520.6,429.5c-1.2,0.6-2.4,1.3-3.4,2.2c-0.7,0.6-1.3,1.3-1.9,2.2c-0.4,0.6-0.5,1-0.6,1c0-0.1,0-0.2,0.1-0.3
		c0.1-0.3,0.2-0.5,0.4-0.8c0.5-0.8,1.1-1.7,1.9-2.2c0.7-0.6,1.5-1.1,2.5-1.5C519.8,429.7,520.2,429.6,520.6,429.5z"/>
	<path class="st2" d="M509.3,423.5c0.1,0.1,0.1,0.2,0.1,0.4c0.1,0.3,0.2,0.7,0.2,1c0.1,1.1,0.1,2.4,0,3.5c-0.1,1.2-0.5,2.4-1.2,3.3
		c-0.2,0.3-0.5,0.5-0.8,0.7c-0.1,0.1-0.2,0.1-0.4,0.1c0.4-0.2,0.8-0.5,1-0.9c0.6-0.9,1-2.1,1.1-3.2c0.1-1.1,0.2-2.4,0.1-3.5
		C509.4,424,509.2,423.5,509.3,423.5z"/>
	<g class="st12">
		<path d="M508.9,441.2c-0.2,0.6-0.1,1.2,0.3,1.7s1,0.7,1.5,0.7c2.1,0.1,4.1-0.9,5.2-2.7c0.9-1.2,1.2-2.8,1.1-4.3
			c-0.3-1.9-1.5-3.4-3.2-4.1c-1.8-0.7-3.6-0.7-5.4-0.1c1.7,0,3.3,0.3,4.7,1.1c0.3,0.2,0.7,0.5,0.9,0.8c0.8,0.7,1.4,1.7,1.7,2.7
			c0.1,0.9,0,2-0.3,2.8c-0.2,0.5-0.4,0.9-0.7,1.3c-1.1,1.2-2.9,1.7-4.5,1.1C509.7,442.2,509.1,441.7,508.9,441.2"/>
	</g>
	<g class="st7">
		<path d="M676.8,434.9c0,0.1,0.1,0.1,0.2,0.2l0,0L676.8,434.9z"/>
	</g>
	<g class="st7">
		<path d="M704.4,468.7c-1.7-4-3.8-7.7-6.5-11c-6.4-8-15.6-13.7-20.9-22.4c-1.3-1.5-3-2.7-4.7-3.4c-5.7-2.3-11.7-2-17.8-1.5
			c-1,0-2.2,0.3-3.1,0.7c-1.1,0.7-2.1,1.9-2.6,3.1c-2.9,6.3-0.2,13.8-2.2,20.5c-0.4,1-0.6,2.1-0.6,3.1c0.3,1.3,0.9,2.6,2,3.5
			c5.6,6.5,11.3,13,18.2,18.1c6.9,5.1,15.3,8.6,23.9,8.2c3.8-0.1,7.5-1.3,10.7-3.5c3.2-2.3,5.2-5.9,5.2-9.8
			C705.6,472.2,705.2,470.3,704.4,468.7z"/>
	</g>
	<g class="st7">
		<path d="M677.2,435.4l1.5,2.2c-0.5-0.9-1.1-1.8-1.8-2.5l1.3,2L677.2,435.4z"/>
	</g>
	<path class="st0" d="M677,441l-5.2-6.5l-9.1-2.3l-10,2.7l-0.6,13.3l4.1,5.2c0,0,13.4,16.9,12.1,18.4c-1.3,1.4-15.4-18.5-15.4-18.5
		l-3,1.9l11.9,14.9c0,0,10,8.9,12.7,10c3.5,1.4,7.2,3.5,11.2,2.8c11.4-2-10.1-11-14.1-12.8s-11-13-12.2-15c-1.1-2,0-5,2.5-4.3
		c2.5,0.6,6.4,8.7,7.8,12.5s8.1,6.7,14,9.7c6,3,18.8,3.6,18.8,3.6s2-4.1-2.4-9.7c-4.3-5.6-14.5-17.6-14.5-17.6 M679.1,451.7
		c-0.1,0.8-0.2,1.5-0.3,2.4c0,0.5-0.2,1.1-0.4,1.5c-0.4,0.7-1.1,1.2-1.9,1.7c-0.7,0.6-1.8,0.9-2.8,0.8c-0.5-0.1-0.9-0.3-1.3-0.6
		c-0.8-0.5-1.5-1.2-2.1-2.1c-0.5-1-0.7-2.2-0.6-3.3c0-1-0.1-2.1-0.1-3.1c-0.1-0.6,0-1.2,0.3-1.8c0.2-0.2,0.4-0.4,0.6-0.5l0,0
		c2.1-1.1,4.5-0.1,6.3,0.9c1,0.5,1.8,1.3,2.2,2.4C679.2,450.7,679.2,451.1,679.1,451.7z M699,472.1c-1.4,0.2-5.7-0.3-7.2-1.4
		c-1.4-0.8-2.3-2.6-1.8-4.2c0.1-0.8,0.5-1.7,1.1-2.3c0.2,0,1.3-1.5,4.2,1C698.3,467.8,700.4,471.9,699,472.1L699,472.1z"/>
	<path class="st0" d="M690.3,474.1c0,0-1.2,6.8,0,5.7s2.6-6.2,2.6-6.2l-3,0.3"/>
	<path class="st0" d="M694.7,474.6c0,0-1.2,6.8,0,5.6c1.2-1.2,2.6-6.2,2.6-6.2l-3,0.3"/>
	<path class="st0" d="M698.4,475.5c0,0-2.4,8.5-0.8,6.8c1.5-1.7,3.3-7.2,3.3-7.2L698.4,475.5z"/>
	<path class="st2" d="M678.7,459c-0.2,0.2-0.4,0.3-0.6,0.5c-0.6,0.4-1.2,0.7-2,0.9c-1,0.3-2.2,0.4-3.2,0.1c-1.3-0.3-2.4-1.1-3.1-2.3
		c-0.3-0.6-0.5-1.2-0.6-2c-0.1-0.6-0.2-1.2-0.3-1.9c-0.2-1.2-0.2-2.3-0.3-3.2c-0.1-0.9-0.1-1.7,0-2.2c0-0.2,0-0.4,0-0.6s0-0.2,0-0.2
		s0,0.3,0,0.8c0,0.5,0,1.2,0.1,2.2s0.2,2,0.3,3.2c0.1,1.3,0.4,2.6,0.9,3.7c0.6,1.1,1.8,2,3,2.3c1,0.2,2.1,0.2,3.1-0.1
		C677,460,677.8,459.5,678.7,459z"/>
	<path class="st2" d="M693.2,463.8l-0.2-0.1l-0.4-0.4l-1.5-1.4l-2.3-2.2l-1.3-1.2c-0.2-0.2-0.5-0.4-0.7-0.6
		c-0.3-0.1-0.6-0.1-0.9-0.1c-0.3,0-0.6,0.1-1,0.2c-0.3,0.1-0.7,0.1-1,0c-0.6-0.1-1.2-0.4-1.8-0.7c-0.9-0.6-1.7-1.3-2.2-2.3
		c-0.4-0.6-0.6-1.2-0.7-2c0-0.3,0-0.5,0-0.8c0.1,0.9,0.4,1.9,0.9,2.7c0.5,0.8,1.3,1.7,2.2,2.2c0.5,0.3,1,0.6,1.7,0.7
		c0.3,0.1,0.6,0.1,0.9,0c0.3-0.1,0.6-0.1,1-0.2c0.3-0.1,0.7,0,1,0.1c0.3,0.2,0.6,0.4,0.8,0.6l1.3,1.2l2.3,2.2l1.5,1.4l0.4,0.4
		C693.2,463.8,693.3,463.8,693.2,463.8z"/>
</g>
<g id="Heron">
	<path class="st2" d="M197,341.3c0,0,18.7,0.3,26.8,4.3l-3.5,0.3l0.4,0.9l-22.1,1.8L197,341.3z"/>
	<path class="st6" d="M181,361.3c-2.6,0.5-5.9-1.5-6.1-3.8c-0.6-7,9.6-6.8,9.6-6.8l14.1-2.1l-1.7-7.3c0,0-8.6-6.4-18-5.5
		c-4.5,0.4-8.8,2.4-12,5.5c-5,2.5-10.5,5.9-13.9,9.9c-1.1,1.1-1.9,2.6-2.1,4.1c4-1.8,7.7-4.3,10.9-7.4c-2.7,2.7-5.2,5.7-7.3,8.8
		c-0.9,1.1-1.5,2.5-1.9,3.8c-0.1,0.7-0.1,1.4-0.1,2.2c0,0.1,0,0.3,0.1,0.4c0.2,0.2,0.6,0,0.8-0.3l6.6-7c-1.4,3.4-1.9,7.2-2.3,10.9
		c-0.1,0.7-0.1,1.4,0.1,2.1c0.1,0.2,0.2,0.3,0.3,0.3s0.3-0.1,0.4-0.3c0.9-1.7,1.5-3.4,2.1-5.3c0.4-1.1,0.8-2.2,1.3-3.2
		c1.8,8.5,5.6,10.7,10.7,11.6c2.4,0.4,4.7,0.4,7.1,0c4.1-0.8,4.2,2.7,4.1,4.5l-1.9,10.3c0,0-6-5.4-18.2-3.8
		c-12.2,1.5-59.7,77.4-59.7,77.4s4.9,6.1,18.3-2.8c7.8-5.1,14.6-11.8,19.6-19.7c0,0,15.5,2.4,21.6-2.8c6.1-5.2,26.6-26.8,28.9-37.5
		c0,0,3.9-16.1,2.2-25.8C192.8,360.2,181,361.3,181,361.3z"/>
	<path class="st2" d="M172.9,394.6c0,0.2-0.1,0.5-0.2,0.7c-0.2,0.5-0.4,1.1-0.7,2.1c-0.6,1.8-1.7,4.2-3,7.3
		c-1.5,3.7-3.5,7.1-5.8,10.4c-1.3,2-2.9,3.8-4.5,5.5c-0.9,0.9-1.9,1.8-2.9,2.6c-0.5,0.4-1,0.8-1.7,1.1c-0.3,0.2-0.6,0.3-1,0.3
		c-0.2,0-0.4,0-0.6-0.1c-0.2-0.1-0.4-0.3-0.4-0.5l0.4,0.1c-1.4,1.8-3,3.7-4.4,5.7c-3.6,5.1-6.8,9.9-10.2,14.1
		c-2.9,3.8-6.1,7.3-9.7,10.4c-2.5,2.1-5.2,3.8-8.1,5.3c-0.8,0.4-1.5,0.7-2.4,1c-0.3,0.1-0.5,0.2-0.8,0.3c0.3-0.1,0.5-0.3,0.8-0.4
		c0.5-0.2,1.3-0.6,2.4-1.1c2.8-1.4,5.5-3.3,8-5.4c3.5-3.1,6.7-6.6,9.6-10.4c3.3-4.2,6.5-9.2,10.1-14.1c1.4-2.1,3-3.9,4.4-5.8
		l0.4-0.5v0.6c0,0.4,0.8,0.3,1.3,0c0.5-0.3,1-0.7,1.5-1.1c1-0.8,2-1.7,2.8-2.5c1.7-1.7,3.2-3.5,4.5-5.5c2.3-3.3,4.2-6.7,5.8-10.3
		c1.3-3.1,2.4-5.6,3.1-7.2c0.3-0.8,0.6-1.4,0.8-2C172.7,395.1,172.8,394.8,172.9,394.6z"/>
	<polygon class="st2" points="137.8,460.1 139.7,519.7 141.8,519.3 140.5,460.7 150.8,438.5 148.1,438.3 	"/>
	<circle class="st2" cx="139.7" cy="460" r="3"/>
	<polygon class="st2" points="143.6,460.1 145.6,519.7 147.6,519.3 146.4,460.7 156.8,437.9 154.2,438.3 	"/>
	<circle class="st2" cx="145.5" cy="460" r="3"/>
	<path class="st4" d="M220.7,345.9c-3.4,0.3-6.8,0.3-10.2,0.2c-3.4,0.1-6.8,0-10.2-0.3c3.4-0.3,6.8-0.3,10.2-0.2
		C214,345.5,217.4,345.6,220.7,345.9z"/>
	<path d="M152.2,423.9c2-3.6,5.3-10.6,7.1-14.4"/>
	<path class="st2" d="M127.1,437.4c0,0,0.7-0.3,2-0.8c1.9-0.8,3.5-1.9,5.2-3c4-2.9,9.1-7.7,14.5-13.2c5.4-5.5,10.2-10.5,13.3-14.5
		c1.2-1.5,2.4-3.1,3.5-4.9c0.7-1.1,1.1-1.9,1.1-1.9c0,0.2-0.1,0.3-0.2,0.5c-0.1,0.3-0.4,0.8-0.7,1.4c-1,1.8-2.2,3.4-3.4,5
		c-3.1,4-8,9-13.2,14.6s-10.4,10.3-14.7,13.1c-1.7,1.1-3.4,2.1-5.3,2.9c-0.5,0.2-1,0.4-1.5,0.5C127.5,437.4,127.3,437.4,127.1,437.4
		z"/>
	<path class="st2" d="M127.3,438c-0.1,0.4-0.3,0.7-0.5,1c-0.4,0.7-1,1.7-1.8,2.8c-2,3-4.2,6-6.5,8.8c-2.4,2.8-4.9,5.5-7.5,8
		c-1,0.9-1.9,1.7-2.5,2.2c-0.3,0.3-0.6,0.5-0.9,0.7c0.2-0.3,0.5-0.6,0.8-0.9l2.4-2.4c2-2,4.6-4.7,7.3-8.1s5.1-6.3,6.6-8.7l1.9-2.7
		C126.8,438.5,127,438.2,127.3,438z"/>
	<path class="st2" d="M140.6,429.3c-0.1,0.4-0.2,0.8-0.3,1.2c-0.4,1.1-0.8,2.3-1.3,3.3c-1.7,3.6-3.5,7-5.7,10.3
		c-2.2,3.3-4.4,6.4-7,9.4c-0.9,1.1-1.9,2.1-2.4,2.6c-0.3,0.3-0.6,0.6-0.9,0.9c0.2-0.4,0.5-0.7,0.8-1c0.5-0.6,1.3-1.5,2.3-2.7
		c1.9-2.4,4.3-5.7,6.8-9.5c2.2-3.3,4-6.6,5.8-10.1c0.6-1.3,1.1-2.5,1.4-3.2C140.2,430.1,140.4,429.7,140.6,429.3z"/>
	<path class="st2" d="M178.7,394.9c-0.1,0.1-0.6-0.3-1.7-0.6c-1.3-0.3-2.8-0.2-4.1,0.3c-1.3,0.5-2.5,1.2-3.6,2.2
		c-0.4,0.4-0.9,0.8-1.4,1.1c0.3-0.5,0.7-1,1.1-1.3c1-1,2.3-1.9,3.7-2.4c1.4-0.5,3-0.6,4.3-0.1C177.8,394,178.3,394.4,178.7,394.9z"
		/>
	<path class="st2" d="M192.4,373.5c0.3,0.5,0.3,1.2,0.2,1.8c-0.1,0.3-0.2,0.6-0.4,0.9c-0.1,0.1-0.3,0.3-0.4,0.4
		c-0.2,0.1-0.5,0.1-0.7,0c-0.2-0.1-0.3-0.3-0.4-0.5c-0.1-0.2-0.2-0.4-0.2-0.5c-0.1-0.4-0.2-0.8-0.3-1.2h0.5
		c-0.1,0.2-0.1,0.4-0.1,0.6c0,0.5-0.1,0.9-0.2,1.4c-0.2,0.5-0.5,0.8-1,1c-0.5,0.2-1,0-1.2-0.5c-0.2-0.3-0.3-0.6-0.4-1
		c-0.2-0.6-0.2-1.3,0.1-2c0.1,0.6,0.2,1.2,0.3,2c0.2,0.5,0.5,1.3,1.1,1.1c0.3-0.1,0.5-0.4,0.7-0.7c0.1-0.4,0.2-0.8,0.2-1.2
		c0-0.2,0.1-0.5,0.1-0.7l0.4-1.3l0.1,1.4c0,0.4,0.1,0.8,0.3,1.1c0.1,0.2,0.1,0.3,0.2,0.5c0,0.1,0.1,0.3,0.2,0.4
		c0.1,0.1,0.4-0.1,0.6-0.3c0.2-0.2,0.3-0.4,0.4-0.7C192.2,374.5,192.4,374,192.4,373.5z"/>
	<path class="st2" d="M191.9,378.6c0,0-0.1,0.3-0.5,0.5c-0.2,0.2-0.5,0.2-0.8,0.2c-0.4,0-0.7-0.3-0.9-0.6c-0.4-0.8-0.4-1.7-0.2-2.6
		c0.2,0,0.2,1.1,0.7,2.3c0.2,0.5,0.8,0.5,1.1,0.3S191.9,378.6,191.9,378.6z"/>
	<path class="st2" d="M171.5,352.7c0,0-0.1,0.1-0.3,0.4c-0.2,0.4-0.4,0.7-0.7,1c-0.2,0.2-0.6,0.3-0.9,0.3c-0.4-0.1-0.7-0.5-0.7-0.9
		c0-0.8,0.1-1.5,0.3-2.4l0.5,0.2c-0.1,0.2-0.2,0.5-0.4,0.7c-0.2,0.4-0.5,0.7-0.8,1.1c-0.3,0.4-0.7,0.6-1.2,0.7
		c-0.3,0-0.5-0.2-0.6-0.5c-0.1-0.2-0.1-0.4-0.1-0.6c0-0.3,0.1-0.7,0.2-1c0.2-0.6,0.5-1.2,1-1.7c0.1,0-0.4,0.6-0.7,1.8
		c-0.1,0.3-0.1,0.6-0.1,0.9c0,0.3,0.1,0.6,0.3,0.6c0.3-0.1,0.6-0.3,0.8-0.5c0.3-0.3,0.5-0.6,0.8-1c0.1-0.2,0.2-0.4,0.4-0.6l0.5,0.2
		c-0.2,0.7-0.3,1.4-0.3,2.2c0,0.3,0.1,0.5,0.3,0.5s0.4,0,0.6-0.2c0.3-0.3,0.5-0.5,0.8-0.8C171.3,352.7,171.5,352.7,171.5,352.7z"/>
	<path class="st2" d="M172.7,345.9c0,0.1-0.1,0.3-0.5,0.5c-0.5,0.3-1.2,0.3-1.8,0c-0.3-0.2-0.4-0.5-0.4-0.9c0-0.2,0-0.5,0.1-0.7
		c0.1-0.4,0.3-0.6,0.4-0.6s0,0.3,0,0.6c0,0.3-0.1,0.9,0.3,1.1c0.4,0.2,0.8,0.2,1.2,0.1C172.4,345.9,172.7,345.8,172.7,345.9z"/>
	<g class="st12">
		<path d="M142.1,437.9c0,0,0.3,0.7,4.9-3.1c4.5-3.8,5.9-7,5.9-7c4.3-1.2,8.1-3.8,10.6-7.4c4.3-6.1,11.2-26.5,11.2-26.5l-1.7,0.7
			c0,0-7.1,24-21.5,30.6L142.1,437.9z"/>
	</g>
	<path class="st2" d="M188,407.4c-0.1,0.2-0.2,0.4-0.3,0.5c-0.3,0.5-0.6,1-0.9,1.4c-0.8,1.2-2.2,3-3.8,5.1c-3.4,4.2-8.2,9.9-13.6,16
		c-1.3,1.4-2.8,2.8-4.3,4.1c-1.4,1.2-3.1,2.2-5,2.7c-1.8,0.5-3.4,0.8-5,1.1c-1.4,0.3-2.9,0.4-4.4,0.5c-2.2,0.1-4.2,0-6.4-0.4
		c-0.7-0.1-1.3-0.3-1.7-0.4c-0.2,0-0.4-0.1-0.6-0.2c0.2,0,0.4,0,0.6,0.1c0.4,0.1,0.9,0.2,1.7,0.3c2.1,0.3,4.2,0.3,6.3,0.2
		c1.4-0.1,2.9-0.3,4.3-0.5c1.5-0.3,3.2-0.7,4.9-1.1c3.4-0.9,6.2-3.8,9.1-6.7c5.5-6.1,10.3-11.7,13.7-15.8c1.8-2.1,3.1-3.8,3.9-5
		S188,407.4,188,407.4z"/>
	<g class="st12">
		<path d="M197.2,341.9c-0.2-0.1-13-1.2-13-1.2l0.9,7l13.5,0.4L197.2,341.9z"/>
	</g>
	<path class="st10" d="M187.7,344.2c0,2-1.5,3.5-3.5,3.5c-2,0-3.5-1.5-3.5-3.5s1.5-3.5,3.5-3.5l0,0
		C186.2,340.7,187.7,342.2,187.7,344.2z"/>
	<path class="st2" d="M186.1,344.2c0,1-0.8,2-2,1.9c-1.1-0.1-2-0.8-1.9-2c0-1,0.8-2,2-2C185.2,342.2,186.1,343.1,186.1,344.2z"/>
</g>
<g id="Duck">
	<path class="st6" d="M315.7,458.7c-1,0.1-2.2-0.1-3.2-0.4c-0.7-0.3-1.3-0.8-2-1.3c-0.7-0.5-2.6-0.5-3.1-1.2c-0.6-0.8-1-1.9-1.1-2.9
		l-1.5,1c2,5.9,7.1,10,13.3,10.6c-0.6-0.9-0.4-2.1,0.4-2.7c0.3-0.2,0.7-0.4,1.2-0.4c-0.3-0.8,0-1.8,0.7-2.2c0.7-0.5,1.4-0.8,2.3-0.9
		C320.5,458.6,318.1,458.7,315.7,458.7z"/>
	<g class="st12">
		<path d="M315.7,458.7c-1,0.1-2.2-0.1-3.2-0.4c-0.7-0.3-1.3-0.8-2-1.3c-0.7-0.5-2.6-0.5-3.1-1.2c-0.6-0.8-1-1.9-1.1-2.9l-1.5,1
			c2,5.9,7.1,10,13.3,10.6c-0.6-0.9-0.4-2.1,0.4-2.7c0.3-0.2,0.7-0.4,1.2-0.4c-0.3-0.8,0-1.8,0.7-2.2c0.7-0.5,1.4-0.8,2.3-0.9
			C320.5,458.6,318.1,458.7,315.7,458.7z"/>
	</g>
	<path class="st6" d="M312,461.7c-1.1-0.1-2.2-0.4-3.1-0.9c-0.6-0.4-1.2-1-1.8-1.7c-0.6-0.6-2.5-0.9-2.9-1.8c-0.5-0.9-0.7-2-0.6-3
		l-1.7,0.7c0.9,6.1,5.5,11,11.5,12.6c-0.5-0.9-0.1-2.2,0.8-2.7c0.4-0.2,0.8-0.3,1.3-0.2c-0.1-0.8,0.3-1.7,1-2.1
		c0.7-0.3,1.5-0.5,2.5-0.5C316.7,462.2,314.4,462,312,461.7z"/>
	<path class="st4" d="M269.3,425.9c0,0,0.2-7,5.6-8.1c0,0,8.2-3,11.7,3.4c3.5,6.4-1.4,12.8-1.4,12.8l-1.1,4.3l-12.4,3.5l5.7-10.4
		c0,0-3.5,0-4.9-0.7S269.3,425.9,269.3,425.9z"/>
	<path class="st6" d="M270.9,424.1c0,0,1,0.3,0.9,1.9c-0.1,1.5-0.8,2.7,0.2,3.2c1,0.5,2.4,1.3,2.4,1.3s-5.1,1-7.6,1.3
		c-2.6,0.3-6.3,0-6.8-0.4s-1-0.5-0.7-1.2c0.3-0.7,0.7-1,3.4-0.9s6.6-3.9,6.9-5.2C269.7,423.6,270.9,424.1,270.9,424.1z"/>
	<path class="st2" d="M277.2,423c0.4-0.3,0.9-0.1,1.2,0.3v0.1c0.2,0.5,0.2,1,0,1.4c0,0.3-0.2,0.6-0.4,0.9c-0.2,0.3-0.5,0.4-0.8,0.3
		c-0.4-0.1-0.6-0.7-0.7-1.1c-0.1-0.4-0.1-0.7,0-1.1c0.1-0.4,0.5-0.9,0.9-0.9"/>
	<path class="st6" d="M337.1,441.3c-6.5,7.6-14.9,12.7-25.2,13.2c-10,0.4-19.3,2-29.3,0.6c-3.6-0.4-6.9-2-9.5-4.4
		c-2.5-2.6-3.4-6.9-1-9.6c0,0,9.6-6.6,16.6-8.6c11.9-3.3,37.7-2,40.4-0.2l-1.3,1.3l12.2,4.2L337.1,441.3z"/>
	<path class="st2" d="M285.4,440l0.2-0.1l0.6-0.4c0.5-0.4,1.3-0.9,2.4-1.5c1.2-0.7,2.6-1.4,4-2c0.8-0.4,1.8-0.6,2.6-0.9
		c1-0.3,2.1-0.4,3.1-0.5c5.2-0.2,10.3-0.1,15.5,0.2c2.9,0.2,6,0.4,9.2,0.8c1.7,0.2,3.2,0.7,4.7,1.4s2.9,2,3.8,3.3l0.2,0.3h-0.3
		l-4.5,0.2v-0.4h0.2l4.1,0.8l0.3,0.1l-0.2,0.2c-2.2,2.6-4.7,4.9-7.6,6.5c-2.7,1.5-5.6,2.9-8.6,3.7c-2.7,0.8-5.5,1.3-8.2,1.7
		c-2.4,0.3-4.9,0.5-7.2,0.5c-2,0-4-0.2-6-0.6c-1.4-0.3-2.9-0.8-4.2-1.5c-0.8-0.4-1.7-0.9-2.4-1.5c-0.3-0.2-0.5-0.4-0.7-0.6
		c0,0,0.3,0.2,0.8,0.6c0.7,0.5,1.5,1,2.4,1.4c1.3,0.6,2.8,1.1,4.2,1.4c2,0.4,3.9,0.6,5.9,0.6c2.4,0,4.9-0.2,7.2-0.5
		c2.8-0.3,5.5-0.9,8.2-1.8c3-0.9,5.8-2.2,8.5-3.7c2.9-1.8,5.4-3.9,7.5-6.5l0.1,0.3l-4.1-0.8h-0.2l-1.5-0.3l1.5-0.1l4.5-0.2l-0.3,0.4
		c-0.9-1.3-2.2-2.5-3.7-3.2c-1.4-0.7-3-1.2-4.5-1.4c-3.2-0.4-6.2-0.6-9.2-0.8c-5.8-0.3-11-0.5-15.4-0.3c-1,0-2.1,0.2-3.1,0.4
		c-0.9,0.2-1.8,0.5-2.6,0.8c-1.3,0.5-2.7,1.2-4,2c-1,0.6-1.9,1.1-2.4,1.4l-0.6,0.4L285.4,440z"/>
	<path class="st2" d="M299.6,444.7c1.7,0.6,3.4,1.2,5.2,1.7c1.8,0.3,3.5,0.5,5.4,0.5c-0.5,0.1-1,0.2-1.5,0.2c-1.2,0-2.6-0.1-3.8-0.4
		c-1.2-0.3-2.5-0.6-3.6-1.2C300.6,445.4,300.1,445.1,299.6,444.7z"/>
	<path class="st2" d="M294.7,445.3c0.5,0.2,1,0.5,1.4,0.8c1.2,0.6,2.5,1,3.8,1.3c1.3,0.2,2.7,0.3,4,0.1c0.5-0.1,1.1-0.2,1.7-0.2
		c-0.5,0.2-1,0.4-1.7,0.5c-1.3,0.2-2.8,0.2-4.1,0c-1.3-0.2-2.7-0.7-3.9-1.4C295.6,446,295.1,445.7,294.7,445.3z"/>
	<path class="st2" d="M291.5,445.9c1.2,0.8,2.7,1.3,4.1,1.9c1.4,0.3,3,0.4,4.4,0.3c-0.4,0.2-0.8,0.3-1.3,0.3
		c-2.2,0.2-4.3-0.3-6.2-1.5C292.2,446.5,291.8,446.2,291.5,445.9z"/>
	<g class="st7">
		<path d="M330.8,441.9c-0.6,2.3-2.1,4.1-3.9,5.6c-1.8,1.4-3.6,2.8-5.8,3.7c-4.9,1.9-9.9,3-15.1,3.2c-5.3,0.3-11.2,1.1-16.1-0.7
			c-2.8-1.1-4.2-3.5-5.7-6.2c0,0,4.6,8.8,22.9,6.1C325.4,450.8,330.8,441.9,330.8,441.9z"/>
	</g>
	<g class="st7">
		<path d="M313.7,447c-1.4-0.4-3-0.9-4.4-1.3c0.3,0.1,0.6,0.2,0.8,0.4c0.2,0.2,0.3,0.4,0.1,0.7c0,0,0,0,0,0.1
			c-0.2,0.2-0.4,0.1-0.6,0.1c-1.4,0.1-2.9,0-4.3-0.2c0.2-0.1,0.4,0.2,0.3,0.4c-0.1,0.2-0.3,0.3-0.5,0.3c-1.9,0.5-3.8,0.5-5.7,0
			l0.3,0.4c-2.3,0.7-4.6-0.4-7-1.1c0.5,1,1.2,2,2.3,2.6c1,0.4,2.1,0.7,3.1,0.9c0.9,0.2,1.9,0.1,2.6-0.2c0.3-0.2,0.5-0.4,0.9-0.5
			c0.5,0,1.1,0.1,1.5,0.4c1.3,0.6,3,0.4,4.2-0.4c0.2-0.2,0.5-0.4,0.8-0.5c0.5-0.1,1.1-0.1,1.7,0.1c0.9,0.3,1.9,0.4,2.8,0.2
			c0.9-0.2,1.4-1.2,1.2-2.1C313.7,447.1,313.7,447,313.7,447"/>
	</g>
	<path class="st10" d="M293.2,433.7c0.4-0.1,0.8-0.2,1.2-0.3c0.8-0.1,2-0.3,3.3-0.5c3.6-0.5,7.3-0.7,11-0.8c3.7,0,7.4,0.2,11,0.7
		c1.4,0.2,2.6,0.4,3.3,0.5c0.4,0.1,0.8,0.1,1.2,0.3c-0.4,0-0.8,0-1.2-0.1c-0.8-0.1-2-0.3-3.3-0.4c-7.3-0.8-14.8-0.8-22,0
		c-1.4,0.2-2.6,0.3-3.3,0.4C294.1,433.6,293.6,433.7,293.2,433.7z"/>
	<path class="st10" d="M301.9,451.9c0.3,0,0.7-0.1,1-0.1c0.6,0,1.7-0.1,2.8-0.2c1.1-0.1,2.6-0.3,4.1-0.5c1.7-0.3,3.3-0.7,5-1.2
		c1.7-0.5,3.2-1.1,4.7-1.9c1.2-0.6,2.5-1.2,3.7-2c1-0.6,1.9-1.1,2.4-1.4c0.3-0.2,0.6-0.4,0.9-0.5c-0.2,0.2-0.5,0.4-0.8,0.6
		c-0.7,0.6-1.5,1.1-2.4,1.5c-1.2,0.7-2.4,1.4-3.7,2.1c-1.5,0.7-3.1,1.3-4.7,1.9c-1.7,0.5-3.3,0.9-5,1.2c-1.3,0.2-2.8,0.4-4.1,0.5
		c-1.2,0.1-2.2,0.1-2.8,0C302.6,452,302.2,452,301.9,451.9z"/>
	<path class="st10" d="M297.3,451.7c0-0.1,0.5,0,1.1,0s1,0.1,1.1,0.2c0.1,0.1-0.5,0.2-1.1,0.1C297.8,451.9,297.2,451.8,297.3,451.7z
		"/>
	<path class="st10" d="M306.8,446.1c0-0.1,0.3-0.1,0.6-0.1s0.5,0.1,0.5,0.2c0,0.1-0.3,0.1-0.6,0.1
		C307,446.3,306.8,446.2,306.8,446.1z"/>
	<path class="st10" d="M300.7,446.5c0-0.1,0.3-0.1,0.7,0c0.4,0.1,0.6,0.3,0.6,0.4c0,0.1-0.3,0.1-0.7,0
		C300.9,446.8,300.7,446.5,300.7,446.5z"/>
	<path class="st10" d="M295.8,447.2c0-0.1,0.3-0.1,0.5,0c0.2,0.1,0.4,0.3,0.4,0.4c0,0.1-0.3,0.1-0.5,0
		C296,447.5,295.7,447.3,295.8,447.2z"/>
	<path class="st4" d="M277.1,431.4l2.4,5c-3.5,2.6-4,5.2-4.3,8.2c-0.2,3,0.3,6,1.7,8.8c-3-1.3-6.1-4.4-6.6-7.6
		C269.5,440.8,275.3,434.2,277.1,431.4z"/>
	<path class="st2" d="M259.3,430.9c0.6,0.2,1.1,0.3,1.8,0.4c1.4,0.1,3,0,4.4-0.4c1.4-0.3,2.9-0.7,4.2-1.3c0.5-0.3,1.1-0.5,1.8-0.6
		c-0.5,0.4-1,0.6-1.7,0.9c-1.3,0.6-2.8,1.1-4.3,1.4c-1.4,0.4-3,0.5-4.5,0.3c-0.4-0.1-0.9-0.2-1.3-0.4
		C259.4,431,259.3,430.9,259.3,430.9z"/>
	<path class="st2" d="M274.7,447.4c-0.2-0.5-0.3-1.1-0.3-1.8c0-1.4,0.2-2.9,0.7-4.2c0.5-1.3,1.3-2.6,2.3-3.6
		c0.4-0.4,0.8-0.8,1.3-1.1c0,0-0.5,0.5-1.2,1.2c-0.9,1-1.7,2.3-2.2,3.5c-0.5,1.3-0.8,2.7-0.8,4C274.7,446.7,274.8,447.3,274.7,447.4
		z"/>
	<path class="st2" d="M282.8,431.6c-0.1-0.1,0.4-0.6,0.8-1.3c0.4-0.7,0.8-1.3,0.9-1.2c0,0.5-0.2,1-0.6,1.4
		C283.4,431.2,282.9,431.6,282.8,431.6z"/>
	<path class="st2" d="M281.8,432.1c-0.1,0,0.2-0.5,0.6-1.1s0.8-0.9,0.9-0.8c0.1,0.1-0.2,0.5-0.6,1.1S281.9,432.1,281.8,432.1z"/>
	<path class="st2" d="M280.3,432.8c-0.1-0.1,0.3-0.5,0.8-1c0.5-0.5,0.8-1,0.8-1s-0.1,0.6-0.6,1.2S280.3,432.8,280.3,432.8z"/>
	<path class="st10" d="M280.5,418.8c0.4-0.1,0.8-0.1,1.1,0.1c0.9,0.2,1.8,0.7,2.5,1.3c0.7,0.6,1.2,1.4,1.5,2.4
		c0.1,0.4,0.2,0.7,0.2,1.1c-0.2-0.3-0.3-0.7-0.4-1c-0.3-0.8-0.9-1.5-1.5-2.2c-0.6-0.6-1.4-1-2.3-1.3
		C281.3,419.1,280.8,418.9,280.5,418.8z"/>
	<path class="st10" d="M269,427.7c-0.1-0.1,0.2-0.4,0.5-0.7c0.3-0.3,0.7-0.5,0.8-0.4c0.1,0.1-0.2,0.4-0.5,0.7
		C269.5,427.6,269.1,427.7,269,427.7z"/>
	<path class="st2" d="M342.6,474.2c0,0,0.2,0.2,0.6,0.5c0.6,0.4,1.3,0.7,2.2,0.8c1.2,0.2,2.5,0,3.5-0.6c1.3-0.9,2.3-2.3,2.5-3.9
		c0.2-2-0.5-3.9-2-5.2c-0.8-0.7-1.8-1.2-2.8-1.5c-1.1-0.3-2.3-0.4-3.4-0.3c-2.5,0.1-5,0.7-7.2,1.8c-2.4,1.1-4.7,2.5-7.1,3.8
		c-4.5,2.7-9.6,4.3-14.9,5c-2.3,0.2-4.6,0-6.8-0.5c-2-0.4-3.8-1.1-5.6-2.2c-2.6-1.4-4.6-3.4-6.2-6c-0.5-0.9-1-1.9-1.2-2.9
		c0.4,0.9,0.9,1.9,1.4,2.8c1.5,2.4,3.7,4.3,6.2,5.7c1.8,0.9,3.6,1.7,5.5,2.1c2.2,0.5,4.4,0.6,6.7,0.4c5.2-0.5,10.1-2.3,14.7-4.9
		c2.3-1.4,4.6-2.7,7.1-3.9c2.4-1,4.9-1.5,7.4-1.8c1.2-0.1,2.4,0,3.6,0.3c1.1,0.3,2.2,0.8,3,1.7c1.5,1.3,2.4,3.5,2.1,5.6
		c-0.2,1.7-1.2,3.2-2.7,4.1c-1.1,0.6-2.4,0.8-3.6,0.6c-0.8-0.1-1.5-0.5-2.2-0.9C343,474.6,342.8,474.4,342.6,474.2z"/>
	<path class="st2" d="M356.5,461.2c0,0,0.1-0.1,0.3-0.2c0.4-0.1,0.8,0,1.1,0.1c0.5,0.3,0.9,0.8,0.9,1.4c0,0.7-0.5,1.4-1.2,1.7
		c-0.7,0.2-1.5,0-2-0.6c-0.3-0.5-0.5-1-0.5-1.7c0-0.4,0.1-0.7,0.4-1c0.2-0.2,0.4-0.1,0.4-0.1s-0.1,0.1-0.3,0.2
		c-0.2,0.3-0.2,0.6-0.2,0.9c0,0.5,0.2,0.9,0.4,1.3c0.4,0.4,0.9,0.6,1.4,0.4c0.5-0.2,0.9-0.6,0.9-1.2c0-0.4-0.2-0.9-0.6-1.1
		C357.4,461.3,357,461.2,356.5,461.2z"/>
</g>
<g id="Water">
	<path class="st3" d="M277.6,455.9c-23.2,3.1-47.2,5.5-69.7-0.8c-37.9-10.6-87.3-22-131.8-22.3c-26.8-0.2-49.6,0-75.8,5.2v11.2
		c0,0,42.5-11.7,75.5-11.2c32.9,0.5,86.4,27.5,143.1,28.9c56.7,1.4,74.9-8.1,97.4-11.6c22.5-3.5,50.1-12.3,77.2-8.1l33.5,5.2v-7.2
		C377.9,435.3,328.4,449.1,277.6,455.9z M175,458.4c-2.2-0.2-3.6-2.2-3.4-4.2c0.2-2.1,2.2-3.6,4.2-3.4c2,0.2,3.4,1.9,3.4,3.8
		C179.1,456.7,177.3,458.5,175,458.4z M184.9,456.3c-1-0.1-1.8-1-1.7-2s1-1.8,2-1.7c0.9,0.1,1.7,0.8,1.7,1.8
		C186.9,455.6,186,456.4,184.9,456.3L184.9,456.3z"/>
	<path class="st2" d="M420.8,444l-1-0.1l-3.2-0.4c-2.8-0.3-6.9-1-12.3-1.2l-4.2-0.2l-2.3-0.1h-2.4c-3.2,0-6.8-0.1-10.6,0
		c-3.8,0.1-7.8,0.3-12.2,0.6l-6.6,0.5l-3.4,0.3c-1.1,0.1-2.4,0.3-3.5,0.4l-7.3,0.8c-2.5,0.3-5.1,0.7-7.6,1
		c-5.2,0.7-10.5,1.5-16.1,2.5l-35.4,6.1c-6.2,1-12.7,2.1-19.2,2.9l-5,0.5c-0.8,0.1-1.7,0.2-2.5,0.3l-2.6,0.1l-5.1,0.3
		c-1.7,0-3.4,0-5.2,0c-1.8,0-3.5,0-5.2-0.1l-5.3-0.2l-10.6-0.5c-7.1-0.4-14.4-0.9-21.6-2.1l-2.7-0.5l-2.7-0.5
		c-1.8-0.4-3.5-0.8-5.3-1.3l-10.4-2.7c-6.9-1.7-13.7-3.4-20.4-4.9c-6.7-1.4-13.3-2.9-19.8-4.2c-6.5-1.1-12.9-2.4-19.2-3.4
		c-6.3-1-12.4-1.8-18.4-2.6c-6-0.6-11.8-1.3-17.3-1.7c-11.3-0.9-21.7-1-31.3-1.1l-7,0.2c-2.3,0.1-4.4,0.1-6.6,0.2l-6.3,0.4
		c-2.1,0.1-4,0.2-5.9,0.4l-10.5,1l-8.9,1.1l-3.7,0.5l-3.3,0.5l-5.2,0.8l-3.2,0.5c-0.7,0.1-1.1,0.1-1.1,0.1s0.4-0.1,1-0.2l3.2-0.5
		l5.2-0.9l3.3-0.5l3.7-0.5l8.9-1.2l10.5-1c1.9-0.2,3.8-0.3,5.9-0.4l6.3-0.4c2.2-0.2,4.3-0.2,6.6-0.2l7-0.2c9.6,0,20.1,0.1,31.3,1
		c5.6,0.3,11.5,1,17.3,1.7c6,0.8,12.1,1.5,18.4,2.6c6.3,1,12.7,2.2,19.2,3.3c6.5,1.1,13.1,2.6,19.8,4.2c6.7,1.7,13.5,3.2,20.4,4.9
		l10.4,2.7c1.8,0.4,3.5,0.9,5.3,1.3l2.7,0.5l2.7,0.5c7.2,1.1,14.5,1.7,21.5,2.1l10.6,0.5l5.3,0.2c1.8,0.1,3.5,0.1,5.2,0.1
		s3.4,0.1,5.2,0l5.1-0.3l2.5-0.1c0.8-0.1,1.7-0.2,2.5-0.3l5-0.5c6.6-0.8,13-1.8,19.2-2.8l35.4-6.1c5.6-0.8,10.9-1.8,16.1-2.5
		c2.6-0.3,5.2-0.7,7.6-1l7.3-0.8c1.2-0.1,2.4-0.3,3.5-0.4l3.5-0.3l6.6-0.5c4.3-0.3,8.4-0.4,12.2-0.5c3.8-0.1,7.3,0,10.6,0h2.4
		l2.3,0.1l4.2,0.3c5.4,0.2,9.5,0.9,12.3,1.3l3.2,0.4C420.5,443.9,420.8,444,420.8,444z"/>
</g>
<g id="Rock">
	<polygon class="st3" points="374.8,493.8 353.5,481.6 316.1,495.2 285.9,520 396.4,520 	"/>
	<polygon class="st0" points="285.9,520 324.2,497.8 374.8,493.8 352.7,480.6 316.1,495.2 	"/>
	<polygon class="st0" points="341.3,520.1 360.1,507.4 377.6,506.1 363,509.3 355.7,520 	"/>
	<path class="st2" d="M378.2,505.8c-0.4,0.1-0.9,0.2-1.3,0.2l-3.8,0.3l-12.8,1h0.1l-2.1,1.4c-4.7,3.2-9,6.1-12.1,8.2l-3.7,2.5
		l-1,0.6c-0.2,0.1-0.4,0.2-0.4,0.2c0.1-0.1,0.2-0.2,0.3-0.3l0.9-0.7l3.6-2.6c3.1-2.2,7.3-5.1,12-8.3l2.1-1.4l0,0h0.1l12.9-0.8
		l3.8-0.2C377.3,505.9,377.7,505.8,378.2,505.8z"/>
	<path class="st2" d="M374.8,493.6c0,0,0.1,0.1,0.4,0.4l1.1,1.3l4.3,5.2l16.2,19.4l0.1,0.2h-0.2h-90.2h-21l0.3-0.2l30.1-24.7l0,0
		l36.4-14.7l0,0l0,0l16.4,9.7l4.3,2.6l1.1,0.6L374.8,493.6l-0.4-0.1l-1.1-0.6l-4.3-2.6l-16.4-9.6h0.1l-36.4,14.8l0,0l-30,24.7
		l-0.1-0.3h20.3l90.2,0.1l-0.1,0.2c-6.8-8.3-12.3-14.9-16.1-19.4l-4.3-5.3l-0.9-1.3L374.8,493.6z"/>
</g>
<g id="Mosquitoes">
	<path class="st6" d="M418.2,261.9c-3.2,0-5.4,3.2-6.6,6.1c-1.1,3-0.8,6.4,0.9,9.1c2.3,3.6,6.3,5.8,10.5,5.7c4.2-0.3,8.1-3,9.7-6.9
		c1.5-4,0.5-8.6-2.6-11.6c-3.9-3.6-8-4.2-13.1-2.3"/>
	<g class="st13">
		<path class="st10" d="M418.2,261.9c-3.2,0-5.4,3.2-6.6,6.1c-1.1,3-0.8,6.4,0.9,9.1c2.3,3.6,6.3,5.8,10.5,5.7
			c4.2-0.3,8.1-3,9.7-6.9c1.5-4,0.5-8.6-2.6-11.6c-3.9-3.6-8-4.2-13.1-2.3"/>
	</g>
	<path class="st10" d="M420.7,269.7c-0.4-5-1.8-9.7-4-14c-0.7-1.5-1.8-2.9-3.1-3.9c-1.7-1.4-4.1-1.2-5.6,0.4
		c-0.8,0.9-1.1,2.3-0.8,3.5c0.3,1.5,0.9,3.1,1.9,4.3C411.8,264.5,415.5,267.3,420.7,269.7"/>
	<path class="st2" d="M420.7,269.7c-0.2,0-0.3-0.1-0.5-0.2c-0.3-0.1-0.7-0.3-1.3-0.6c-1.7-0.8-3.2-1.8-4.6-2.8
		c-2.2-1.5-4-3.6-5.5-5.8c-0.9-1.3-1.7-2.8-2-4.3c-0.4-1.8,0.2-3.6,1.7-4.9c0.7-0.5,1.7-0.7,2.6-0.6c0.8,0.1,1.8,0.4,2.5,0.8
		c1.3,0.9,2.4,2.2,3.1,3.7c1.2,2.4,2.3,4.9,3,7.4c0.5,1.8,0.8,3.5,1,5.3c0.1,0.6,0.1,1.1,0.1,1.4
		C420.7,269.4,420.7,269.5,420.7,269.7c-0.1-0.6-0.2-1.2-0.3-2c-0.3-1.8-0.7-3.5-1.1-5.2c-0.7-2.5-1.8-5-3-7.2
		c-0.7-1.3-1.7-2.6-2.9-3.4c-1.3-0.9-3-1-4.4-0.2c-1.2,1-1.8,2.7-1.4,4.2c0.3,1.4,0.9,2.9,1.9,4.1c1.4,2.2,3.2,4.1,5.3,5.8
		c1.4,1,2.9,2.1,4.4,2.9C419.6,269.1,420.2,269.4,420.7,269.7z"/>
	<path class="st10" d="M424.2,269.7c4.9-0.9,9.5-2.9,13.5-5.7c1.4-0.9,2.7-2.1,3.5-3.6c0.8-1.5,0.7-3.4-0.3-4.7
		c-1.1-1.1-2.9-1.7-4.4-1.1c-1.5,0.5-2.9,1.3-4.1,2.4C428.5,260.2,426.1,264.2,424.2,269.7"/>
	<path class="st2" d="M424.2,269.7c0-0.2,0-0.3,0.1-0.5c0.1-0.3,0.2-0.8,0.4-1.3c0.6-1.7,1.3-3.3,2.3-4.9c1.3-2.4,3.1-4.4,5.2-6.1
		c1.1-1,2.6-2,4.1-2.5c1.8-0.6,3.6-0.2,5,1c0.6,0.7,0.9,1.7,0.9,2.5c0,0.9-0.2,1.8-0.5,2.6c-0.8,1.4-2,2.6-3.3,3.5
		c-2.2,1.5-4.5,2.8-7,3.8c-1.7,0.7-3.4,1.2-5.2,1.7c-0.6,0.1-1.1,0.2-1.4,0.3C424.6,269.6,424.5,269.6,424.2,269.7
		c0-0.1,0.6-0.3,1.9-0.6c1.8-0.5,3.4-1,5.1-1.8c2.4-1,4.7-2.4,6.8-3.9c1.2-0.8,2.4-2,3.1-3.3c0.7-1.4,0.6-3.1-0.3-4.4
		c-1.1-1.1-2.9-1.4-4.3-0.9c-1.4,0.5-2.8,1.3-3.9,2.4c-2.1,1.7-3.8,3.6-5.2,5.9c-0.9,1.5-1.7,3.1-2.4,4.7
		C424.9,268.5,424.6,269.1,424.2,269.7z"/>
	<path class="st6" d="M420.7,268.8c-1.1,0-2.1,1.2-2.5,2.3c-0.4,1.1-0.3,2.4,0.3,3.4c0.8,1.3,2.4,2.2,4,2.2c1.7-0.1,3-1.1,3.6-2.6
		c0.6-1.5,0.2-3.2-0.9-4.3c-1.3-1.3-3.3-1.7-5-0.8"/>
	<path class="st10" d="M416.9,280.1c-0.6-0.2-1.1-0.6-1.7-1.1c-1.1-1.1-2.1-2.5-2.7-3.9c-0.6-1.5-0.8-3.2-0.5-4.7
		c0.1-0.6,0.4-1.3,0.8-1.8c0.1,0.1-0.3,0.7-0.4,1.9c-0.2,1.5,0,3.1,0.6,4.4C414.4,278.2,417,279.9,416.9,280.1z"/>
	<path class="st10" d="M420.4,281.2c0,0.2-0.4,0.4-1,0.3s-0.9-0.5-0.8-0.6c0.1-0.1,0.5,0,0.9,0C419.9,280.9,420.4,281.1,420.4,281.2
		z"/>
	<path class="st10" d="M432.2,270.6c0.1,0,0.2,0.5,0.3,1.4c0,1.1-0.2,2.3-0.6,3.4c-0.4,1-1.1,2-2,2.8c-0.6,0.6-1.1,0.8-1.2,0.7
		c1-1.1,2-2.4,2.7-3.7C432.3,272.6,432,270.6,432.2,270.6z"/>
	<path class="st10" d="M425.1,263.1c-0.1,0.1-0.4-0.1-0.6-0.2s-0.5-0.2-0.5-0.3c0-0.1,0.3-0.4,0.8-0.2
		C425.3,262.6,425.3,263.1,425.1,263.1z"/>
	<path class="st10" d="M420.1,275.1c0,0.1-0.4,0-0.8-0.4c-0.5-0.5-0.8-1.2-0.9-2c-0.1-0.7,0.1-1.4,0.5-2.1c0.3-0.4,0.6-0.6,0.7-0.5
		c-0.4,0.8-0.6,1.7-0.6,2.6C419.2,273.6,419.6,274.4,420.1,275.1z"/>
	<path class="st10" d="M422,275.9c0,0.2-0.2,0.3-0.4,0.3s-0.4-0.2-0.4-0.3c0.1-0.2,0.2-0.3,0.4-0.3C421.9,275.6,422,275.7,422,275.9
		z"/>
	<path class="st6" d="M234.7,272.5c-2.4,0.6-3.4,3.4-3.8,5.8c-0.3,2.5,0.6,5,2.4,6.6c2.4,2.3,5.8,3.2,9,2.3c3.2-1,5.5-3.7,6-7
		c0.4-3.3-1.2-6.5-4.1-8.2c-3.6-2-6.8-1.7-10.2,0.8"/>
	<g class="st13">
		<path class="st10" d="M234.7,272.5c-2.4,0.6-3.4,3.4-3.8,5.8c-0.3,2.5,0.6,5,2.4,6.6c2.4,2.3,5.8,3.2,9,2.3c3.2-1,5.5-3.7,6-7
			c0.4-3.3-1.2-6.5-4.1-8.2c-3.6-2-6.8-1.7-10.2,0.8"/>
	</g>
	<path class="st10" d="M238,278c-1.2-3.6-3.1-6.9-5.7-9.8c-0.8-1-1.9-1.9-3.1-2.4c-1.5-0.7-3.4,0-4.1,1.5c-0.4,0.8-0.4,1.9,0,2.7
		c0.5,1.1,1.2,2.2,2.3,2.9C230.3,275.7,233.7,277.1,238,278"/>
	<path class="st2" d="M238,278c-0.5,0-1-0.1-1.4-0.2c-1.3-0.3-2.7-0.7-4-1.2c-2-0.8-3.7-1.9-5.3-3.3c-0.9-0.8-1.8-1.8-2.4-2.9
		c-0.6-1.2-0.5-2.9,0.3-4c1-1,2.6-1.3,3.9-0.8c1.1,0.5,2.2,1.2,3,2.2c1.4,1.5,2.6,3.2,3.6,5.1c0.7,1.2,1.2,2.5,1.8,3.8
		C237.9,277,238,277.5,238,278c-0.1,0-0.7-2.1-2.5-5.1c-1-1.8-2.3-3.4-3.6-4.9c-0.7-0.9-1.8-1.7-2.8-2.1c-1.1-0.4-2.4-0.2-3.3,0.6
		c-0.7,0.9-0.8,2.3-0.3,3.4c0.5,1,1.2,2,2.2,2.7c1.4,1.4,3.2,2.5,5.1,3.3C235.9,277.5,238.1,277.8,238,278z"/>
	<path class="st10" d="M240.7,277.3c3.4-1.7,6.5-3.9,9.1-6.8c0.9-0.9,1.5-2.1,2-3.4c0.5-1.7-0.4-3.4-2.1-3.9
		c-0.8-0.3-1.9-0.1-2.6,0.3c-1,0.6-2,1.5-2.7,2.6C242.1,269.3,241.1,272.8,240.7,277.3"/>
	<path class="st2" d="M240.7,277.3c-0.1-0.5-0.1-1,0-1.5c0.1-1.4,0.3-2.8,0.7-4.1c0.5-2,1.4-3.9,2.7-5.6c0.7-1,1.5-2,2.6-2.7
		c1.2-0.8,2.8-0.8,4-0.1c1.1,0.9,1.7,2.4,1.2,3.8c-0.3,1.2-0.9,2.4-1.9,3.2c-1.3,1.5-2.9,2.9-4.5,4.1c-1.1,0.8-2.3,1.5-3.5,2.2
		C241.6,276.9,241.2,277.1,240.7,277.3c-0.1-0.2,1.9-1,4.6-3.2c1.7-1.2,3.1-2.7,4.3-4.2c0.8-0.8,1.3-1.9,1.7-3
		c0.3-1.1-0.1-2.4-1-3.2c-1-0.6-2.4-0.5-3.4,0.1c-0.9,0.6-1.8,1.4-2.5,2.5c-1.2,1.7-2.2,3.4-2.7,5.4
		C240.9,275.1,240.9,277.3,240.7,277.3z"/>
	<path class="st6" d="M237.9,277.3c-0.9,0.2-1.3,1.2-1.4,2.2c-0.1,0.9,0.2,1.9,0.9,2.5c0.9,0.8,2.2,1.2,3.4,0.8s2.1-1.4,2.3-2.7
		s-0.4-2.5-1.5-3.1c-1.2-0.7-2.8-0.6-3.8,0.3"/>
	<path class="st10" d="M237.2,286.4c0,0.1-0.6-0.1-1.4-0.5c-1.1-0.6-2.1-1.4-2.8-2.5c-0.8-1-1.2-2.3-1.2-3.5c0-1,0.3-1.5,0.3-1.5
		s0,0.6,0.1,1.4c0.2,1.1,0.6,2.3,1.3,3.2C235,285.4,237.3,286.2,237.2,286.4z"/>
	<path class="st10" d="M240.1,286.7c0.1,0.1-0.2,0.4-0.7,0.4s-0.8-0.2-0.7-0.4c0.1-0.2,0.4-0.2,0.7-0.2S240,286.5,240.1,286.7z"/>
	<path class="st10" d="M246.8,276.3c0.1-0.1,1,1.5,0.6,3.6c-0.1,1.2-0.7,2.5-1.8,3.2c0.5-1,0.9-2.2,1.2-3.3
		C247,278.7,247,277.6,246.8,276.3z"/>
	<path class="st10" d="M240.1,272.2c-0.2,0.1-0.3,0.1-0.5,0.1s-0.4-0.1-0.5-0.2c-0.1-0.1,0.1-0.4,0.5-0.4
		C240,271.7,240.3,272.1,240.1,272.2z"/>
	<path class="st10" d="M238.6,282.1c0,0.1-0.3,0.1-0.7-0.1c-0.5-0.3-0.9-0.7-1.1-1.3c-0.2-0.5-0.2-1.1,0-1.8
		c0.2-0.4,0.4-0.6,0.4-0.5s-0.3,1,0.1,2.1C237.7,281.5,238.7,281.9,238.6,282.1z"/>
	<path class="st10" d="M240.2,282.3c0,0.2-0.1,0.3-0.3,0.3l0,0c-0.2,0-0.3-0.1-0.4-0.2c0-0.2,0.1-0.3,0.2-0.4c0,0,0,0,0.1,0
		C240,282,240.2,282.1,240.2,282.3L240.2,282.3z"/>
	<path class="st6" d="M319.6,214.8c-2.4,0.6-3.4,3.4-3.8,5.8c-0.3,2.5,0.6,5,2.4,6.6c2.4,2.3,5.8,3.2,9,2.3c3.2-1,5.5-3.7,6-7
		c0.4-3.3-1.2-6.5-4.1-8.2c-3.6-2-6.8-1.7-10.2,0.8"/>
	<g class="st13">
		<path class="st10" d="M319.6,214.8c-2.4,0.6-3.4,3.4-3.8,5.8c-0.3,2.5,0.6,5,2.4,6.6c2.4,2.3,5.8,3.2,9,2.3c3.2-1,5.5-3.7,6-7
			c0.4-3.3-1.2-6.5-4.1-8.2c-3.6-2-6.8-1.7-10.2,0.8"/>
	</g>
	<path class="st10" d="M323,220.2c-1.2-3.6-3.1-6.9-5.7-9.8c-0.8-1-1.9-1.9-3.1-2.4c-1.5-0.7-3.4,0-4.1,1.5c-0.4,0.8-0.4,1.8,0,2.6
		c0.5,1.1,1.2,2.2,2.2,2.9C315.2,217.9,318.5,219.2,323,220.2"/>
	<path class="st2" d="M323,220.2c-0.5,0-1-0.1-1.5-0.2c-1.3-0.3-2.7-0.7-4-1.2c-2-0.8-3.7-1.9-5.3-3.3c-0.9-0.8-1.8-1.8-2.4-2.9
		c-0.6-1.2-0.5-2.9,0.3-4c1-1,2.6-1.3,3.9-0.8c1.1,0.5,2.2,1.2,3,2.2c1.3,1.5,2.6,3.2,3.6,5.1c0.7,1.2,1.2,2.5,1.8,3.8
		C322.8,219.1,322.9,219.7,323,220.2c-0.7-1.8-1.5-3.4-2.5-5.1c-1-1.8-2.3-3.4-3.6-4.9c-0.7-0.9-1.8-1.7-2.8-2.1
		c-1.1-0.4-2.4-0.2-3.3,0.6c-0.7,0.9-0.8,2.3-0.3,3.4c0.5,1,1.2,2,2.2,2.7c1.4,1.4,3.2,2.5,5.1,3.3C320.8,219.8,323,220.1,323,220.2
		z"/>
	<path class="st10" d="M325.6,219.5c3.4-1.7,6.5-3.9,9.1-6.8c0.9-0.9,1.7-2.1,2.1-3.4c0.5-1.7-0.4-3.4-2.1-3.9
		c-0.8-0.3-1.9-0.1-2.6,0.3c-1,0.6-2,1.5-2.7,2.6C327,211.5,326.1,215,325.6,219.5"/>
	<path class="st2" d="M325.6,219.5c-0.1-0.5-0.1-1,0-1.5c0.1-1.4,0.3-2.8,0.7-4.1c0.5-2,1.4-3.9,2.7-5.6c0.7-1,1.5-2,2.6-2.7
		c1.2-0.8,2.8-0.8,4-0.1c1.1,0.9,1.7,2.4,1.2,3.8c-0.3,1.2-0.9,2.4-1.9,3.2c-1.3,1.5-2.9,2.9-4.5,4.1c-1.1,0.8-2.3,1.5-3.6,2.2
		C326.6,219,326.1,219.2,325.6,219.5c0-0.2,2-1,4.6-3.2c1.7-1.2,3.1-2.7,4.4-4.2c0.8-0.8,1.3-1.9,1.7-3c0.3-1.1-0.1-2.4-1-3.2
		c-1-0.6-2.4-0.5-3.4,0.1c-0.9,0.6-1.8,1.4-2.5,2.5c-1.2,1.7-2.2,3.4-2.7,5.4C325.9,217.3,325.8,219.5,325.6,219.5z"/>
	<path class="st6" d="M322.8,219.5c-0.9,0.2-1.3,1.2-1.4,2.2c-0.1,0.9,0.2,1.9,0.9,2.5c0.9,0.8,2.2,1.2,3.4,0.8
		c1.2-0.4,2.1-1.4,2.3-2.7c0.2-1.2-0.4-2.5-1.5-3.1c-1.2-0.7-2.8-0.6-3.8,0.3"/>
	<path class="st10" d="M322,228.5c-0.5,0-1-0.2-1.4-0.5c-1.1-0.6-2.1-1.4-2.8-2.5c-0.7-1-1.2-2.3-1.2-3.5c0-1,0.3-1.5,0.3-1.5
		s0,0.6,0.1,1.4c0.2,1.1,0.6,2.3,1.3,3.2C319.9,227.6,322.1,228.4,322,228.5z"/>
	<path class="st10" d="M324.9,228.8c0.1,0.1-0.2,0.4-0.7,0.4s-0.8-0.2-0.7-0.4c0.1-0.2,0.4-0.2,0.7-0.2S324.8,228.6,324.9,228.8z"/>
	<path class="st10" d="M331.6,218.5c0.1-0.1,1,1.4,0.7,3.6c-0.1,1.2-0.7,2.5-1.8,3.2c0.5-1,0.9-2.2,1.2-3.3
		C331.8,220.9,331.8,219.8,331.6,218.5z"/>
	<path class="st10" d="M325,214.4c-0.2,0.1-0.3,0.1-0.5,0.1c-0.2,0-0.3-0.1-0.5-0.2c-0.1-0.1,0.1-0.4,0.5-0.4
		C324.9,213.9,325.1,214.3,325,214.4z"/>
	<path class="st10" d="M323.5,224.3c0,0.1-0.3,0.1-0.7-0.1c-1-0.6-1.5-1.9-1-3c0.2-0.4,0.4-0.6,0.4-0.5s-0.3,1,0.1,2.1
		S323.6,224.1,323.5,224.3z"/>
	<path class="st10" d="M325,224.5c0,0.2-0.1,0.3-0.3,0.3l0,0c-0.2,0-0.3-0.1-0.4-0.2c0-0.2,0.1-0.3,0.3-0.3l0,0
		C324.8,224.2,325,224.3,325,224.5L325,224.5z"/>
</g>
<g id="Deer">
	<path class="st6" d="M353.3,341.2l2.7,13.3l-6,37.4h-4.4c0,0,0.7-35.4,0.7-43.3c0.1-4.6-1.8-9.1-5.3-12.3L353.3,341.2z"/>
	<path class="st14" d="M353.3,341.2l2.7,13.3l-6,37.4h-4.4c0,0,0.7-35.4,0.7-43.3c0.1-4.6-1.8-9.1-5.3-12.3L353.3,341.2z"/>
	<path class="st6" d="M403.5,332.2l1.4,12.6c4.2,19.9,7.8,24.4,7.8,24.4l-7.5,22.6l6.5,0.2l11-22.7c-9.3-24.9,1.3-36.1,1.3-36.1
		L403.5,332.2z"/>
	<path class="st14" d="M403.5,332.2l1.4,12.6c4.2,19.9,7.8,24.4,7.8,24.4l-7.5,22.6l6.5,0.2l11-22.7c-9.3-24.9,1.3-36.1,1.3-36.1
		L403.5,332.2z"/>
	<path class="st6" d="M315.8,282.7c0,0,2.3,16.7,4.1,21.1s9.3,16.4,13.4,24.6c5,9.8,12.1,9.8,14.7,15.2c2.6,5.4,0.6,48.3,0.6,48.3
		l6.6-0.1l5.4-28.2c0.1-4.6-0.1-9.3-0.6-13.9c-0.7-5.4,3.4-9.1,3.4-9.1s19.8,2.3,27.5,2.6c4.5,0.2,9.1-1,13-3.4
		c2.9,5,6.2,9.5,10,13.8c5.2,5.6,17.7,13.8,19.6,16.1c2,2.3,2.2,22.3,2.2,22.3h6.2v-30.8c0,0-13.3-10.3-13.9-14.1s6.1-15.5,7.5-28.1
		c1.4-12.6-5.7-17.8-5.7-17.8c-2.1-2.2-4.9-3.7-7.8-4.3c-5.6-0.9-49.9-0.7-49.9-0.7s-20.6-2.8-22.5-2.9s-10.4-3.2-12.6-8.4
		s-3-16.2-3-16.2l-6.3,9l-4.5,5L315.8,282.7z"/>
	<g class="st12">
		<path d="M332.4,271.7l1-2.4c0.5,3,0.4,6.1-0.3,9.1c-0.8,3-2.9,5.5-5.8,6.6c-1.4,0.5-3,0.5-4.4,0.2c0.9-0.9,2.4-0.9,3.6-1.4
			c1.4-0.7,2.2-2.3,2.8-3.8C330.4,277.1,331.2,274.5,332.4,271.7"/>
	</g>
	<path class="st10" d="M329.8,321.7l-5.5-9.7c-1.5-2.8-3.8-6.2-4.7-9.3c-1.8-6.5-3-13.1-3.7-19.7c2,1.5,5.5,1.3,7.4,2.9
		c0.8,0.8,1.3,1.9,1.7,3C328.3,299.7,331.7,310.6,329.8,321.7"/>
	<path class="st4" d="M298.5,237.7c0,0-1.3,5.8,1.5,10.7s9.5,8.2,9.5,8.2l4,5.4l4.2-3.5l-1.7-3.8c0.6-1.7,1-3.3,1.2-5.1
		c0.3-2-0.1-4-1.1-5.8c-1.4-1.1-2.3,0.3-1.8,2.4c0.5,2.1-1,4.5-1.9,5.6c-0.8,1-4.7,0.1-6.6-2c-1.7-1.9-1.8-4-0.5-8.9
		c0.8-3.3,0-3.3-0.9-2.8c-1.2,0.6-2.7,6.5-2.7,6.5c-0.4-0.9-0.7-2-0.8-3c-0.3-2.2,2.7-9.5,3.5-11s-1.1-2.3-1.4-1.9
		c-1.1,2.4-3.7,6.7-3.6,6.5c0,0-2-4.6-2.7-4.7c-0.2,0-0.4,0-0.5,0.1c-0.6,0.3-0.8,1.1-0.5,1.8L298.5,237.7z"/>
	<path class="st4" d="M346,239.5c0,0,1.3,5.9-1.5,10.8c-2.9,5-9.6,8.2-9.6,8.2l-4,5.4l-4.2-3.5l1.7-3.8c-0.6-1.7-1-3.3-1.2-5.1
		c-0.3-2,0.1-4,1.1-5.8c1.4-1.1,2.2,0.3,1.8,2.4c-0.4,2.1,1,4.5,1.9,5.6s4.7,0.1,6.6-2c1.7-1.9,1.8-4,0.5-8.9
		c-0.8-3.3,0-3.3,0.9-2.8c1.2,0.6,2.7,6.5,2.7,6.5c0.4-0.9,0.7-2,0.8-3c0.3-2.2-2.7-9.5-3.5-11c-0.8-1.5,1.1-2.3,1.4-1.9
		c1.1,2.3,3.7,6.6,3.6,6.4c0,0,2-4.6,2.7-4.7c0.2,0,0.4,0,0.5,0.1c0.6,0.3,0.8,1,0.5,1.7L346,239.5z"/>
	<g class="st12">
		<path d="M333.7,269.5c-2.2,2.4-4.2,5-6.1,7.6c-1.5,2.3-3.3,4.9-6,5.4"/>
	</g>
	<path class="st6" d="M327.1,258c-3,1.1-6.3,1-9.3-0.1l-4.2,3.5c0,0-1-1.4-4-5.4c-3-3.9-9.3-1.4-9.3-1.4c0.6,3.3,2,6.6,3.7,9.5
		c1.4,2.6,4.4,3.8,7.2,3.1c0,0,1.7,3.3,2.3,4.4c0.6,1.1,1.1,7.4,1,8.5c0.1,1.1,0.6,2.3,1.3,3.1c1,1.3,2.5,2.3,4.1,2.5
		c2.4,0,4.7-0.6,6.7-2c1.5-1,5-9.5,5-9.5s1.5-4.5,2.7-6.1s5.4-1,5.4-1c7.2-1.7,6.1-11.5,5.7-11.6c-10.3-4.1-13,7-13,7L327.1,258z"/>
	<path class="st2" d="M330.8,267.8c-0.8-0.3-1.7-0.2-2.5,0.2c-0.7,0.4-1.3,1.1-1.5,2c0.4,0.3,0.9,0.5,1.4,0.6c0.5,0.1,1-0.1,1.4-0.4
		C330.3,269.6,330.7,268.7,330.8,267.8"/>
	<path class="st2" d="M330.4,265.4c-0.6-0.8-1.5-1.1-1.5-1.2s1.1-0.1,2,0.9c0.8,1,0.5,2.1,0.4,2.1
		C331.2,267.3,331.2,266.3,330.4,265.4z"/>
	<path class="st6" d="M330.8,271.1c0.4-0.8,0.3-1.7,0.4-1.8c0.1-0.1,0.5,0.9,0,2c-0.5,1-1.5,1.4-1.5,1.2
		C329.7,272.5,330.4,271.9,330.8,271.1z"/>
	<path class="st2" d="M316.5,270.3c-0.6,0.2-1.2,0.1-1.8-0.2s-0.8-0.8-1-1.3c-0.1-0.4-0.1-0.9-0.1-1.3c0-0.1,0-0.2,0.1-0.3
		c0.1-0.1,0.2-0.1,0.3-0.1c0.8-0.1,1.7,0.2,2.2,0.8c0.5,0.6,0.7,1.4,0.5,2.3l0.1-0.1"/>
	<path class="st2" d="M313.7,266.8c0.9-0.1,1.8,0.2,2.5,0.7c0.4,0.3,0.6,0.8,0.7,1.3c0.1,0.4,0.1,0.7,0,1.1c-0.1,0.6-0.1,1-0.2,1
		c-0.1,0-0.1-0.4-0.1-1c0.1-0.7-0.2-1.4-0.7-2.1c-0.6-0.4-1.3-0.7-2.1-0.8c-0.6-0.1-1-0.1-1-0.1
		C312.7,266.9,313.1,266.8,313.7,266.8z"/>
	<g class="st12">
		<path d="M303.6,260.7c1.1,1.7,2.5,3.1,4.1,4.3c0.3,0.3,0.7,0.5,1.1,0.6c0.4,0.1,0.9-0.1,1.1-0.4l0.2-0.2c0.9-1.4,1-3.3,0.3-4.9
			c-0.8-1.5-2.1-2.7-3.5-3.5c-1.5-0.7-3.1-1.3-4.7-1.8C302,257,302.6,258.9,303.6,260.7z"/>
	</g>
	<g class="st12">
		<path d="M336.1,264.8c1.4,0.4,2.9,0.2,4.1-0.5c1.2-0.8,2.2-1.9,2.8-3.2s1-2.7,1.2-4.1c0.1-0.4,0.1-0.8-0.3-1c-0.1,0-0.2-0.1-0.4,0
			c-1.5,0-3.2,0.3-4.6,0.8c-1.4,0.5-2.8,1.5-3.7,2.8c-0.7,0.9-1,2-0.9,3.1c0.1,1.1,0.9,2.1,2.1,2.3"/>
	</g>
	<path class="st6" d="M429.6,304.1c2.5-0.5,4.9,1.2,6.7,3c1.9,1.8,4.2,3.6,6.7,3c-1.3-0.5-2.4-1.7-2.7-3.1c5.6,3.6,12.9,3.2,18-1
		c-2.6,0.2-5-1.1-7.1-2.6c-2.2-1.4-4.2-3.1-6.6-3.9c-4.7-1.5-9.9,0.5-14.6,2.5"/>
	<path class="st10" d="M441.9,301.7c6.1,0.6,6,2.8,9,4.2c3,1.4,7.4,0.1,7.4,0.1c-5.1,4.2-12.4,4.6-18,1c0.3,1.4,1.3,2.6,2.7,3.1
		c-2.5,0.5-4.9-1.3-6.7-3c-1.9-1.7-4.2-3.5-6.7-3C429.6,304.1,435.9,301.1,441.9,301.7z"/>
	<path class="st2" d="M400.6,317.9c-1,6.4-0.2,13,2.3,19c0.9,2.3,1.8,3.6,1.7,3.7c-0.2-0.3-0.4-0.6-0.6-0.9c-0.5-0.8-1-1.8-1.3-2.6
		c-2.7-6-3.5-12.7-2.3-19.2c0.2-0.9,0.4-2,0.7-2.9c0.1-0.3,0.2-0.7,0.4-1C401.5,314,401,315.4,400.6,317.9z"/>
	<path class="st2" d="M361.9,338.6c-1.2-1.9-2.3-3.8-3.1-5.9c-0.8-2.1-1.4-4.2-1.8-6.4c-0.2-0.9-0.2-1.9-0.1-2.8
		c0.2,0.9,0.4,1.8,0.5,2.7c0.9,4.3,2.5,8.5,4.9,12.2c0.9,1.4,1.5,2.3,1.5,2.3C363.1,340.1,362.4,339.5,361.9,338.6z"/>
	<path class="st2" d="M340.9,321.7c0-0.6,0.1-1.4,0.2-2.5c0.3-2.8,0.9-5.5,1.7-8.2c0.8-2.7,1.8-5.3,3-7.7c0.5-0.9,0.9-1.8,1.2-2.2
		c0.1-0.3,0.3-0.5,0.5-0.7c-0.4,1-0.8,2.1-1.3,3.1c-1.1,2.5-2.1,5.1-2.9,7.7c-0.7,2.7-1.3,5.4-1.9,8.1c-0.1,1.1-0.3,2.3-0.6,3.4
		C340.8,322.3,340.8,322,340.9,321.7z"/>
	<path class="st2" d="M336.7,311.9c0.2-2.7,0.8-5.4,1.7-8.1c0.9-2.6,2.4-5,4.3-6.9c0.6-0.6,1.2-1,2-1.5c0.2-0.2,0.5-0.3,0.8-0.4
		c0.1,0.1-1.1,0.7-2.6,2.2c-1.9,2-3.3,4.3-4.1,6.8c-0.8,2.6-1.4,5.2-1.9,7.8c-0.1,1.1-0.3,2.3-0.5,3.3
		C336.5,314.2,336.6,313,336.7,311.9z"/>
	<path class="st10" d="M364.7,308.8c0.7,0.5,2,0.8,2.4-0.1c0.2-0.4,0.2-0.9,0-1.3c-0.7-1.7-1.9-3.2-3.1-4.5l0,0
		c-0.1-0.1-0.2-0.1-0.4-0.2c-0.6-0.2-1.2,0.2-1.4,0.8C361.6,305.6,363.1,307.7,364.7,308.8z"/>
	<path class="st10" d="M374.6,304.6c-0.8,0-1.4,0.6-1.4,1.4c0.1,0.7,0.4,1.4,0.9,2c0.4,0.6,0.9,1,1.5,1.3c0.6,0.3,1.4,0.3,2.1-0.2
		c0.7-0.8,0.7-2.1-0.1-2.9C376.8,305.5,375.8,304.9,374.6,304.6C374.7,304.6,374.7,304.6,374.6,304.6z"/>
	<path class="st10" d="M385.5,309.7c0.5,0.7,1.1,1.4,1.9,2c0.9,0.7,2.1,1.3,3.1,0.9c0,0,0,0,0.1,0c0.9-0.7,1.1-2,0.4-2.9
		c-0.6-1-1.5-1.9-2.7-2.4l0,0c-0.1-0.1-0.2-0.1-0.3-0.1c-0.7-0.4-1.5-0.3-2.2,0.2C385.2,307.9,385.1,308.9,385.5,309.7z"/>
	<path class="st10" d="M370.1,315.5c0.2,1,0.7,2.1,1.3,3c0.7,1.1,1.8,2.4,3.1,2.3c1.3-0.1,2.1-1.9,1.8-3.2c-0.3-1.4-1-2.8-2.1-3.8
		l0,0c-0.1-0.1-0.2-0.2-0.3-0.3c-0.6-0.7-1.7-0.9-2.6-0.6C370.4,313.3,369.9,314.5,370.1,315.5z"/>
	<path class="st10" d="M354.1,300.7c0.4,1,1.4,1.7,2.6,1.7c1.1-0.3,1.9-1.2,1.9-2.5c-0.1-1.1-0.4-2.2-0.9-3.1
		c-0.3-0.8-2-1.1-2.8-0.8c-0.8,0.4-1.3,1.1-1.4,2.1C353.4,299.1,353.6,299.9,354.1,300.7z"/>
	<path class="st10" d="M391.7,299.8c-0.6,0.2-1,0.8-1.1,1.4c-0.1,1,0.6,2,1.5,2.1c0.7,0.1,1.5,0.1,2.3,0c0.7,0,1.3-0.2,2-0.4
		c0.7-0.3,1.2-0.9,1.2-1.8c0-1-0.8-2-1.9-2c-1-0.2-2.2-0.2-3.2,0.1l0,0C392.3,299.5,392,299.6,391.7,299.8L391.7,299.8z"/>
	<path class="st10" d="M378.9,302.2C379,302.2,379,302.2,378.9,302.2c0.9,0.5,2.1,0.2,2.6-0.7c0.4-0.9,0.2-2.4-0.8-2.6l0.3,0.1
		c-0.8-0.5-2-0.3-2.6,0.5C377.8,300.3,378,301.6,378.9,302.2z"/>
	<path class="st10" d="M355.9,313L355.9,313c0.9,0.5,2.1,0.2,2.6-0.7c0.4-0.9,0.2-2.4-0.8-2.6l0.3,0.1c-0.8-0.5-2-0.3-2.6,0.5
		C354.8,311.2,355,312.4,355.9,313z"/>
	<path class="st10" d="M366.5,299.1c0.1,0.6,0.3,1.1,0.7,1.5c0.3,0.3,0.7,0.4,1.1,0.4c0.8-0.2,0.9-1.3,0.4-2
		c-0.3-0.5-0.9-0.8-1.5-0.8C367.3,298.3,366.4,298.3,366.5,299.1z"/>
	<path class="st2" d="M326.7,269.8c0.2-0.8,0.6-1.4,1.3-2c0.7-0.4,1.5-0.5,2.3-0.3c0.6,0.1,0.9,0.3,0.9,0.3s-0.4,0-0.9,0
		c-0.7,0-1.3,0.1-2,0.4c-0.5,0.4-1,0.9-1.2,1.5c-0.2,0.5-0.2,0.8-0.3,0.8C326.7,270.7,326.5,270.4,326.7,269.8z"/>
	<path class="st2" d="M330.7,271.1c0.2-0.9-0.1-1.7,0-1.8c0.1-0.1,0.7,0.7,0.5,1.9s-1.2,1.7-1.2,1.4
		C329.9,272.6,330.5,271.9,330.7,271.1z"/>
	<path class="st2" d="M312.5,265c0.1-0.4,0.3-0.7,0.6-0.9c0.3-0.1,0.4-0.2,0.5,0c0.1,0.2-0.4,0.4-0.6,1.1c-0.2,0.7-0.1,1.3-0.3,1.3
		C312.6,266.5,312.4,265.8,312.5,265z"/>
	<path class="st2" d="M304.5,255.6c1.9,0.4,3.5,1.3,5,2.7c0.7,0.7,1.3,1.7,1.7,2.7c0.2,0.8,0.2,1.8,0,2.6c-0.1,0.8-0.6,1.5-1.2,2
		c0.4-0.6,0.7-1.3,0.9-2.1c0.1-0.8,0.1-1.5-0.1-2.4c-0.3-0.9-0.8-1.8-1.5-2.5c-1.3-1.2-2.9-2.2-4.6-2.7c-0.7-0.2-1.4-0.4-2.2-0.8
		C303.1,255.1,303.8,255.3,304.5,255.6z"/>
	<path class="st2" d="M341.8,256.2c-1.9,0.2-3.6,0.9-5.2,2.1c-0.8,0.6-1.4,1.4-1.8,2.4c-0.3,0.7-0.3,1.7,0,2.4
		c0.3,0.7,0.8,1.3,1.4,1.8c0,0-0.2,0-0.6-0.2c-0.5-0.3-0.9-0.8-1.1-1.3c-0.4-0.8-0.4-1.8-0.1-2.7c0.3-1,1-2,1.9-2.7
		c0.8-0.7,1.8-1.2,2.9-1.5c0.8-0.3,1.7-0.4,2.6-0.5c0.8-0.1,1.7-0.1,2.4,0.1C343.3,256,342.6,256.1,341.8,256.2z"/>
	<path class="st10" d="M315.3,280.6c0,0.4,0.3,1,0.7,1.1c0.4,0.1,1,0.1,1.4,0.2c0.7,0.3,0.6,1.3,2.5,1.3c1.1-0.1,2.2-0.5,3-1.2
		c0.2-0.1,0.4-0.2,0.6-0.3c0.6-0.1,1.1-0.5,1.4-1c0.3-0.6,0.2-1.4-0.1-2.1c-0.4-0.6-0.8-1.1-1.4-1.7l-0.4-0.5
		c-1.5-0.6-3.9-0.9-5.4,0c-0.9,0.6-1.7,1.4-2.2,2.5C315.4,279.6,315.3,280.1,315.3,280.6z"/>
	<path class="st2" d="M316.6,281.3c0.9,0.2,1.8-0.1,2.5-0.7l0.2-0.2l0.2,0.2l0.2,0.2c0.7,0.6,1.8,0.9,2.8,0.7
		c0.7-0.1,1.1-0.4,1.2-0.3c0.1,0.1-0.3,0.5-1.1,0.7c-1.1,0.3-2.3,0-3.2-0.7c-0.1-0.1-0.2-0.2-0.3-0.3h0.4c-0.4,0.5-0.9,0.8-1.5,0.9
		c-0.5,0.1-0.9,0-1.4-0.1c-0.7-0.2-1.1-0.6-1.1-0.6C315.6,281.1,316,281.3,316.6,281.3z"/>
	<path class="st2" d="M317,275.9c1.5-0.8,2.8-0.5,4.3-0.3c0.5,0,1,0.2,1.5,0.5c0.4,0.3,0.6,0.9,0.4,1.4c-0.2,0.3-0.4,0.5-0.7,0.6
		c-0.3,0.1-0.6,0.2-0.9,0.4c-0.3,0.2-0.4,0.5-0.5,0.8c0,0.3,1-0.1,0.6,0.5c-1.1,1.1-3,1.2-4.3,0.2c-0.1-0.1-0.3-0.5-0.1-0.6
		c0.1,0,0.1-0.1,0.2-0.1c0.2-0.1,0.1-0.3,0-0.5c-0.1-0.1-0.3-0.2-0.5-0.2c-0.5-0.2-0.9-0.8-0.9-1.3
		C316.2,276.6,316.5,276.1,317,275.9"/>
	<path class="st10" d="M403.6,339.7c-4.4,3.1-10.5,3.6-16.3,3.1c-5.6-0.5-11.7-1-17.6-1.7c-2.4-0.2-6.3-0.7-6.3-0.7
		c10.6-2.7,21.2-2.4,32-3.5c1.5-0.2,3.1-0.2,4.6,0C401.9,337.1,403.1,338.2,403.6,339.7"/>
	<path class="st10" d="M320.2,270.2c0.2,0.5,0.7,0.7,1.2,0.6c0.6-0.1,0.9-0.7,0.8-1.3c-0.2-0.5-0.8-0.8-1.4-0.6
		C320.3,269,320.1,269.7,320.2,270.2z"/>
	<path class="st10" d="M318.6,265c0.4,1.4,1.9,2.4,3.3,2.3c1.4-0.1,3.3-1.1,3-2.8c-0.1-0.7-0.8-0.8-1.3-0.7c-0.5,0.1-1,0.2-1.5,0.5
		c-0.5,0.2-1,0.3-1.5,0.2c-0.3-0.1-0.6-0.3-1-0.4c-0.3-0.1-0.7,0-0.9,0.3C318.5,264.5,318.5,264.7,318.6,265z"/>
	<path class="st2" d="M321.6,263.2l-0.2-0.2c0.7-0.4,1.4-0.9,2.1-1.4c0.7-0.8,1.4-1.7,2.1-2.5c-0.2,1.1-0.7,2.2-1.7,2.9
		C323.2,262.5,322.4,263,321.6,263.2l-0.5,0.2l0.3-0.4c0.2-0.3,0.4-0.4,0.4-0.4C321.9,262.6,321.8,262.9,321.6,263.2z"/>
	<path class="st2" d="M321.9,261.9c0.5-0.5,1-0.9,1.1-0.8c0.1,0.1-0.1,0.7-0.7,1.2c-0.6,0.5-1.2,0.7-1.3,0.6
		C320.8,262.9,321.2,262.4,321.9,261.9z"/>
	<path class="st2" d="M320.5,261.8c0.5-0.3,0.9-0.6,1-0.5c0.1,0.1-0.1,0.7-0.7,1c-0.6,0.3-1.2,0.2-1.2,0.1
		C319.6,262.2,320,262.1,320.5,261.8z"/>
	<g class="st12">
		<path d="M403,337.8c-2.7-6.6-3.6-13.8-2.6-21c-2.2,3.3-3.1,7.2-2.9,11.2C397.9,331.9,399.8,335.5,403,337.8"/>
	</g>
	<g class="st12">
		<path d="M347,301c-3.2,6-5.4,12.5-6.1,19.2c-0.6-0.7-0.9-1.8-0.9-2.7c0.1-0.9,0.3-2,0.6-2.8c1.7-4.7,3.7-9.4,6.2-13.8"/>
	</g>
	<g class="st12">
		<path d="M433.6,305.9c-0.5-1.2-1.7-2.1-3-2c-0.3,0-0.6,0.1-0.8,0.4c-0.1,0.3-0.2,0.6-0.1,0.9c0.3,1.8,0.8,3.5,1.5,5.2
			c0.3,0.6,0.8,1.1,1.3,1c0.5-0.1,0.8-0.7,0.9-1.2c0.3-1.4,0.1-3-0.4-4.4"/>
	</g>
	<path class="st10" d="M413.3,298c2.2,0,4.3,0.1,6.4,0.5c2.2,0.4,4.2,1,6.2,1.9c0.8,0.3,1.7,0.7,2.4,1.2c-0.8-0.2-1.7-0.5-2.5-0.9
		c-2-0.7-4-1.3-6.1-1.8c-2.1-0.4-4.2-0.6-6.3-0.7c-0.9,0-1.8,0-2.7-0.1C411.6,298,412.5,297.9,413.3,298z"/>
	<path class="st10" d="M334.7,283c1,3.6,3.6,6.6,7,8.3c-0.6,0-1.1-0.2-1.7-0.5c-2.5-1.2-4.3-3.4-5.2-6.1
		C334.8,284.1,334.7,283.5,334.7,283L334.7,283z"/>
</g>
</svg>
