<?xml version="1.0" encoding="iso-8859-1"?>
<!-- Generator: Adobe Illustrator 22.1.0, SVG Export Plug-In . SVG Version: 6.00 Build 0)  -->
<svg version="1.1" id="&#x56FE;&#x5C42;_1" xmlns="http://www.w3.org/2000/svg" xmlns:xlink="http://www.w3.org/1999/xlink" x="0px"
	 y="0px" viewBox="0 0 262.5 261.166" style="enable-background:new 0 0 262.5 261.166;" xml:space="preserve">
<g>
	<polygon style="fill:#FFFFFF;stroke:#000000;stroke-miterlimit:10;" points="241.553,247.392 21.162,247.392 14.274,240.504 
		14.274,20.112 21.162,13.225 241.553,13.225 248.441,20.113 248.441,240.504 	"/>
	<path style="stroke:#000000;stroke-miterlimit:10;" d="M14.274,260.305h234.166v-6.026h6.887v-6.887h0.215H262V13.225l-6.457,0
		h-0.215V6.338h-6.887V6.15V0.5H14.274c0,0,0,0,0,1.883s0,3.766,0,3.766v0.188H7.387v6.887c0,0-6.887,0-6.887,0
		c0,0,0,234.166,0,234.166h6.887v6.887h6.887v6.887L14.274,260.305z"/>
	<polygon style="fill:#FFFFFF;stroke:#000000;stroke-miterlimit:10;" points="241.553,247.392 241.553,240.504 248.441,240.504 
		248.441,20.112 241.553,20.112 241.553,13.225 21.162,13.225 21.162,20.112 14.274,20.112 14.274,240.504 21.162,240.504 
		21.162,247.392 	"/>
	<path style="fill:#FFFFFF;stroke:#000000;stroke-miterlimit:10;" d="M248.441,254.279"/>
	<line style="fill:#FFFFFF;stroke:#000000;stroke-miterlimit:10;" x1="21.162" y1="247.392" x2="241.553" y2="247.392"/>
	<rect x="34.936" y="97.594" style="stroke:#000000;stroke-miterlimit:10;" width="13.774" height="13.774"/>
	<rect x="83.147" y="132.03" style="stroke:#000000;stroke-miterlimit:10;" width="17.218" height="74.038"/>
	<rect x="164.072" y="54.549" style="stroke:#000000;stroke-miterlimit:10;" width="17.218" height="151.519"/>
	<rect x="83.147" y="54.549" style="stroke:#000000;stroke-miterlimit:10;" width="17.218" height="65.429"/>
	<rect x="215.726" y="97.594" style="stroke:#000000;stroke-miterlimit:10;" width="13.774" height="13.774"/>
	<rect x="193.343" y="97.594" style="stroke:#000000;stroke-miterlimit:10;" width="13.774" height="13.774"/>
	<rect x="186.456" y="104.481" style="stroke:#000000;stroke-miterlimit:10;" width="8.609" height="13.774"/>
	<rect x="34.936" y="97.594" style="stroke:#000000;stroke-miterlimit:10;" width="36.158" height="6.887"/>
	<rect x="55.598" y="97.594" style="stroke:#000000;stroke-miterlimit:10;" width="15.496" height="15.496"/>
	<rect x="69.372" y="104.481" style="stroke:#000000;stroke-miterlimit:10;" width="13.774" height="13.774"/>
	<rect x="91.756" y="111.368" style="stroke:#000000;stroke-miterlimit:10;" width="17.218" height="13.774"/>
	<rect x="105.53" y="118.256" style="stroke:#000000;stroke-miterlimit:10;" width="20.662" height="13.774"/>
	<rect x="126.192" y="125.143" style="stroke:#000000;stroke-miterlimit:10;" width="13.774" height="39.602"/>
	<rect x="117.583" y="150.97" style="stroke:#000000;stroke-miterlimit:10;" width="29.271" height="6.887"/>
	<rect x="76.26" y="61.436" style="stroke:#000000;stroke-miterlimit:10;" width="29.271" height="8.609"/>
	<rect x="157.185" y="61.436" style="stroke:#000000;stroke-miterlimit:10;" width="29.271" height="8.609"/>
	<rect x="139.967" y="116.534" style="stroke:#000000;stroke-miterlimit:10;" width="20.662" height="17.218"/>
	<rect x="155.463" y="109.647" style="stroke:#000000;stroke-miterlimit:10;" width="8.609" height="17.218"/>
	<rect x="157.185" y="192.294" style="stroke:#000000;stroke-miterlimit:10;" width="29.271" height="8.609"/>
	<rect x="76.26" y="192.294" style="stroke:#000000;stroke-miterlimit:10;" width="29.271" height="8.609"/>
	<rect x="196.786" y="97.594" style="stroke:#000000;stroke-miterlimit:10;" width="29.271" height="8.609"/>
</g>
</svg>
