<?xml version="1.0" encoding="utf-8"?>
<!-- Generator: Adobe Illustrator 22.1.0, SVG Export Plug-In . SVG Version: 6.00 Build 0)  -->
<svg version="1.1" id="图层_1" xmlns="http://www.w3.org/2000/svg" xmlns:xlink="http://www.w3.org/1999/xlink" x="0px" y="0px"
	 viewBox="0 0 750 500" style="enable-background:new 0 0 750 500;" xml:space="preserve">
<style type="text/css">
	.st0{fill:#E0E0E0;}
	.st1{fill:#EBEBEB;}
	.st2{fill:#263238;}
	.st3{fill:#F5F5F5;}
	.st4{fill:#455A64;}
	.st5{fill:#FFD435;}
	.st6{fill:#23A463;}
	.st7{opacity:0.2;}
	.st8{fill:#DB8A76;}
	.st9{fill:#9A5D53;}
	.st10{fill:#FFFFFF;}
	.st11{fill:#824943;}
	.st12{opacity:0.3;}
	.st13{opacity:0.7;}
</style>
<g id="background-complete">
	<path class="st0" d="M181.8,444.2c1.2-0.1,2.5-0.2,3.7-0.5c2.4-0.7,4.9-0.4,7.1,0.9c4.8,2.8,10.3,4.2,15.9,4.2
		c3.2-0.2,6.3-0.7,9.4-1.7c2.2-0.6,2.4-2.2,0.5-3.5c-1.4-1-2.9-1.7-4.6-2.3c-5.1-2-10.7-2.3-16-0.9c-4.1,1.2-8.4,1.2-11.3-3.1
		c-0.5-0.7-1.6-0.9-2.4-1.4l-0.5,0.6l2.2,4.4l-4.3,2.2L181.8,444.2z"/>
	<path class="st0" d="M208.9,461.3c0.4,0.8,0.9,1.5,1.4,2.1c0.1,0.3-4.6,1.8-3.4,3.2c1.8-0.2,3.2-0.5,4.6-0.5c1.3-0.1,2.7-0.1,4.1,0
		c3.2,0.4,6.4,1.4,9.6,1.5c6.2,0.1,12.5-0.8,18.4-2.8c2.8-0.7,5.4-2.1,7.5-4c1.1-1.1,1.1-1.8-0.2-2.5c-1.1-0.6-2.3-1-3.5-1.2
		c-4.5-0.8-9.2-1-13.8-0.4c-4.1,0.3-8.1,1.7-11.6,3.9c-3.4,2.2-7.9,1.8-10.9-0.9c-0.8-0.7-1.6-1.7-2.8-1
		C207,459.4,208.7,460.3,208.9,461.3z"/>
	<path class="st0" d="M247.3,442.1c0.2,0.5,0.6,0.9,0.9,1.4c0,0.2-2.9,1.2-2.1,2c1.1-0.1,2-0.3,2.9-0.4c0.9-0.1,1.7-0.1,2.6,0
		c2,0.3,4.1,0.9,6.1,1c4,0.1,7.9-0.5,11.7-1.8c1.8-0.5,3.4-1.3,4.8-2.6c0.7-0.7,0.7-1.1-0.1-1.6c-0.7-0.4-1.5-0.6-2.2-0.8
		c-2.9-0.5-5.8-0.6-8.7-0.2c-2.6,0.2-5.2,1.1-7.4,2.5c-2.2,1.4-5,1.1-6.9-0.6c-0.5-0.4-1-1.1-1.8-0.6S247.1,441.5,247.3,442.1z"/>
	<path class="st1" d="M710.8,64.6c0.9-6.7-8.6-12.2-15.7-12.8c-3.4-0.3-6.9,0.3-10.2-0.9c-7-2.4-9.8-11.4-16.6-14.3
		c-5.1-2.2-11-0.2-15.9,2.3s-9.8,5.6-15.3,6c-4.8,0.3-10-1.5-14.2,0.9c-3.1,1.7-4.8,5.3-7.6,7.5s-6.5,2.5-10,2.7s-7.1,0.2-10.3,1.7
		s-5.8,4.8-5.2,8.3L710.8,64.6z"/>
	<path class="st2" d="M511.6,344.9c0,0.1-102.1,0.3-228.1,0.3S55.4,345,55.4,344.9s102.1-0.3,228.1-0.3S511.6,344.7,511.6,344.9z"/>
	<path class="st1" d="M724.8,288.8c-35,7.4-122.3,13-158,11.7c-27.4-1-40.2,0.6-67.6-0.5c-21.9-0.8-58.4-1.3-80.2-3.2
		c-30.4-2.6-54.8-9.7-87.9-20.7c-18-6-36.2-15.5-52.8-24.8c-11.8-6.7-24.1-12.7-36-19.1c-64.3-34.5-122.5-41.8-182.4-30.9l-48.6,4.4
		V345l676.2-1L724.8,288.8z"/>
	<path class="st3" d="M460.3,157.5c0.7-4.8-6.1-8.7-11.1-9.1c-2.4-0.2-4.9,0.2-7.2-0.6c-4.9-1.7-6.9-8.1-11.8-10.2
		c-3.6-1.5-7.8-0.2-11.3,1.6s-7,4-10.9,4.2c-3.4,0.2-7.1-1-10.1,0.6c-2.2,1.2-3.4,3.8-5.4,5.3s-4.6,1.8-7.1,1.9s-5,0.2-7.3,1.2
		s-4.1,3.4-3.7,5.9L460.3,157.5z"/>
	<path class="st3" d="M671.4,192.7c0.7-4.8-6.1-8.7-11.2-9.1c-2.4-0.2-4.9,0.2-7.2-0.6c-5-1.7-6.9-8.1-11.8-10.2
		c-3.6-1.5-7.8-0.2-11.3,1.6s-7,4-10.9,4.2c-3.4,0.2-7.1-1-10.1,0.6c-2.2,1.2-3.4,3.8-5.4,5.3s-4.6,1.8-7.1,1.9s-5.1,0.2-7.3,1.2
		s-4.1,3.4-3.7,5.9L671.4,192.7z"/>
	<path class="st3" d="M116.9,60.1c0.7-4.8-6.1-8.7-11.1-9.1c-2.4-0.2-4.9,0.2-7.2-0.6c-5-1.7-6.9-8.1-11.8-10.2
		c-3.6-1.5-7.8-0.2-11.3,1.6s-7,4-10.9,4.2c-3.4,0.2-7.1-1-10.1,0.6c-2.2,1.2-3.4,3.8-5.4,5.3s-4.6,1.8-7.1,1.9s-5.1,0.2-7.3,1.2
		S30.6,58.5,31,61L116.9,60.1z"/>
	<polygon class="st1" points="186.5,217.7 198.9,166 218.2,214 212.5,212.3 226.5,241 218.5,238.3 228.2,249.3 184.9,249.3 
		188.5,239.7 184.9,244.7 192.9,214.4 	"/>
	<polygon class="st1" points="218.3,226.3 228.1,185.4 243.4,223.4 238.9,222.1 250,244.8 243.6,242.7 251.3,251.4 217,251.4 
		219.9,243.8 217,247.7 223.3,223.8 	"/>
	<polygon class="st1" points="52.4,179.5 69.4,108.3 96,174.5 88.2,172.2 107.5,211.7 96.5,208 109.8,233.7 50.1,233.7 55.2,209.8 
		50.1,216.7 61.2,175.1 	"/>
	<polygon class="st1" points="13.8,166.9 30.8,95.7 57.5,161.8 49.7,159.5 68.9,199 57.9,195.4 71.2,221.1 11.5,221.1 16.6,197.2 
		11.5,204.1 22.6,162.4 	"/>
	<polygon class="st1" points="140.7,179.5 157.7,108.3 184.3,174.5 176.5,172.2 195.8,211.7 184.8,208 198.1,233.7 138.4,233.7 
		143.4,209.8 138.4,216.7 149.4,175.1 	"/>
	<polygon class="st1" points="254,245.3 260.8,216.9 271.5,243.3 268.3,242.4 276,258.1 271.6,256.6 277,266.9 253.1,266.9 
		255.1,257.4 253.1,260.1 257.5,243.5 	"/>
	<polygon class="st1" points="354.6,272.4 365.6,226.1 383,269.1 377.9,267.6 390.4,293.4 383.3,291 391.9,307.7 353.1,307.7 
		356.4,292.2 353.1,296.6 360.3,269.5 	"/>
	<polygon class="st1" points="332.8,272.7 339.6,244.3 350.2,270.7 347.1,269.8 354.8,285.6 350.4,284.1 355.7,294.4 331.9,294.4 
		333.9,284.8 331.9,287.6 336.3,271 	"/>
	<polygon class="st1" points="101.3,186.4 114.5,131 135.2,182.5 129.2,180.7 144.2,211.5 135.6,208.6 146,228.6 99.5,228.6 
		103.4,210 99.5,215.4 108.1,182.9 	"/>
</g>
<g id="background-simple">
	<path class="st3" d="M325,267.8l0.7-2.7c6.2-22.6-0.2-46.8-17.2-62.6c-2.2-2-4.5-3.9-7-5.6c-17.8-12.2-41.9-14.5-61.9-6
		c-11.8,5-22.7,13.6-35.4,14c-16.6,0.5-29.7-12.8-40.7-25.1s-24.2-25.6-40.7-25c-10.4,0.4-19.9,6.4-27.1,14
		c-19,20.1-23.7,51-15.8,77.2s27,47.9,49.3,63.6c31.3,22,70.9,33.6,109,27.1S311.7,304.1,325,267.8z"/>
	<circle class="st3" cx="408.5" cy="159.3" r="34.2"/>
</g>
<g id="Plants">
	<path class="st4" d="M139.2,234.6c0,0,0,0.2-0.1,0.6s-0.2,0.9-0.4,1.6c-0.4,1.4-0.8,3.6-1.4,6.3s-1.2,6.1-1.9,10s-1.2,8.4-1.8,13.4
		c-1,10-2.4,21.8-4,35s-3.5,27.6-5.5,42.8c-4,30.3-7.3,57.8-9.3,77.7c-1,10-1.6,18-2.1,23.6c-0.2,2.8-0.4,4.9-0.5,6.4
		c-0.1,0.7-0.1,1.3-0.1,1.7s-0.1,0.6-0.1,0.6s0-0.2,0-0.6s0-1,0.1-1.7c0.1-1.5,0.2-3.7,0.4-6.5c0.4-5.6,1-13.7,1.9-23.6
		c1.8-20,5.1-47.5,9.1-77.8c2-15.2,4.1-29.6,5.5-42.7s3-25,4.1-35c0.6-5,1.2-9.5,1.9-13.4s1.4-7.3,2-10s1.1-4.9,1.5-6.3
		c0.2-0.7,0.3-1.2,0.4-1.6S139.2,234.6,139.2,234.6z"/>
	<path class="st4" d="M173.2,250.3c-0.1,0.2-0.2,0.4-0.3,0.6l-1,1.8c-0.9,1.6-2.3,3.8-4,6.5c-4.7,7-9.8,13.7-15.4,20
		c-6.5,7.5-12.6,13.9-17,18.6l-5.3,5.5l-1.4,1.5c-0.2,0.2-0.3,0.3-0.5,0.5c0.1-0.2,0.3-0.4,0.4-0.6l1.4-1.6l5.1-5.6
		c4.4-4.8,10.5-11.3,16.9-18.7c5.5-6.3,10.7-12.9,15.5-19.9c1.8-2.7,3.2-4.9,4.2-6.4l1.1-1.8C172.9,250.7,173,250.5,173.2,250.3z"/>
	<path class="st4" d="M160.3,269.3c-0.4-0.5-1.5-0.5,0.5-4.5s13.3-16.1,13.3-16.1s-4.3,10-6.8,13.7
		C163.1,268.6,160.3,269.3,160.3,269.3z"/>
	<path class="st4" d="M153.8,278.3c-0.1-0.6-0.4,0.2,1-1.7c2.6-3.7,21.4-11.9,21.4-11.9s-8.6,7.5-12.7,9.9
		C156.6,278.8,153.8,278.3,153.8,278.3z"/>
	<path class="st4" d="M145.5,287c0-0.5-0.3,0.2,1-1.3c2.5-2.8,18.9-7.8,18.9-7.8s-7.9,5.3-11.6,7C147.8,287.6,145.5,287,145.5,287z"
		/>
	<path class="st4" d="M138.4,294.4c0-0.4-0.3,0.1,0.9-1c2.3-2,16.1-4.2,16.1-4.2c-3.3,1.6-6.6,3.1-10.1,4.4
		C140.2,295.2,138.4,294.4,138.4,294.4z"/>
	<path class="st4" d="M142.3,290.2c-0.4-0.2,0,0.3-0.5-1.3c-0.8-3,2.9-16.4,2.9-16.4c0.1,3.7,0,7.3-0.3,11
		C143.7,289,142.3,290.2,142.3,290.2z"/>
	<path class="st4" d="M108.7,259.1c0.1,0.2,0.1,0.4,0.1,0.7c0.1,0.5,0.2,1.1,0.3,2c0.2,1.7,0.6,4.1,1.2,7.2c1.6,7.8,3.6,15.6,6,23.2
		c2.8,9,5.6,17,7.6,22.8c1,2.9,1.8,5.2,2.3,6.9c0.3,0.8,0.5,1.4,0.6,1.9c0.1,0.2,0.1,0.4,0.2,0.7c-0.1-0.2-0.2-0.4-0.3-0.6l-0.7-1.8
		c-0.6-1.7-1.5-4-2.5-6.8c-2.1-5.8-5-13.8-7.8-22.7c-2.4-7.7-4.4-15.5-5.8-23.4c-0.5-3-0.8-5.5-1-7.2c-0.1-0.8-0.1-1.5-0.2-2
		C108.8,259.6,108.7,259.3,108.7,259.1z"/>
	<path class="st4" d="M112.7,280.5c0.6-0.3,1.5,0.1,1.3-4.1s-5.5-19.1-5.5-19.1s-0.1,10.3,0.7,14.5
		C110.5,279,112.7,280.5,112.7,280.5z"/>
	<path class="st4" d="M115,291c0.3-0.5,0.2,0.4-0.2-1.9c-0.8-4.2-14.2-18.5-14.2-18.5s4.7,9.8,7.3,13.5C112.3,290.3,115,291,115,291
		z"/>
	<path class="st4" d="M118.9,301.7c0.2-0.5,0.2,0.3-0.4-1.5c-1.1-3.4-13.6-14-13.6-14s4.9,7.7,7.5,10.5
		C116.7,301.4,118.9,301.7,118.9,301.7z"/>
	<path class="st4" d="M122.3,310.8c0.1-0.4,0.2,0.2-0.5-1.2c-1.3-2.6-12.5-9.8-12.5-9.8c2.2,2.7,4.6,5.2,7.2,7.7
		C120.4,310.8,122.3,310.8,122.3,310.8z"/>
	<path class="st4" d="M120.5,305.7c0.4-0.1-0.1,0.3,0.9-0.9c1.8-2.3,3.7-15.4,3.7-15.4c-1.5,3.1-2.8,6.4-4,9.7
		C119.7,304.1,120.5,305.7,120.5,305.7z"/>
	<path class="st4" d="M134.6,261.4c-0.3-0.4-0.2,0.3,0.1-1.6c0.5-3.5,11.6-15.2,11.6-15.2s-3.6,8.2-5.8,11.2
		C136.9,260.9,134.6,261.4,134.6,261.4z"/>
	<path class="st4" d="M135.3,253.2c-0.5,0,0.1,0.3-1.3-0.9c-2.8-2.2-7.3-17.7-7.3-17.7s5.2,7.3,6.7,10.6
		C136,251,135.3,253.2,135.3,253.2z"/>
	<path class="st4" d="M136.9,245.1c-0.5-0.3-0.1,0.3-0.5-1.5c-0.8-3.5,5.3-18.4,5.3-18.4s-0.4,8.9-1.3,12.5
		C138.8,243.9,136.9,245.1,136.9,245.1z"/>
	<path class="st4" d="M45.9,271.5c0,0,0,0.2,0,0.5v1.4c0,1.2,0,3,0,5.4c0.1,6.6,0.6,13.1,1.4,19.6c1,8.2,2.1,18.1,3.3,29
		s2.3,23,3.5,35.6c2.3,25.3,4.8,48.1,6.9,64.6c1,8.3,2,14.9,2.7,19.5c0.3,2.3,0.6,4.1,0.8,5.3c0.1,0.6,0.2,1,0.2,1.4s0,0.5,0,0.5
		s0-0.2-0.1-0.5s-0.1-0.8-0.3-1.4l-0.9-5.3c-0.7-4.6-1.8-11.2-2.8-19.5c-2.2-16.5-4.7-39.4-7-64.6c-1.2-12.6-2.2-24.7-3.4-35.6
		s-2.1-20.8-3.1-29c-0.8-6.5-1.2-13.1-1.2-19.7c0-2.3,0-4.1,0.1-5.4l0.1-1.4C45.9,271.7,45.9,271.5,45.9,271.5z"/>
	<path class="st4" d="M25.8,297c0.1,0.2,0.2,0.3,0.3,0.5c0.1,0.4,0.4,0.9,0.6,1.5c0.5,1.3,1.3,3.2,2.3,5.6c2.7,6.1,5.8,12,9.1,17.7
		c3.9,6.7,7.7,12.7,10.4,17l3.2,5.1c0.3,0.6,0.6,1,0.8,1.4c0.1,0.2,0.2,0.3,0.3,0.5c-0.1-0.1-0.3-0.3-0.3-0.5l-0.9-1.4l-3.3-5.1
		c-2.8-4.3-6.6-10.2-10.5-17c-3.4-5.7-6.4-11.7-9-17.8c-1-2.4-1.7-4.3-2.2-5.6c-0.2-0.6-0.4-1.1-0.5-1.6
		C25.9,297.4,25.9,297.2,25.8,297z"/>
	<path class="st4" d="M33,313.6c0.4-0.4,1.3-0.2,0.3-3.5s-8-14.5-8-14.5s1.9,8.4,3.3,11.6C31,312.7,33,313.6,33,313.6z"/>
	<path class="st4" d="M36.8,321.6c0.2-0.5,0.3,0.2-0.5-1.5c-1.4-3.3-14.9-12.4-14.9-12.4s5.6,7.1,8.4,9.6
		C34.5,321.5,36.8,321.6,36.8,321.6z"/>
	<path class="st4" d="M41.9,329.5c0.1-0.4,0.2,0.2-0.6-1.2c-1.5-2.5-13.6-8.8-13.6-8.8c2.5,2.5,5.2,4.9,8,7.1
		C40.1,329.7,41.9,329.5,41.9,329.5z"/>
	<path class="st4" d="M46.3,336.4c0-0.3,0.2,0.1-0.6-0.9c-1.5-1.9-11.9-5.6-11.9-5.6c2.3,1.7,4.7,3.4,7.2,4.9
		C44.9,336.7,46.3,336.4,46.3,336.4z"/>
	<path class="st4" d="M44,332.5c0.3-0.1,0,0.2,0.6-0.9c1.1-2.2,0.2-13.1,0.2-13.1c-0.7,2.8-1.1,5.7-1.5,8.5
		C43,331.3,44,332.5,44,332.5z"/>
	<path class="st4" d="M47.2,294c-0.3-0.3-0.1,0.3-0.2-1.3c-0.3-3,6.5-14.5,6.5-14.5c-0.7,3.4-1.5,6.8-2.6,10.1
		C49,293.2,47.2,294,47.2,294z"/>
	<path class="st4" d="M46.2,287.3c-0.4,0.1,0.2,0.2-1.2-0.5c-2.7-1.3-9.2-13-9.2-13c2.6,2.3,5.1,4.8,7.4,7.4
		C46.4,285.4,46.2,287.3,46.2,287.3z"/>
	<path class="st4" d="M46,280.5c-0.4-0.1,0,0.3-0.7-1.1c-1.3-2.7,0.9-15.8,0.9-15.8c0.6,3.4,1,6.9,1.2,10.4
		C47.3,279.1,46,280.5,46,280.5z"/>
	<path class="st4" d="M90.1,328.2c0,0.1,0,0.2,0.1,0.3l0.1,0.9c0.1,0.8,0.2,2,0.4,3.6c0.3,3.2,0.7,7.8,0.7,13.4c0,2.8,0,6-0.1,9.3
		s-0.3,6.9-0.3,10.6c-0.2,7.5-0.3,15.7-0.5,24.4c-0.3,17.3-0.5,32.9-0.6,44.3c-0.1,5.6-0.2,10.2-0.3,13.4c0,1.6-0.1,2.8-0.1,3.6
		c0,0.4,0,0.7,0,1c0,0.1,0,0.2,0,0.3c0-0.1,0-0.2,0-0.3v-1v-3.6c0-3.2,0-7.8,0.1-13.4c0.1-11.4,0.3-27,0.5-44.3
		c0.2-8.6,0.4-16.9,0.6-24.4c0.1-3.7,0.2-7.3,0.3-10.6s0.2-6.4,0.2-9.3c0-5.7-0.3-10.2-0.5-13.4c-0.1-1.5-0.2-2.8-0.3-3.6
		c0-0.4-0.1-0.7-0.1-0.9C90.2,328.4,90.1,328.3,90.1,328.2z"/>
	<path class="st4" d="M61.8,336.7c0.1,0.2,0.2,0.3,0.3,0.5c0.2,0.4,0.4,0.9,0.7,1.5c0.6,1.3,1.4,3.2,2.6,5.5
		c3,5.9,6.3,11.7,9.9,17.2c4.2,6.5,8.3,12.3,11.1,16.5l3.4,5l0.9,1.4c0.1,0.2,0.2,0.3,0.3,0.5c-0.1-0.1-0.3-0.3-0.4-0.4l-1-1.3
		c-0.9-1.2-2.1-2.9-3.5-4.9c-3-4.2-7.1-9.9-11.3-16.4c-3.6-5.6-6.9-11.4-9.7-17.3c-1.1-2.3-1.9-4.2-2.4-5.5l-0.6-1.5
		C61.9,337.1,61.8,336.9,61.8,336.7z"/>
	<path class="st4" d="M69.7,352.9c0.4-0.4,1.2-0.3,0.1-3.5s-8.6-14.1-8.6-14.1s2.2,8.3,3.8,11.5C67.7,352.1,69.7,352.9,69.7,352.9z"
		/>
	<path class="st4" d="M73.8,360.8c0.2-0.5,0.3,0.2-0.6-1.5c-1.6-3.2-15.4-11.7-15.4-11.7s5.9,6.8,8.8,9.2
		C71.6,360.8,73.8,360.8,73.8,360.8z"/>
	<path class="st4" d="M79.4,368.4c0.1-0.4,0.2,0.2-0.6-1.1c-1.7-2.5-13.9-8.1-13.9-8.1c2.6,2.4,5.4,4.6,8.3,6.7
		C77.5,368.7,79.4,368.4,79.4,368.4z"/>
	<path class="st4" d="M84.1,375c0-0.3,0.2,0.1-0.6-0.9c-1.6-1.8-12.1-5.1-12.1-5.1c2.4,1.6,4.9,3.2,7.4,4.5
		C82.6,375.4,84.1,375,84.1,375z"/>
	<path class="st4" d="M81.5,371.3c0.3-0.1,0,0.2,0.5-0.9c1-2.2-0.5-13.1-0.5-13.1c-0.5,2.9-0.8,5.7-1,8.6
		C80.6,370.2,81.5,371.3,81.5,371.3z"/>
	<path class="st4" d="M111.2,350.7c0,0.2,0,0.4-0.1,0.5c-0.1,0.4-0.2,0.9-0.3,1.5c-0.3,1.3-0.8,3.2-1.6,5.5c-2,6-4.4,11.9-7.1,17.6
		c-3.2,6.7-6.3,12.6-8.6,16.9l-2.7,5.1l-0.8,1.4c-0.1,0.2-0.2,0.3-0.3,0.5c0-0.2,0.1-0.4,0.2-0.5c0.2-0.4,0.4-0.8,0.7-1.4l2.6-5.1
		c2.2-4.3,5.3-10.3,8.5-17c2.7-5.7,5.2-11.5,7.2-17.5c0.8-2.3,1.4-4.2,1.7-5.5l0.4-1.5C111.1,351.1,111.1,350.9,111.2,350.7z"/>
	<path class="st4" d="M105.7,367c-0.4-0.3-1.2-0.1-0.5-3.3s6.4-14.3,6.4-14.3s-1.1,8.1-2.2,11.3C107.6,366,105.7,367,105.7,367z"/>
	<path class="st4" d="M102.8,374.9c-0.2-0.4-0.2,0.3,0.4-1.4c1.1-3.2,13.2-12.9,13.2-12.9s-4.8,7.1-7.2,9.7
		C104.9,374.7,102.8,374.9,102.8,374.9z"/>
	<path class="st4" d="M98.5,382.9c-0.1-0.4-0.2,0.2,0.5-1.1c1.3-2.5,12.2-9.4,12.2-9.4c-2.2,2.6-4.5,5-7,7.3
		C100.3,382.9,98.5,382.9,98.5,382.9z"/>
	<path class="st4" d="M94.9,389.6c-0.1-0.3-0.2,0.1,0.5-0.9c1.3-1.9,10.8-6.3,10.8-6.3c-2.1,1.8-4.2,3.6-6.4,5.2
		C96.3,389.8,94.9,389.6,94.9,389.6z"/>
	<path class="st4" d="M96.9,385.8c-0.3-0.1,0,0.2-0.6-0.8c-1.2-2-1.2-12.4-1.2-12.4c0.8,2.6,1.5,5.3,2,8
		C97.6,384.6,96.9,385.8,96.9,385.8z"/>
	<path class="st4" d="M90.7,349.6c0.3-0.3,0.1,0.2,0.1-1.2c0-2.8-7.3-13.2-7.3-13.2c0.9,3.2,2,6.3,3.3,9.4
		C89,349,90.7,349.6,90.7,349.6z"/>
	<path class="st4" d="M91.1,343.1c0.4,0.1-0.2,0.2,1.1-0.5c2.4-1.4,7.6-13,7.6-13c-2.3,2.4-4.5,4.9-6.4,7.6
		C90.8,341.3,91.1,343.1,91.1,343.1z"/>
	<path class="st4" d="M90.8,336.7c0.4-0.2,0,0.3,0.6-1.1c1-2.6-2.1-15-2.1-15c-0.3,3.3-0.4,6.6-0.3,9.9
		C89.4,335.5,90.8,336.7,90.8,336.7z"/>
	<path class="st4" d="M17.3,420.1h12.8l10.9,55.6v-53.2l12.8,1.9v46.6l13.8-43.2l21.8,3.3l-3.8,40.9l12.4-38.5c0,0,9.5,0,9,1.4
		s-3.8,33.3-3.8,33.3l14.7-30.9l9.5,6.2l-8.1,29.4l18.1-24.9l5.2,4.5l-10.4,20.4l13.8-9.5l8.1,3.8v11H14.5v-58"/>
</g>
<g id="Sun">
	
		<ellipse transform="matrix(0.1594 -0.9872 0.9872 0.1594 304.6331 501.305)" class="st5" cx="446.7" cy="71.8" rx="16.7" ry="16.7"/>
	<path class="st5" d="M446.7,88.5c-9.2,0-16.6-7.5-16.6-16.7c0-9.2,7.5-16.6,16.7-16.6c9.2,0,16.6,7.5,16.6,16.7
		c0,6.7-4,12.7-10.2,15.3C451.1,88.1,448.9,88.5,446.7,88.5z"/>
	<path class="st5" d="M444.3,109.1c-0.1,0-0.2-3.1-0.2-6.9s0.1-6.9,0.2-6.9c0.2,2.3,0.2,4.6,0.2,6.9
		C444.5,104.5,444.5,106.8,444.3,109.1z"/>
	<path class="st5" d="M444.3,109.2c0,0-0.1,0-0.1-2c0-1.3,0-3,0-4.9s0-3.6,0-4.9c0-2,0.1-2,0.1-2s0.1,0,0.1,2c0,1.3,0,3,0,4.9
		s0,3.6,0,4.9C444.4,109.2,444.3,109.2,444.3,109.2z M444.3,95.4c-0.1,0.3-0.1,2.9-0.1,6.9s0.1,6.6,0.1,6.9c0.1-0.3,0.2-2.9,0.2-6.9
		S444.4,95.6,444.3,95.4z"/>
	<path class="st5" d="M434.7,91.5c-1.1,2.2-2.2,4.3-3.5,6.4c-2,3.5-3.7,6.3-3.8,6.3c1.1-2.2,2.2-4.3,3.5-6.4
		C432.9,94.2,434.6,91.4,434.7,91.5z"/>
	<path class="st5" d="M427.3,104.2L427.3,104.2c0,0-0.1,0,1-1.9c0.7-1.2,1.6-2.8,2.5-4.5s1.9-3.3,2.6-4.5c1-1.7,1.1-1.8,1.2-1.8l0,0
		c0,0,0.1,0-1,1.9c-0.7,1.2-1.6,2.8-2.5,4.5C429.4,100.9,427.5,104.1,427.3,104.2L427.3,104.2z M434.6,91.5
		c-0.2,0.2-1.7,2.6-3.8,6.2s-3.4,6.1-3.5,6.4c0.2-0.2,1.7-2.6,3.8-6.2S434.6,91.8,434.6,91.5z"/>
	<path class="st5" d="M424.8,85.3c-1.2,1.2-2.5,2.3-3.9,3.3c-1.3,1.1-2.7,2.1-4.1,3c1.2-1.2,2.5-2.3,3.9-3.3
		C422,87.2,423.3,86.2,424.8,85.3z"/>
	<path class="st5" d="M416.8,91.7L416.8,91.7c0,0-0.1-0.1,1.1-1.1c0.7-0.6,1.7-1.4,2.8-2.3c1.3-1.1,2.7-2.1,4.1-3l0,0l0,0l0,0
		c-1.2,1.2-2.5,2.3-3.9,3.3c-1.1,0.8-2.1,1.6-2.9,2.2C417.6,91.2,417.2,91.5,416.8,91.7z M424.8,85.3c-1.4,0.9-2.8,1.9-4.1,3
		c-1.4,1-2.7,2.1-3.9,3.3c1.4-0.9,2.8-2,4.1-3.1C422.2,87.6,423.5,86.5,424.8,85.3z"/>
	<path class="st5" d="M461,102.3c-0.2-0.5-0.3-1.1-0.4-1.7c-0.2-1.1-0.6-2.5-1-4.1s-0.9-3-1.2-4c-0.2-0.5-0.4-1.1-0.5-1.7
		c0.3,0.5,0.5,1.1,0.7,1.6c0.4,1,0.9,2.4,1.3,4s0.7,3.1,0.9,4.1C460.9,101.2,461,101.8,461,102.3z"/>
	<path class="st5" d="M461,102.4c-0.1,0-0.1-0.3-0.5-1.7c-0.2-1-0.6-2.5-1-4.1s-0.9-3.1-1.2-4l0,0c-0.4-1.4-0.5-1.7-0.5-1.7
		s0,0,0.3,0.4s0.3,0.7,0.5,1.2c0.3,0.7,0.8,2.1,1.3,4s0.8,3.4,0.9,4.1C461,101.2,461,101.8,461,102.4L461,102.4z M457.9,90.9
		c0.1,0.6,0.3,1.1,0.5,1.6l0,0c0.3,0.9,0.7,2.4,1.2,4s0.8,3.1,1,4.1c0.1,0.6,0.3,1.1,0.4,1.7c0-0.6-0.1-1.1-0.2-1.7
		c-0.1-0.7-0.4-2.2-0.9-4.1s-1-3.3-1.3-4C458.4,91.9,458.2,91.4,457.9,90.9L457.9,90.9z"/>
	<path class="st5" d="M477.9,90.3c-1.7-1.3-3.4-2.6-4.9-4.1c-1.6-1.4-3.2-2.8-4.7-4.3c1.7,1.3,3.4,2.7,4.9,4.1
		C474.9,87.4,476.4,88.8,477.9,90.3z"/>
	<path class="st5" d="M477.9,90.3c-1.7-1.3-3.3-2.6-4.9-4.1c-1.3-1.1-2.5-2.2-3.4-3c-1.4-1.3-1.4-1.3-1.3-1.3l0,0
		c0.2,0,2.7,2.1,4.9,4.1c1.3,1.1,2.5,2.2,3.4,3C478,90.3,478,90.3,477.9,90.3L477.9,90.3L477.9,90.3z M468.3,81.9
		c0.1,0.2,1.9,1.9,4.7,4.3s4.7,4,4.9,4.1c-0.1-0.2-1.9-1.9-4.7-4.3S468.5,82,468.3,81.9z"/>
	<path class="st5" d="M484.4,73.8c-0.7,0-1.3-0.1-2-0.3c-1.2-0.2-3-0.5-4.9-0.7s-3.6-0.3-4.9-0.4c-0.7,0-1.3-0.1-2-0.2
		c0.7-0.1,1.3-0.1,2-0.1c1.3,0,3,0.1,4.9,0.3s3.6,0.5,4.9,0.8C483.1,73.4,483.8,73.6,484.4,73.8z"/>
	<path class="st5" d="M484.4,73.8c-0.1,0-0.5-0.1-1.6-0.2l-0.4-0.1c-1.7-0.3-3.3-0.5-4.9-0.7s-3.2-0.3-4.9-0.4h-0.4
		c-1.4-0.1-1.6-0.1-1.6-0.2l0,0c0.7-0.1,1.3-0.1,2-0.1c1.6,0,3.3,0.1,4.9,0.3c2.3,0.3,4,0.6,4.9,0.8
		C483.1,73.4,483.8,73.6,484.4,73.8L484.4,73.8L484.4,73.8C484.4,73.8,484.4,73.8,484.4,73.8z M470.7,72.2c0.1,0,0.8,0.1,1.6,0.1
		h0.4c1.7,0.1,3.4,0.3,4.9,0.4s3.1,0.4,4.9,0.7l0.4,0.1c0.8,0.1,1.4,0.2,1.6,0.2l0,0c-0.6-0.2-1.3-0.4-1.9-0.5
		c-3.2-0.7-6.5-1.1-9.8-1.1C472,72.1,471.3,72.1,470.7,72.2z"/>
	<path class="st5" d="M484.4,57.5c0,0.1-3.6,1.1-8.1,2.2s-8.1,1.9-8.2,1.8s3.6-1.1,8.1-2.2S484.4,57.4,484.4,57.5z"/>
	<path class="st5" d="M468.2,61.5L468.2,61.5c0,0,0-0.1,2.3-0.7c1.5-0.4,3.6-0.9,5.7-1.5s4.2-1,5.8-1.3c2.4-0.5,2.4-0.5,2.4-0.5l0,0
		c0,0,0,0.1-2.4,0.7c-1.5,0.4-3.6,0.9-5.7,1.4s-4.2,1-5.8,1.3C469.8,61.3,469,61.4,468.2,61.5z M484.4,57.5c-0.3,0-3.4,0.7-8.1,1.8
		s-7.8,2-8,2.1c0.3,0,3.4-0.7,8.1-1.8S484.1,57.7,484.4,57.5L484.4,57.5z"/>
	<path class="st5" d="M465.5,38.6c0.1,0-1.6,2.8-3.9,6.2s-4.1,6-4.2,6s1.6-2.8,3.9-6.2S465.5,38.5,465.5,38.6z"/>
	<path class="st5" d="M457.5,50.8L457.5,50.8c0-0.2,2-3.3,3.9-6.2c1.1-1.6,2.1-3.1,2.9-4.3c1.2-1.7,1.3-1.7,1.3-1.7l0,0
		c0,0,0.1,0-1.1,1.9c-0.7,1.2-1.7,2.7-2.8,4.3s-2.1,3.1-2.9,4.3C457.7,50.6,457.6,50.8,457.5,50.8z M465.5,38.6
		c-0.2,0.2-1.8,2.4-4.1,6s-3.8,5.9-3.9,6.1c0.2-0.2,1.8-2.4,4.1-6S465.4,38.9,465.5,38.6L465.5,38.6z"/>
	<path class="st5" d="M446.8,34.6c0.1,0.8,0.1,1.5,0,2.3c0,1.4,0,3.4,0,5.5s0,4.1,0.1,5.5c0.1,0.8,0.1,1.5,0,2.3
		c-0.1-0.8-0.2-1.5-0.2-2.3c-0.1-1.4-0.2-3.4-0.2-5.5s0.1-4.1,0.1-5.5C446.6,36.2,446.7,35.4,446.8,34.6z"/>
	<path class="st5" d="M446.8,50.3c0,0,0,0-0.1-0.6c0-0.4-0.1-1-0.1-1.7c-0.1-1-0.2-2.9-0.2-5.5s0.1-4.6,0.1-5.5
		c0-0.7,0.1-1.3,0.1-1.7c0.1-0.6,0.1-0.6,0.1-0.6l0,0c0,0,0.1,0.2,0,2.3c0,1.3,0,3.3,0,5.5s0,4,0.1,5.4V48
		C446.8,50.1,446.8,50.3,446.8,50.3L446.8,50.3z M446.8,34.7c0,0.2-0.1,0.9-0.2,2.3c-0.1,1-0.1,2.9-0.1,5.5s0.1,4.6,0.2,5.5
		c0,0.8,0.1,1.5,0.2,2.3c0-0.2,0-1.4,0-2.3v-0.1c0-1.4,0-3.3,0-5.4s0-4.2,0-5.5C446.8,36.1,446.8,34.9,446.8,34.7L446.8,34.7z"/>
	<path class="st5" d="M432.6,52.3c-0.1,0-1.8-2.7-3.9-6.1S425,40,425,39.9s1.8,2.7,3.9,6.1S432.7,52.3,432.6,52.3z"/>
	<path class="st5" d="M432.6,52.3c0,0-0.2-0.1-1.2-1.8c-0.7-1.2-1.7-2.7-2.7-4.3c-1.8-2.9-3.7-6.1-3.6-6.3l0,0c0,0,0.1,0,1.2,1.8
		c0.7,1.1,1.7,2.7,2.7,4.3s1.9,3.2,2.6,4.4C432.7,52.3,432.6,52.3,432.6,52.3L432.6,52.3L432.6,52.3z M425.1,40
		c0.1,0.3,1.4,2.7,3.6,6.2s3.7,5.9,3.9,6.1c-0.1-0.3-1.4-2.7-3.6-6.2S425.3,40.2,425.1,40z"/>
	<path class="st5" d="M424.1,59.5c-0.6,0-1.2-0.1-1.8-0.3c-1.1-0.2-2.6-0.6-4.2-1.1s-3.1-1-4.1-1.4c-0.6-0.2-1.1-0.4-1.6-0.7
		c0.6,0.1,1.2,0.3,1.7,0.5c1.1,0.3,2.5,0.8,4.1,1.3s3.1,0.9,4.2,1.2C423,59.1,423.6,59.3,424.1,59.5z"/>
	<path class="st5" d="M424.1,59.5c-0.1,0-0.3,0-0.4,0c-0.3,0-0.8-0.1-1.3-0.2c-0.7-0.2-2.3-0.5-4.2-1.1s-3.4-1.1-4.1-1.4
		c-0.5-0.2-0.9-0.4-1.2-0.5c-0.5-0.2-0.5-0.2-0.4-0.3s0.3,0,1.8,0.5c0.8,0.3,2.4,0.8,4.1,1.3c1.5,0.5,3,0.8,4.2,1.2
		C423.9,59.4,424.2,59.5,424.1,59.5L424.1,59.5C424.2,59.6,424.1,59.5,424.1,59.5z M412.4,56.1c0.5,0.3,1.1,0.5,1.6,0.7
		c0.7,0.3,2.2,0.8,4.1,1.4s3.5,0.9,4.2,1.1c0.6,0.1,1.1,0.2,1.7,0.3l0,0c-0.1-0.1-1-0.3-1.7-0.5c-1.2-0.3-2.6-0.7-4.2-1.2
		c-1.7-0.5-3.3-1-4.1-1.3C413.5,56.4,412.6,56.1,412.4,56.1L412.4,56.1z"/>
	<path class="st5" d="M420.4,72.4c-1.8,0.3-3.5,0.6-5.3,0.7c-1.8,0.2-3.6,0.3-5.4,0.3c1.8-0.3,3.5-0.6,5.3-0.7
		C416.8,72.5,418.6,72.4,420.4,72.4z"/>
	<path class="st5" d="M410,73.4c-0.1,0-0.2,0-0.3,0l0,0l0,0c3.5-0.6,7.1-0.9,10.7-1l0,0l0,0c-1.8,0.3-3.5,0.6-5.3,0.7
		C413,73.3,410.8,73.4,410,73.4z M409.7,73.4c1.8,0,3.6-0.1,5.3-0.3c1.8-0.1,3.6-0.4,5.3-0.7c-1.8,0-3.6,0.1-5.3,0.3
		C413.3,72.9,411.5,73.1,409.7,73.4L409.7,73.4z"/>
</g>
<g id="Floor">
	<path class="st2" d="M52.3,478.1c0-0.1,152.1-0.3,339.7-0.3s339.8,0.1,339.8,0.3s-152.1,0.3-339.8,0.3S52.3,478.3,52.3,478.1z"/>
</g>
<g id="seagulls">
	<path class="st2" d="M229.1,113.8c-0.7-0.1-1.5-0.2-2.2-0.5c-1.3-0.3-3.1-0.9-5.1-1.6s-3.8-1.4-5-1.9c-0.7-0.2-1.4-0.6-2-1
		c0.7,0.1,1.4,0.3,2.1,0.7l5,1.8l5.1,1.7C227.8,113.2,228.5,113.5,229.1,113.8z"/>
	<path class="st2" d="M230.9,112c-0.7-0.1-1.5-0.2-2.2-0.5c-1.3-0.4-3.1-0.9-5.1-1.6s-3.8-1.4-5-1.9c-0.7-0.2-1.4-0.6-2-1
		c0.7,0.1,1.4,0.4,2.1,0.7l5,1.8l5.1,1.7C229.6,111.4,230.3,111.7,230.9,112z"/>
	<path class="st0" d="M174.8,94.3c0,0,3.3-3.5,6-3.9s24.6,3.2,24.6,3.2l35.4,13.4c0,0-2.2,3.5-8,2.4s-12.3-3-12.3-3
		c-3.5,2.1-7.6,3.2-11.6,3.2c-6.6-0.1-14.9-1.6-19.8-6.8s-10.8-1.8-12-6.2C176.7,95.3,175.9,94.5,174.8,94.3z"/>
	<path class="st0" d="M261.4,55.3c-2.2,3.1-4.7,6-7.4,8.8c-0.7,0.9-1.8,1.5-2.9,1.7c3.6-4.6,6.4-9.8,8-15.4c-1.1,1.7-2.3,3.4-3.6,5
		c-0.9,1.2-1.9,2.4-3,3.5c-3,2.7-6.3,5.1-9.8,7.1c-2.6,1.7-5.3,3.3-8.1,4.6c-5.8,2.4-6.1,2.1-12.3,4.1c-1.9,0.6-5.5,1.4-7,2.7
		c-0.7,0.7-1.4,1.5-1.9,2.3c-4.9,6.7-11.3,12.1-18.6,15.8l11.4,5.6c5.1,0.7,10.2-0.6,14.4-3.5c4.1-3,7.6-6.8,10-11.3
		c0.5-1.1,1.3-2.1,2.3-2.9c0.9-0.5,1.9-0.8,2.9-1c1.7-0.5,3.2-1.4,4.4-2.7c-1.1,0.4-2.3,0.5-3.5,0.1c3.6-1.4,7.1-2.9,10.6-4.7
		c3.2-1.7,6.4-3.6,8.4-6.6c-1.3,1.1-2.9,1.8-4.6,2.1C255.9,66.8,259.5,61.4,261.4,55.3z"/>
	<path class="st2" d="M180.5,93.2c-0.2-0.1-0.5-0.1-0.7,0c-0.2,0.2-0.3,0.4-0.4,0.7c-0.1,0.5,0.2,1,0.7,1.2c0.5,0.2,1,0,1.3-0.5
		c0.2-0.5,0.1-1-0.3-1.3c-0.3-0.2-0.6-0.3-1-0.3"/>
	<path class="st6" d="M175.7,93.4c0,0-3.3-0.3-4.9,1.3s-2.2,3.1-2,3.3c0,0,0.7-0.9,3.3-1.1c1.7-0.1,3.4-0.1,5.1-0.1L175.7,93.4z"/>
	<path class="st0" d="M202,89.6c-3.1-4.7-6.2-9.5-9.3-14.3c-1.1-1.6-2.1-3.3-2.8-5.2c-1.4-3.9-0.9-8.2-2.4-12.1
		c-0.5,0.9-1,1.7-1.5,2.6c0-2.6-0.3-5.1-1.1-7.6l-1.6,3c0.2-3.5-0.4-7.1-1.6-10.4c-1.4,1-2.3,2.4-2.7,4c-0.3-3.2-0.8-6.4-1.5-9.5
		c-5,6.6-6.1,15.3-6.2,23.6c-0.1,1.6,0,3.2,0.4,4.8c0.5,1.7,1.3,3.3,2.4,4.8c4.3,6.4,9.8,12,12.5,19.2l18.4,4.1
		C204.2,96.1,202.3,90.1,202,89.6z"/>
	<path class="st0" d="M205.1,96.8h-0.2C205,96.8,205.1,96.8,205.1,96.8z"/>
	<path class="st2" d="M230.6,86.4c0.5-1.1,1.3-2.1,2.3-2.9c0.9-0.5,1.9-0.8,2.9-1c1.7-0.5,3.2-1.4,4.4-2.7c-1.1,0.4-2.3,0.5-3.5,0.1
		c3.6-1.4,7.1-2.9,10.6-4.7c3.2-1.7,6.4-3.6,8.4-6.6c-1.3,1.1-2.9,1.8-4.7,2.1c4.9-4,8.6-9.5,10.4-15.5c-2.2,3.1-4.7,6-7.4,8.8
		c-0.7,0.9-1.8,1.5-2.9,1.7c3.6-4.6,6.4-9.8,8-15.4c-1.1,1.7-2.3,3.4-3.6,5c-0.9,1.2-1.9,2.4-3,3.5c-3,2.7-6.3,5.1-9.8,7.1
		c-2.7,1.6-5.3,3.2-8.1,4.6l11.9-2.1l-7.2,5.1l6.6-1.2c0,0-11.9,5.5-14.6,9.2c-1.6,1.9-2.3,4.4-2.1,6.9L230.6,86.4z"/>
	<path class="st2" d="M189.8,70.1c-1.4-3.9-0.9-8.2-2.4-12.1c-0.5,0.9-1,1.7-1.5,2.6c0-2.6-0.3-5.1-1.1-7.6l-1.6,3
		c0.2-3.5-0.4-7.1-1.6-10.4c-1.4,1-2.3,2.4-2.7,4c-0.3-3.2-0.8-6.4-1.5-9.5c-5,6.6-6.1,15.3-6.2,23.6c-0.1,1.6,0,3.2,0.4,4.8
		l2.3-6.3c0,0,2.6-8.3,4-4.4s4.4,10.5,4.4,10.5l0.6-6c0,0,1.8,5.8,3.7,7C187.6,70.1,188.7,70.4,189.8,70.1z"/>
	<path class="st2" d="M214.5,78.2L214.5,78.2C214.5,78.2,214.5,78.2,214.5,78.2c-0.1,0.2-0.1,0.3-0.2,0.4c-0.2,0.3-0.5,0.6-0.8,1.1
		c-0.8,0.9-1.8,2.2-3.2,3.8s-3.1,3.4-5,5.4c-1,1-2,2-3.2,3c-0.6,0.5-1.2,0.9-1.9,1.3c-0.4,0.1-0.9,0.1-1.3,0.1
		c-0.4,0-0.8-0.1-1.2-0.1c-6.4-0.8-12-1.8-16.1-2.4c-0.9-0.1-1.8,0.1-2.6,0.6c-0.6,0.3-1.2,0.7-1.8,1.1c-0.9,0.7-1.4,1.2-1.4,1.1
		c0.1-0.2,0.2-0.3,0.3-0.4c0.3-0.3,0.6-0.6,1-0.9c0.5-0.5,1.1-0.9,1.8-1.2c0.8-0.5,1.8-0.8,2.8-0.7c4.2,0.4,9.9,1.4,16.2,2.2
		l1.2,0.1c0.3,0,0.7,0,1,0c0.7-0.3,1.3-0.8,1.8-1.3c1.1-0.9,2.2-1.9,3.2-2.9c2-1.9,3.7-3.8,5.1-5.3l3.4-3.6l0.9-1L214.5,78.2
		C214.5,78.2,214.5,78.1,214.5,78.2L214.5,78.2z"/>
	<path class="st2" d="M239.4,73.1c-0.1,0.1-0.2,0.2-0.3,0.3c-0.3,0.3-0.5,0.6-0.8,0.8c-1.1,0.9-2.3,1.7-3.7,2.3c-2,0.8-4,1.5-6.1,2
		c-1.2,0.3-2.4,0.7-3.6,1.1c-1.2,0.5-2.4,1.1-3.4,2c-1.9,1.8-3.5,3.8-5,5.9c-1.3,1.7-2.8,3.3-4.4,4.7c-1.1,0.9-2.3,1.8-3.6,2.5
		c-0.4,0.3-0.8,0.4-1,0.6s-0.4,0.2-0.4,0.2c0.4-0.3,0.9-0.6,1.3-0.9c1.2-0.8,2.3-1.6,3.3-2.5c1.6-1.4,3-3,4.3-4.7
		c1.5-2.2,3.2-4.2,5.1-6c1-0.9,2.2-1.6,3.5-2.1c1.2-0.4,2.4-0.8,3.6-1.1c2-0.5,4.1-1.1,6-1.9c1.3-0.6,2.6-1.3,3.7-2.1
		C239,73.4,239.4,73,239.4,73.1z"/>
	<path class="st2" d="M204.4,105.2c-0.8,0.2-1.6,0.2-2.3-0.3c-1.2-0.5-1.8-1.5-1.7-1.6s0.8,0.6,1.9,1.1S204.4,105,204.4,105.2z"/>
	<path class="st2" d="M209.4,105.8c-2.6,0.4-5.3-0.5-7.1-2.6c0.1-0.1,1.4,1,3.4,1.7S209.4,105.6,209.4,105.8z"/>
	<path class="st6" d="M285.9,102.5c-0.8-0.1-1.7,0-2.5,0.1c-1.4,0.4-2.6,1.3-3.4,2.5c0.4,0.1,0.9,0.1,1.3,0c1.7-0.2,3.4-0.3,5.2-0.2
		C286.6,104.1,286.4,103.2,285.9,102.5"/>
	<path class="st0" d="M314.7,109.5c-5.9-0.9-11.8-2.4-17.4-4.3c-3.9,3.6-6.4,8.6-10.8,11.6c-2,1.4-4.3,2.3-6.1,3.8
		c-2.5,2.2-3.8,5.4-4.9,8.5c-3,8.5-5.6,17.2-7.6,26.1l5.9-7.8l-0.2,4.7l8.2-13.3l0.8,4.3l18.8-16.6c3.4-3.1,6.6-6.4,9.6-10
		L314.7,109.5z"/>
	<path class="st0" d="M298.7,100.5c2.3-3,4.2-6.4,5.5-10c2.5-6.3,3.2-19.4,10.5-24.7s25.5-18.2,25.5-18.2l-7.6,10.6l9.2-7.4
		c-1.9,3.9-4.5,7.5-7.8,10.4l7.4-3.5c0,0-0.9,8-4.3,8.5c-0.5,0.1-2.6,3-2.6,3l0.8,1.9c0,0-8.8,18.7-11.1,22.5s-8.3,11.1-8.3,11.1
		L298.7,100.5z"/>
	<path class="st0" d="M285.6,103.1c0.1-0.3,0.4-3.5,5.8-3.7c2.6-0.2,5.2,0,7.7,0.5c0,0,15.3,4.1,17.4,5.3s17.7-2.5,17.7-2.5
		s7,12.3-2.2,20.3s-14.3,5.1-14.3,5.1s-0.8-9.6-4.7-12.1c0,0-6.8-0.1-10-1.7s-9.3-7.3-10.5-8s-4.7-0.3-6-1.2
		C285.8,104.8,285.4,103.9,285.6,103.1z"/>
	<circle class="st2" cx="289.1" cy="102.3" r="1.1"/>
	<path class="st2" d="M335.4,71.2l-0.8-1.9c0,0,2.1-2.9,2.6-3c3.3-0.6,4.3-8.5,4.3-8.5l-7.4,3.5c3.2-2.9,5.9-6.5,7.8-10.4l-9.2,7.4
		l7.6-10.6c0,0-18.2,12.9-25.5,18.2l11.7-3.7l-2.2,5.5l9.2-4c-1.1,1.6-1.4,3.6-0.9,5.5C333.6,71.8,335.4,71.2,335.4,71.2z"/>
	<path class="st2" d="M282.8,143.2l-0.8-4.3l-8.2,13.3l0.2-4.7l-6,7.8c2-8.8,4.5-17.5,7.5-26.1l-0.2,7.9l4.6-3.3v5.7l4-3.7
		L282.8,143.2z"/>
	<path class="st2" d="M326,119.4c0,0.1-0.6-0.4-1.6-0.8s-2.5-0.9-4.1-1.6c-2-0.8-3.7-2-5.2-3.5c0.1-0.1,2.3,1.6,5.4,3
		c1.5,0.7,3,1.2,4.1,1.7S326.1,119.4,326,119.4z"/>
	<path class="st2" d="M328.1,116.1c-2-0.2-4-0.7-5.9-1.5c-1.9-0.7-3.7-1.6-5.4-2.9c0.1-0.1,2.4,1.2,5.5,2.4S328.1,115.9,328.1,116.1
		z"/>
	<path class="st2" d="M313.7,115.6c-0.3,0.2-0.5,0.3-0.8,0.4c-0.8,0.3-1.6,0.5-2.4,0.7c-1.2,0.3-2.5,0.3-3.7,0.2
		c-1.5-0.3-2.9-0.9-4.2-1.7c-2.3-1.4-4.5-3-6.5-4.9c-0.7-0.7-1.3-1.3-1.7-1.8c-0.2-0.2-0.4-0.5-0.5-0.7c0.1,0,0.9,0.9,2.5,2.3
		c2,1.8,4.2,3.4,6.5,4.8c1.2,0.8,2.6,1.4,4,1.7c1.2,0.2,2.4,0.1,3.5-0.1C312.4,115.9,313.6,115.5,313.7,115.6z"/>
	<path class="st2" d="M325.5,64.7c-0.3,0.4-0.7,0.9-1.1,1.3l-3.2,3.3c-1.3,1.4-3,3-4.7,4.8c-0.9,0.9-1.5,2.1-1.8,3.3
		c-0.2,1.4-0.2,2.8-0.1,4.2c0.2,2.8-0.1,5.6-0.6,8.3c-0.5,2.2-1.4,4.4-2.6,6.3c-0.8,1.3-1.8,2.5-3,3.5c-0.3,0.3-0.6,0.5-1,0.8
		c-0.2,0.2-0.4,0.2-0.4,0.2c1.6-1.4,2.9-2.9,4-4.7c1.1-1.9,2-4,2.4-6.2c0.6-2.7,0.8-5.4,0.6-8.2c-0.1-1.4-0.1-2.9,0.1-4.3
		c0.3-1.4,1-2.6,2-3.6c1.8-1.8,3.5-3.4,4.8-4.8l3.3-3.2C324.6,65.4,325,65,325.5,64.7z"/>
	<path class="st2" d="M334.1,73.6c0,0-0.2,0.2-0.7,0.5s-1.1,0.7-1.9,1.2c-4.4,2.5-9.3,4.1-14.3,4.6c-1,0.1-1.7,0.1-2.3,0.1
		c-0.3,0-0.6,0-0.8,0c1-0.2,2-0.4,3.1-0.5c2.5-0.4,4.9-0.9,7.3-1.7c2.4-0.8,4.7-1.7,6.9-2.9C332.2,74.6,333.2,74.1,334.1,73.6z"/>
	<path class="st2" d="M334.5,66.1c0,0-0.1,0.3-0.5,0.8c-0.5,0.6-1.1,1.2-1.8,1.6c-1,0.6-2.1,1.1-3.2,1.6c-1.2,0.6-2.6,1.1-4,1.7
		c-2.9,1.1-5.5,2-7.4,2.7c-1,0.4-2.1,0.7-3.1,0.9c1-0.5,2-0.9,3-1.3l7.3-2.8c1.4-0.6,2.8-1.1,4-1.6c1.1-0.4,2.2-0.9,3.2-1.5
		C332.9,67.6,333.8,66.9,334.5,66.1z"/>
	<path class="st2" d="M327.6,83.2c-0.4,0.6-1,1-1.6,1.2c-1.5,0.5-3.1,1-4.7,1.3c-1.6,0.4-3.2,0.7-4.9,0.8c-0.7,0.1-1.4-0.1-2-0.5
		c0.7,0.1,1.3,0.1,2,0.1c1.6-0.2,3.2-0.5,4.7-0.9c1.9-0.4,3.6-0.7,4.7-1.1C326.5,83.8,327.1,83.5,327.6,83.2z"/>
	<path class="st2" d="M278.2,136c0.1-0.4,0.2-0.8,0.4-1.2c0.4-1.1,1-2.1,1.6-3.1c1-1.4,2.2-2.7,3.6-3.7c1.7-1.2,3.6-2.2,5.6-3
		c1.9-0.8,3.8-1.8,5.5-3c1.4-1,2.6-2.1,3.8-3.4c1-1.2,1.9-2.5,2.8-3.8c-0.1,0.4-0.3,0.8-0.5,1.2c-0.6,1-1.2,2-2,2.9
		c-1.1,1.3-2.4,2.5-3.8,3.6c-1.7,1.2-3.6,2.2-5.6,3c-1.9,0.8-3.8,1.8-5.5,2.9c-1.4,1-2.6,2.2-3.6,3.6
		C279.6,133.1,278.8,134.5,278.2,136z"/>
	<path class="st2" d="M286.3,138.2c0.4-1.8,0.6-3.6,0.8-5.4c0-1.8-0.1-3.7-0.4-5.5C288.1,130.8,287.9,134.8,286.3,138.2z"/>
	<path class="st2" d="M292.6,133.1c-0.1,0,0-1.8-0.2-4c-0.2-1.3-0.3-2.7-0.3-4C293,127.7,293.2,130.5,292.6,133.1z"/>
	<path class="st2" d="M297.8,128.9c-0.3-1.3-0.6-2.6-0.8-3.9c-0.3-1.3-0.6-2.6-0.8-3.9c0.7,1.2,1.1,2.5,1.3,3.8
		C297.9,126.2,298,127.6,297.8,128.9z"/>
	<path class="st2" d="M303.6,120.2c-0.1,0.1-0.8-0.3-1.5-1s-1.2-1.2-1.1-1.3s0.8,0.3,1.5,1S303.7,120.1,303.6,120.2z"/>
	<path class="st2" d="M317.5,101.9c-1.3-0.6-2.5-1.4-3.5-2.3c-1.2-0.8-2.3-1.7-3.2-2.7c1.3,0.6,2.5,1.4,3.5,2.3
		C315.5,99.9,316.6,100.9,317.5,101.9z"/>
	<path class="st2" d="M324.3,93.2c-1.8,0.9-3.8,1.4-5.9,1.4c-1.7,0-3.2-0.2-4.2-0.2c-0.6,0-1.2,0-1.8-0.2c0.6-0.2,1.2-0.3,1.8-0.2
		c1.1,0,2.6,0.1,4.2,0.1C320.4,93.9,322.4,93.6,324.3,93.2z"/>
</g>
<g id="Ground">
	<g class="st7">
		<path d="M402.7,341.1c-0.5-0.5-0.7-0.6-1.3-0.5c-0.4,0-0.7,0.2-0.9,0.5c-0.4,0.3-0.5,0.9-0.3,1.4c0.2,0.3,0.6,0.5,0.9,0.5
			c0.6,0.2,1.2,0.1,1.7-0.2C403.3,342.3,403.2,341.5,402.7,341.1z"/>
	</g>
	<g class="st7">
		<path d="M405.9,340.1c-0.3-0.3-0.4-0.4-0.8-0.3c-0.2,0-0.4,0.1-0.5,0.3c-0.2,0.2-0.3,0.5-0.2,0.8c0.1,0.2,0.3,0.3,0.5,0.3
			c0.3,0.1,0.7,0.1,1-0.1C406.3,340.8,406.2,340.4,405.9,340.1z"/>
	</g>
	<path class="st0" d="M282,365.9c0,0-20.3-5.9-24.6-6.2c-3.4-0.3-6.5,3.8-7.6,5.5c-0.3,0.5-0.5,0.7-0.5,0.7H282z"/>
	<path class="st2" d="M282,365.9l-9.4,0.1c-5.9,0.1-14.2,0.2-23.4,0.2h-0.5l0.2-0.4c0.3-0.5,0.6-1,0.9-1.4c1.3-2,3.1-3.6,5.3-4.6
		c0.5-0.2,1.1-0.3,1.7-0.3c0.3,0,0.6,0,0.9,0c0.3,0,0.5,0.1,0.8,0.1c1.1,0.2,2.1,0.4,3.1,0.6c4,0.9,7.6,1.9,10.6,2.8
		s5.4,1.6,7.1,2.1l1.9,0.6C281.6,365.7,281.8,365.8,282,365.9c-0.2,0-0.5-0.1-0.7-0.1l-1.9-0.5l-7.1-1.9c-3-0.8-6.6-1.7-10.6-2.6
		c-1-0.2-2-0.4-3.1-0.6c-1-0.2-2.1-0.2-3.1,0.2c-2,1-3.8,2.5-5,4.4c-0.3,0.5-0.6,1-0.9,1.4l-0.2-0.4c9,0,17.1,0.1,23,0.2L282,365.9z
		"/>
	<path class="st2" d="M344.1,365.6c0,0.1-33.2,0.4-74.1,0.6s-74.1,0.2-74.1,0.1s33.2-0.4,74.1-0.6S344.1,365.4,344.1,365.6z"/>
	<path class="st2" d="M289.5,370.9c0,0.1-9.1,0.3-20.4,0.3s-20.4-0.1-20.4-0.3s9.1-0.3,20.4-0.3S289.5,370.8,289.5,370.9z"/>
	<path class="st4" d="M493.9,324.2l-2.1-0.8l-2.8,2.7l1.8-5.1l-3.7-0.7l-3.1,5.1l1.5-6.4l-3.7-0.5l-2.1,7l0.6-9.6l-1.7,0.5l-2.5,9.9
		l0.9-12.5c0,0-4.4-1.6-4.5-1.3s-5.7,12.6-5.7,12.6l1.4-12.4l-10.5-2l-2.7,15l-0.4-14.9l-9.1-0.9l-2.2,17.2l-1.6-18l-2,0.1l0.7,18.4
		l-5.2-19.2l-11.3,0.4l0.5,20.4l-4.9-19.8l-2.6,0.4l3.4,20l-6.1-17.3l-4.5,1.4l-1.8,4.5l-0.5,18.4l-2.9-20.1l-2.6,0.4l1.4,20.3
		l-5.8-19.5l-11,3.1l1,19.9l-5-17.7l-2,0.5l4,17.6l-7.4-15.7l-8.3,3.7l4.2,14.3l-7.2-13.4l-9.3,5.2l5.2,11.4c0,0-9.1-10-9.3-10.3
		s-3.9,2.6-3.9,2.6l4.7,11.6l-5.4-8.6h-1.8l3.6,9l-4.2-6l-3.4,1.6l3.4,5.7l-4.5-3.9l-3.3,1.8l3.3,4.3l-3.5-1.8l-1.8,1.5l2.9,3
		l81.1-15.8l-1.5-4.3l73.9-8.9L493.9,324.2z"/>
	<path class="st0" d="M294,366.1c0,0,122.1-35.1,158.6-39.8s94.1,0,94.1,0l-10.3,20l-192.3,19.3L294,366.1z"/>
	<path class="st2" d="M294,366.1l50.1-0.7l0,0L536.4,346l-0.2,0.1c2.7-5.2,5.6-10.8,8.5-16.4l1.8-3.6l0.2,0.4
		c-17.8-1.3-35.2-2-52-2.1c-8.4,0-16.7,0.1-24.7,0.6c-7.9,0.4-15.7,1.2-23.5,2.5c-1.9,0.3-3.8,0.7-5.7,1l-5.6,1.1l-10.9,2.4
		l-10.5,2.4l-10.2,2.5c-13.3,3.3-25.7,6.5-36.9,9.4c-22.5,5.9-40.7,11-53.2,14.4l-14.4,4l-3.8,1L294,366.1l1.2-0.4l3.8-1.1l14.4-4.1
		c12.5-3.5,30.7-8.6,53.2-14.6c11.3-3,23.6-6.2,36.9-9.5l10.2-2.4l10.5-2.5l10.9-2.4l5.6-1.1c1.9-0.4,3.7-0.8,5.7-1
		c7.8-1.3,15.7-2.1,23.6-2.5c8.1-0.5,16.3-0.6,24.8-0.6c16.8,0,34.3,0.7,52.1,2h0.4l-0.2,0.4l-1.8,3.6l-8.4,16.4l-0.1,0.1h-0.1
		l-192.3,19.2l0,0L294,366.1z"/>
	<g class="st7">
		<path d="M334.8,354.5c0,0,34.2,2.7,44,2.5s51.7-7.3,53-7.2s22.6-13.8,31.2-14.2s37.8,3.5,37.8,3.5l5.3-3.6c0,0-38-4.9-44.9-4.7
			s-24.1,15-30.1,16s-69.4,4.3-74,2.9L355,349L334.8,354.5z"/>
	</g>
	<path class="st8" d="M510.4,346.4l-2.4-96.6l12.2-10.2l-1-2l-11.4,8.1l-5.6-70.6h-2.8c0,0-2,157.6-5.4,163s-9.6,8.3-9.6,8.3
		L510.4,346.4z"/>
	<path class="st9" d="M506.9,341.4c0-0.1,0-0.2,0-0.3c0-0.2,0-0.5,0.1-0.9c0.1-0.8,0.2-2,0.4-3.5c0.3-3,0.8-7.5,1.3-12.9
		c0.5-6.4,0.7-12.8,0.4-19.2c-0.2-3.8-0.5-7.6-1.1-11.3c-0.6-3.9-1.6-7.9-2.5-12c-0.9-4-1.6-8-2.1-12.1c-0.2-1.9-0.3-3.9-0.2-5.8
		c0.1-1.9,0.2-3.7,0.5-5.6c0.5-3.6,1.2-7,1.9-10.1s1.3-6.1,1.6-8.8c0.7-4.3,0.7-8.6,0-12.9c-0.2-1.2-0.5-2.3-0.8-3.4
		c-0.1-0.4-0.2-0.6-0.3-0.9c0-0.1-0.1-0.2-0.1-0.3c0,0,0,0.1,0.1,0.3l0.3,0.9c0.4,1.1,0.7,2.3,0.9,3.4c0.8,4.3,0.8,8.7,0.1,13
		c-0.4,2.7-0.9,5.7-1.6,8.9s-1.4,6.5-1.8,10.1c-0.2,1.8-0.4,3.7-0.4,5.5c0,1.9,0.1,3.9,0.2,5.8c0.5,4,1.2,8,2.1,12
		c0.9,4.1,1.8,8.1,2.5,12c0.6,3.8,1,7.5,1.1,11.3c0.2,6.4,0.1,12.9-0.5,19.3c-0.5,5.5-1,9.9-1.4,12.9c-0.2,1.5-0.4,2.7-0.5,3.5
		c0,0.4-0.1,0.7-0.1,0.9C506.9,341.2,506.9,341.3,506.9,341.4z"/>
	<path class="st9" d="M488.4,346.3c1.5,0.1,3-0.1,4.4-0.5c3.8-1.1,7.1-3.5,9.3-6.7c1.4-2.2,2.5-4.6,3.2-7.1c0.8-2.9,1.3-5.8,1.7-8.7
		c0.9-6.7,1.1-13.5,0.4-20.3c-0.1-1.1-0.3-2.3-0.9-3.3c-0.3-0.5-0.6-0.9-1.1-1.2c-0.5-0.3-1.1-0.4-1.6-0.3c-1.1,0.3-2,1-2.6,2
		c-0.6,1-1.1,2-1.4,3c-1.5,3.8-1.9,8-1.1,12c0.1,0.9,0.4,1.8,0.8,2.6c0.2,0.4,0.6,0.6,1,0.6c0.4,0,0.8-0.2,1.1-0.6
		c0.3-0.3,0.5-0.7,0.7-1.1c0.2-0.4,0.4-0.8,0.5-1.1c0.3-0.7,0.5-1.5,0.6-2.3c0.5-2.7,0-5.4-1.3-7.8h0.2c-1.2,1.6-1.8,3.5-1.8,5.5
		c0,0.5,0,1,0.1,1.5c0,0.2,0.1,0.3,0.1,0.5c-0.2-0.6-0.3-1.3-0.3-2c0-2,0.6-4,1.7-5.6l0.1-0.2l0.1,0.2c1.3,2.4,1.8,5.3,1.4,8
		c-0.2,1.7-0.9,3.3-1.9,4.7c-0.3,0.4-0.8,0.7-1.4,0.7c-0.6,0-1.1-0.3-1.4-0.7c-0.5-0.8-0.8-1.8-0.9-2.7c-0.8-4.1-0.4-8.4,1.1-12.3
		c0.4-1.1,0.9-2.1,1.5-3c0.3-0.5,0.7-1,1.2-1.4c0.5-0.4,1.1-0.7,1.7-0.9c0.7-0.1,1.4,0,2,0.4c0.5,0.3,1,0.8,1.3,1.4
		c0.5,1.1,0.9,2.3,0.9,3.5c0.7,6.8,0.5,13.6-0.4,20.4c-0.4,3-0.9,5.9-1.7,8.8c-0.7,2.5-1.8,5-3.3,7.1c-2.3,3.3-5.7,5.7-9.5,6.7
		c-1.1,0.3-2.2,0.4-3.3,0.4c-0.3,0-0.6,0-0.9-0.1C488.5,346.3,488.4,346.3,488.4,346.3z"/>
	<path class="st9" d="M503.7,236.8c-0.1-0.1-0.3-0.2-0.4-0.3l-1.2-1h0.1c-0.3,0.8-0.5,1.7-0.6,2.6c-0.1,1.3,0.2,2.6,0.7,3.8
		c0.1,0.4,0.3,0.7,0.6,1c0.2,0.3,0.6,0.5,1,0.4c0.4-0.1,0.7-0.4,0.9-0.8c0.2-0.4,0.3-0.8,0.4-1.2c0.3-1.9,0.3-3.9,0-5.8
		c-0.1-1.1-0.4-2.1-0.7-3.2c-0.1-0.5-0.4-1.1-0.6-1.6c-0.3-0.5-0.7-0.9-1.1-1.2c-0.5-0.3-1.1-0.3-1.6,0c-0.5,0.3-0.9,0.8-1.1,1.3
		c-0.3,0.6-0.5,1.1-0.6,1.7c-0.2,0.6-0.3,1.2-0.4,1.9c-1,5-0.4,10.6,0.2,16.3c0.7,6.5,1.1,12.9,1,19.4c-0.1,5.3-0.4,10.6-1.1,15.8
		c-0.5,4.5-1.2,8.1-1.7,10.6c-0.2,1.2-0.5,2.2-0.6,2.9c-0.1,0.3-0.1,0.5-0.2,0.7c0,0.1,0,0.2-0.1,0.3c0-0.1,0-0.2,0-0.3
		c0-0.2,0.1-0.4,0.1-0.8c0.1-0.7,0.3-1.6,0.5-2.9c0.5-2.5,1-6.1,1.5-10.6s0.9-9.9,0.9-15.8c0.1-6.5-0.3-13-1-19.4
		c-0.6-5.7-1.2-11.3-0.2-16.4c0.1-0.6,0.3-1.3,0.5-1.9c0.1-0.6,0.4-1.2,0.6-1.8c0.3-0.6,0.7-1.1,1.3-1.5c0.6-0.3,1.4-0.3,2.1,0
		c0.6,0.3,1,0.8,1.3,1.4c0.3,0.5,0.5,1.1,0.6,1.6c0.3,1.1,0.5,2.1,0.7,3.2c0.2,2,0.2,4-0.1,5.9c-0.1,0.5-0.2,0.9-0.4,1.3
		c-0.2,0.4-0.6,0.8-1.1,0.9c-0.5,0.1-1-0.1-1.3-0.5c-0.3-0.3-0.5-0.6-0.6-1c-0.9-2.1-0.9-4.4,0-6.5v-0.1l0.1,0.1l1.1,1
		C503.4,236.5,503.6,236.6,503.7,236.8z"/>
	<path class="st4" d="M502.7,109c0,1-22.1,59.7-22.1,59.7l11.1-9.5l-16,41.1l10.6-12.3l-16.8,52l10.4-5.9l-10.5,36.3l9-9.5l-9,27.2
		l71.3-4.4l-16.9-51.2l10.2,9.5l-13.2-37.3l6.8,3.2l-15.4-48l7.1,4.1L502.7,109z"/>
	<polygon class="st9" points="356.7,478.1 402,443.4 423.6,421.5 418.7,372.9 525.8,350.4 736.7,349.7 737.7,478 411.8,478.1 	"/>
	<g class="st7">
		<path class="st10" d="M635.5,408.7c0,0-29-6.1-54.8-1.5s-63.3,18.4-93.6,16.4S423,406.1,423,406.1l-1,0.2l1.2,11.7
			c0,0,39.8,10.8,61.3,17.8s68-16.7,86.4-21.7s50.7-1.4,60.7,3.9s105.4-15.2,105.4-15.2l-0.2-24L635.5,408.7z"/>
	</g>
	<path class="st11" d="M585.3,348.1c-0.7,0.5-9.2,7.9-9.2,7.9l-1,10.5l-4,1.2l-9.4-2.2l-7.1,6.3l-7.9-3.1l7.7,4.5l2.4-1l5.2-4.6
		l9,2.1l-8.2,1.6l-5,4.5l0.3,5.9l1-5l4.2-3.7l9.6-2.4l4.6-2.8l1.9-7l1.5,7.2l-7.6,5.2L572,383l-10.4,2.6l-6.2,4.5l-3.6-5.3
		l-12.1-1.4l10.8,2.8l4.5,6.5l-2.9,3.4l-8-2l-9.1,9.3l9-6.7l8.7,1.5l3.1-2.6l1.8-4.9l4.7-4.1l8.6-1.3l1,5.8l-9.5,5.6l-1.8,10.3
		l-9.1,3.6l11-3.7l1.5-8.9l10.6-5.7l-1-7.7l1.6-11.2l3.2-1.7l-0.3,9.7l6.3,3.5l-4.1-4.3l0.2-9l3-3.9l-1.7-8.6l-1-3.7l5.5-5
		L585.3,348.1z"/>
	<path class="st11" d="M581.2,361.2c0.6,0.1,8.7,3.2,8.7,3.2l3.4,7.4l3.2-0.2l6.2-4l6.8,2.7l4.9-4.3l-4.4,5.2l-2-0.1l-4.9-1.9
		l-5.9,3.8l6.3-1l4.8,2l1.3,4.3l-2-3.4l-4-1.6l-7.5,0.8l-4.1-0.8l-3.2-4.6l0.8,5.6l6.8,1.8l3.4,6.8l8.1-0.8l5.6,1.6l1.2-4.8l8.4-4.1
		l-7,4.8l-1.5,5.9l2.9,1.7l5.3-3.5l9,4.4l-8.2-2.5l-5.9,3.4l-2.9-1.1l-2.5-3.1l-4.5-1.7l-6.5,1.3l0.8,4.4l8.3,1.5l3.9,6.9l7.5,0.3
		l-8.9,0.2l-3.4-6l-9.1-1.3l-1.3-5.8l-4.1-7.6l-2.8-0.4l2.7,6.9l-3.6,4.1l1.8-4.2l-2.5-6.4l-3.2-2l-1-6.6l-0.3-2.9l-5.3-2.2
		L581.2,361.2z"/>
	<path class="st4" d="M736.7,286c0,0-262.9,45.9-281,57.6c-13.2,8.6-25.4,18.4-36.7,29.3l0.6,6.4c0,0,52.6-2.2,92.8-13.7l76.3-12.1
		l148,1.4L736.7,286z"/>
	<path class="st8" d="M693.2,308.2l-2.5-101l12.8-10.7l-1-2.1l-12,8.5l-5.9-73.8h-2.9c0,0-2.1,164.7-5.6,170.4s-10.1,8.7-10.1,8.7
		H693.2z"/>
	<path class="st9" d="M689.5,303c0-0.1,0-0.2,0-0.3c0-0.2,0-0.5,0.1-1c0.1-0.9,0.2-2.1,0.4-3.7c0.3-3.2,0.9-7.8,1.3-13.5
		c0.6-6.7,0.7-13.4,0.5-20.1c-0.2-4-0.6-7.9-1.2-11.8c-0.7-4.1-1.6-8.2-2.6-12.5c-1-4.2-1.7-8.4-2.2-12.6c-0.2-2-0.3-4.1-0.2-6.1
		c0.1-1.9,0.2-3.9,0.5-5.8c0.5-3.8,1.3-7.3,2-10.6s1.3-6.4,1.7-9.2c0.7-4.5,0.7-9,0-13.5c-0.2-1.2-0.5-2.4-0.9-3.6
		c-0.1-0.4-0.2-0.7-0.3-0.9c0-0.1-0.1-0.2-0.1-0.3c0.1,0.1,0.1,0.2,0.1,0.3c0.1,0.2,0.2,0.5,0.3,0.9c0.4,1.2,0.8,2.4,1,3.6
		c0.8,4.5,0.8,9.1,0.2,13.6c-0.4,2.9-1,6-1.7,9.3s-1.4,6.8-1.9,10.6c-0.3,1.9-0.4,3.8-0.5,5.8c0,2,0.1,4,0.3,6
		c0.5,4.2,1.2,8.4,2.1,12.6c1,4.3,1.9,8.5,2.6,12.6c0.6,3.9,1,7.9,1.2,11.8c0.2,6.7,0,13.4-0.6,20.1c-0.5,5.7-1.1,10.3-1.5,13.5
		c-0.2,1.6-0.4,2.8-0.5,3.7c-0.1,0.4-0.1,0.7-0.1,1C689.6,302.8,689.6,302.9,689.5,303z"/>
	<path class="st9" d="M670.2,308.1c1.5,0.1,3.1-0.1,4.6-0.5c4-1.1,7.4-3.6,9.7-7c1.5-2.3,2.7-4.8,3.4-7.4c0.8-3,1.4-6,1.8-9.1
		c1-7,1.1-14.1,0.4-21.2c-0.1-1.2-0.4-2.4-0.9-3.5c-0.3-0.5-0.7-1-1.2-1.3c-0.5-0.3-1.1-0.4-1.7-0.3c-1.1,0.3-2.1,1.1-2.7,2.1
		c-0.6,1-1.1,2-1.5,3.1c-1.5,4-1.9,8.3-1.2,12.5c0.1,1,0.4,1.9,0.9,2.7c0.2,0.4,0.6,0.6,1.1,0.6c0.4,0,0.8-0.3,1.1-0.6
		c0.3-0.3,0.5-0.7,0.7-1.1c0.2-0.4,0.4-0.8,0.5-1.2c0.3-0.8,0.5-1.6,0.7-2.4c0.5-2.8,0-5.7-1.3-8.2h0.2c-1.2,1.7-1.9,3.7-1.9,5.7
		c0,0.5,0,1.1,0.1,1.6c0,0.2,0.1,0.4,0.1,0.5c-0.2-0.7-0.3-1.4-0.3-2.1c0-2.1,0.6-4.1,1.8-5.9l0.1-0.2l0.1,0.2
		c1.4,2.5,1.9,5.5,1.5,8.3c-0.3,1.8-0.9,3.5-2,4.9c-0.3,0.4-0.9,0.7-1.4,0.7c-0.6,0-1.1-0.3-1.5-0.8c-0.5-0.9-0.9-1.8-1-2.9
		c-0.8-4.3-0.4-8.7,1.1-12.8c0.4-1.1,0.9-2.2,1.5-3.2c0.3-0.5,0.8-1,1.2-1.4c0.5-0.5,1.1-0.8,1.8-0.9c0.7-0.1,1.4,0,2,0.4
		c0.6,0.4,1,0.9,1.3,1.5c0.6,1.1,0.9,2.4,1,3.6c0.7,7.1,0.6,14.3-0.5,21.3c-0.4,3.1-1,6.2-1.8,9.2c-0.7,2.7-1.9,5.2-3.5,7.5
		c-2.4,3.5-5.9,5.9-10,7c-1.1,0.3-2.3,0.4-3.4,0.4c-0.4,0-0.7,0-0.9-0.1L670.2,308.1z"/>
	<path class="st9" d="M686.2,193.6c-0.2-0.1-0.3-0.2-0.4-0.3l-1.3-1h0.1c-0.9,2.2-0.8,4.6,0.1,6.7c0.1,0.4,0.3,0.7,0.6,1
		c0.2,0.3,0.6,0.5,1,0.4c0.4-0.1,0.7-0.4,0.9-0.8c0.2-0.4,0.4-0.8,0.4-1.3c0.3-2,0.3-4.1,0-6.1c-0.1-1.1-0.4-2.2-0.7-3.3
		c-0.2-0.6-0.4-1.1-0.7-1.6c-0.3-0.5-0.7-1-1.2-1.3c-0.5-0.3-1.2-0.3-1.7,0c-0.5,0.3-0.9,0.8-1.2,1.4c-0.3,0.6-0.5,1.2-0.6,1.8
		c-0.2,0.6-0.3,1.3-0.5,1.9c-1,5.3-0.4,11.1,0.2,17.1c0.8,6.7,1.1,13.5,1,20.3c-0.1,5.5-0.4,11.1-1.1,16.6
		c-0.6,4.7-1.2,8.5-1.8,11.1c-0.2,1.3-0.5,2.3-0.6,3l-0.2,0.8c0,0.1,0,0.2-0.1,0.3V260c0-0.2,0.1-0.5,0.1-0.8c0.1-0.7,0.3-1.7,0.5-3
		c0.5-2.6,1.1-6.4,1.6-11.1s0.9-10.3,1-16.6c0.1-6.8-0.3-13.5-1.1-20.3c-0.7-6-1.3-11.8-0.2-17.2c0.2-0.7,0.3-1.3,0.5-2
		c0.1-0.7,0.4-1.3,0.7-1.9c0.3-0.6,0.8-1.2,1.4-1.6c0.7-0.4,1.5-0.4,2.2,0c0.6,0.3,1.1,0.8,1.4,1.4c0.3,0.5,0.5,1.1,0.7,1.7
		c0.3,1.1,0.6,2.2,0.7,3.4c0.3,2.1,0.2,4.1-0.1,6.2c-0.1,0.5-0.2,0.9-0.5,1.4c-0.2,0.5-0.6,0.8-1.1,0.9c-0.5,0.1-1-0.1-1.3-0.5
		c-0.3-0.3-0.5-0.7-0.6-1.1c-0.5-1.3-0.8-2.6-0.7-4c0.1-1,0.3-1.9,0.7-2.8v-0.1l0.1,0.1l1.2,1.1C685.8,193.4,686,193.5,686.2,193.6z
		"/>
	<path class="st4" d="M685.2,60c0,1-23.1,62.4-23.1,62.4l11.6-9.9l-16.7,43l11-12.9L650.4,197l10.9-6.1l-11,38l9.4-9.9l-9.4,28.4
		l74.5-4.6l-17.7-53.5l10.7,9.9l-13.8-39l7.1,3.3L695,113.2l7.5,4.3L685.2,60z"/>
	<path class="st9" d="M521.8,366.5l-4.5-7.5c1.8,1.5,3.7,2.9,5.6,4.2c-1.2-2.9-1.9-6.1-2-9.3c1.2,3.1,2.8,6.1,4.8,8.8
		c0.2-2,0.4-4.1,1.7-5.7c0.1,3.4,1,6.7,2.5,9.8c-2-0.5-4.2-0.5-6.2,0"/>
	<circle class="st11" cx="444.4" cy="425.5" r="4.4"/>
	<path class="st11" d="M682.5,378.5c0,2.6-2.1,4.7-4.7,4.7c-2.6,0-4.7-2.1-4.7-4.7c0-2.6,2.1-4.7,4.7-4.7c0,0,0,0,0,0
		C680.4,373.8,682.5,375.9,682.5,378.5z"/>
	<g class="st7">
		<path d="M603.4,419.5c0,2.6-2.1,4.7-4.7,4.7c-2.6,0-4.7-2.1-4.7-4.7s2.1-4.7,4.7-4.7l0,0C601.3,414.8,603.4,416.9,603.4,419.5
			C603.4,419.5,603.4,419.5,603.4,419.5z"/>
	</g>
	<path class="st11" d="M457,418c0,1.5-1.2,2.6-2.6,2.6s-2.6-1.2-2.6-2.6c0-1.5,1.2-2.6,2.6-2.6C455.9,415.4,457,416.5,457,418
		L457,418z"/>
	<circle class="st11" cx="662.9" cy="370.8" r="2.8"/>
	<g class="st7">
		<circle cx="584.7" cy="432.7" r="2.8"/>
	</g>
	<path class="st11" d="M356.7,478.1c13.9-3.2,28.4-14.8,43.6-14.2c4.2,0.1,8.2,1.6,12.3,2.4c13.2,2.5,26.7-1.7,39.2-6.7
		c7.5-3,15.2-6.4,23.3-6.1c6.9,0.2,13.5,3.1,20.4,3.4c18.5,0.7,33.8-17.1,52.3-17c10,0,19.7,5.4,29.5,3.5
		c8.1-1.5,14.6-7.6,22.4-10.4c9-3.2,19.2-1.5,27.6,2.9c0,0,8.8,3.9,17,1.9s18.6-12.5,24.5-12.3s68.4,2,68.4,2l0.4,50.5l-294.5,0.2
		l-36.2,0.4L356.7,478.1z"/>
	<path class="st2" d="M527.6,308.4c0.7,0.5,1.4,1.2,1.9,1.9c2.9,3.2,5.1,7,6.6,11.1c0.3,0.8,0.6,1.7,0.7,2.6
		c-0.4-0.8-0.8-1.6-1.1-2.5c-0.8-2-1.8-3.9-2.9-5.7c-1.1-1.8-2.3-3.6-3.7-5.3C528.6,309.8,528.1,309.1,527.6,308.4z"/>
	<path class="st2" d="M537.3,300.3c0,0.3,0,0.6,0,0.9c0,0.8,0.1,1.7,0.2,2.5c0.3,2.1,0.7,5,1.2,8.2s1.1,6,1.5,8.1
		c0.3,1.1,0.5,2.2,0.6,3.4c-0.4-1.1-0.7-2.2-0.9-3.3c-0.5-2.1-1.1-4.9-1.6-8.1s-0.9-6.1-1.1-8.2c-0.1-0.8-0.1-1.7,0-2.5
		C537.1,300.9,537.1,300.6,537.3,300.3z"/>
	<path class="st2" d="M543.5,312.4c0.2,0-0.2,2.3-0.2,5.1s0.4,5,0.2,5.1C542.5,319.2,542.5,315.7,543.5,312.4L543.5,312.4z"/>
	<path class="st2" d="M631.9,306.3c-0.1,0.1-1.5-3-3.6-6.5s-4.1-6.1-4-6.2c0.6,0.5,1.1,1,1.5,1.6c1.1,1.4,2.1,2.8,3,4.3
		c0.9,1.5,1.7,3.1,2.4,4.7C631.5,304.9,631.8,305.6,631.9,306.3z"/>
	<path class="st2" d="M633.7,305.1c-0.2,0-1-2.8-2.3-6.3s-2.7-6.1-2.6-6.1c0.4,0.5,0.8,1.1,1.1,1.7c1.5,2.8,2.7,5.7,3.5,8.8
		C633.6,303.8,633.7,304.4,633.7,305.1z"/>
	<path class="st2" d="M635,289.1c0.1,0.8,0.2,1.5,0.1,2.3c0,1.6,0.1,3.5,0.1,5.6s0.2,3.9,0.2,5.6c0.1,0.8,0.1,1.5,0,2.3
		c-0.2-0.7-0.3-1.5-0.4-2.3c-0.2-1.4-0.3-3.4-0.4-5.6s0-4.2,0-5.6C634.7,290.7,634.8,289.9,635,289.1z"/>
	<path class="st2" d="M477.8,359.5c-0.1,0.1-1.2-1.7-2.9-3.7s-3.2-3.5-3.1-3.6C474.5,354,476.5,356.6,477.8,359.5L477.8,359.5z"/>
	<path class="st2" d="M480.8,359.4c-0.5-0.5-0.9-1.1-1.1-1.8c-0.6-1.1-1.5-2.7-2.4-4.4s-1.6-3.4-2.1-4.6c-0.3-0.6-0.5-1.3-0.7-2
		c1.2,2.1,2.3,4.2,3.2,6.3C479.5,356.5,481,359.3,480.8,359.4z"/>
	<path class="st2" d="M484.6,358.9c-0.3-0.6-0.6-1.2-0.7-1.9c-0.4-1.6-0.7-3.2-1-4.8c-0.2-1.6-0.3-3.3-0.3-4.9c0-0.7,0-1.3,0.2-2
		c0.1,0,0.1,3.1,0.6,6.9S484.7,358.9,484.6,358.9z"/>
	<polygon class="st4" points="663.1,312.7 680,304 696,299.9 697.8,315.4 676.4,317.4 	"/>
	<polygon class="st11" points="464.5,401.7 476.4,403.7 486.1,392 476.6,384.6 459.5,390.5 	"/>
	<polygon class="st11" points="537.7,417.2 539.4,423.3 547.1,425.3 548.5,419.1 541.9,412.4 	"/>
	<polygon class="st11" points="469.4,437.5 477.7,446.3 496.9,448.5 505,434.9 487.2,429.9 	"/>
	<path class="st11" d="M511.1,431.4c0.3,1,1,5.3,1,5.3h3.7l4-2.6L511.1,431.4z"/>
	<g class="st7">
		<path class="st10" d="M568.7,352.6c0.1,0.3-4.6,1.9-12.6,2.2c-4.7,0.2-9.3-0.1-13.9-0.9c-1.4-0.2-2.8-0.6-4.1-1.1
			c-0.8-0.3-1.5-0.9-2.1-1.5c-0.3-0.4-0.6-0.9-0.7-1.4c-0.1-0.5-0.1-1.1,0-1.6c0.2-0.8,0.6-1.6,1-2.3c0.2-0.3,0.4-0.6,0.5-0.9
			c0.1-0.2,0.2-0.5,0.3-0.7c0.1-0.3,0.1-0.7-0.1-1c-0.1-0.1-0.4-0.3-1.1-0.4c-5.9-0.3-11.6-0.5-16.8-0.9l-7.4-0.5
			c-1.2,0-2.5-0.3-3.6-0.8c-0.7-0.3-1.2-0.8-1.6-1.4c-0.4-0.7-0.4-1.5-0.2-2.2c0.4-1,1-1.9,1.8-2.6l1.7-1.8c1.1-1.1,2-2.1,2.8-2.9
			c1.5-1.5,2.5-2.4,2.6-2.2s-0.5,1.1-1.8,2.9c-0.7,0.9-1.5,1.9-2.5,3.2l-1.5,2c-0.5,0.6-1,1.3-1.2,2c-0.1,0.2,0,0.5,0.1,0.7
			c0.2,0.3,0.5,0.5,0.8,0.6c0.9,0.3,1.9,0.5,2.9,0.4l7.3,0.2c5.2,0.2,10.8,0.4,16.9,0.7c0.5,0,1,0.1,1.4,0.3c0.6,0.2,1.1,0.5,1.5,1
			c0.4,0.5,0.6,1.1,0.7,1.7c0.1,0.5,0,1-0.1,1.5c-0.1,0.5-0.3,0.9-0.5,1.3c-0.2,0.4-0.4,0.7-0.6,1c-0.3,0.5-0.6,1-0.8,1.5
			c-0.1,0.3,0,0.7,0.2,0.9c0.3,0.4,0.7,0.7,1.2,0.9c1.1,0.5,2.3,0.8,3.5,1c4.4,0.9,8.9,1.4,13.4,1.5
			C563.8,353.1,568.6,352.2,568.7,352.6z"/>
	</g>
	<polygon class="st8" points="586,160.8 595.8,146.9 597.2,151.1 585.6,168.1 	"/>
	<path class="st4" d="M560.5,303.3c-0.8,4.4,0.1,8.9,1,13.3c-2.7-3.7-5.3-7.5-7.8-11.3c0.6,4.3,2,8.4,4,12.2c-2.4-2.1-4.9-4.2-7.5-6
		c2.5,3.3,4.9,6.6,7.2,10.1l8.6-0.9C563.5,315.1,561.7,309.3,560.5,303.3z"/>
	<path class="st4" d="M711.7,275.9c-0.8,4.4,0.1,8.9,1,13.3c-2.7-3.7-5.3-7.4-7.8-11.3c0.6,4.3,2,8.4,4,12.2c-2.4-2.1-4.9-4.2-7.5-6
		c2.5,3.3,4.9,6.6,7.2,10.1l8.6-0.9C714.7,287.6,712.8,281.8,711.7,275.9z"/>
	<polygon class="st0" points="551.4,344.1 559.8,334.3 571.4,328.6 579.7,334.5 573.3,341.4 	"/>
	<path class="st2" d="M551.3,344.2L551.3,344.2l8.5-9.9l11.6-5.7l0,0l8.3,6l0,0l-6.5,6.9l0,0L551.3,344.2z M559.8,334.3l-8.4,9.8
		l21.8-2.7l6.4-6.9l-8.3-6L559.8,334.3z"/>
	<path class="st4" d="M589.8,31.6c0,1.2-26.6,77.9-26.6,77.9l13.3-12.4l-19.2,53.6l12.7-16.1l-20.2,67.8l12.5-7.6l-12.7,47.4
		l10.8-12.4l-10.8,35.4l85.8-5.8l-20.3-66.8l12.3,12.4l-15.9-48.6l8.1,4.1L601.1,98l8.6,5.4L589.8,31.6z"/>
	<path class="st8" d="M599,341.4l-2.8-126l14.8-13.4l-1.2-2.6L596,210l-6.8-92h-3.4c0,0-2.4,205.5-6.5,212.6s-11.6,10.8-11.6,10.8
		L599,341.4z"/>
	<path class="st9" d="M594.8,334.9c0-0.1,0-0.3,0-0.4c0-0.3,0.1-0.7,0.1-1.2c0.1-1.1,0.3-2.6,0.5-4.6c0.4-4,1-9.7,1.5-16.9
		c0.6-8.3,0.8-16.7,0.5-25.1c-0.2-4.9-0.6-9.9-1.4-14.8c-0.8-5.1-1.9-10.3-3-15.6c-1.1-5.2-2-10.5-2.5-15.8
		c-0.2-2.5-0.3-5.1-0.3-7.6c0.1-2.4,0.2-4.9,0.5-7.3c0.6-4.7,1.5-9.1,2.3-13.2s1.5-8,2-11.5c0.8-5.6,0.8-11.3,0-16.8
		c-0.2-1.5-0.6-3-1-4.5c-0.1-0.5-0.3-0.9-0.3-1.1c0-0.1-0.1-0.3-0.1-0.4c0.1,0.1,0.1,0.2,0.2,0.4l0.4,1.1c0.5,1.5,0.9,3,1.1,4.5
		c0.9,5.6,1,11.3,0.2,16.9c-0.4,3.6-1.1,7.4-1.9,11.6s-1.7,8.5-2.2,13.2c-0.3,2.3-0.5,4.8-0.5,7.2s0.1,5,0.3,7.5
		c0.6,5.3,1.4,10.5,2.5,15.7c1.1,5.3,2.2,10.6,3,15.7c0.7,4.9,1.2,9.9,1.4,14.8c0.3,8.4,0.1,16.8-0.7,25.1
		c-0.6,7.1-1.2,12.9-1.7,16.9c-0.2,2-0.4,3.5-0.6,4.6c-0.1,0.5-0.1,0.9-0.2,1.2C594.9,334.6,594.9,334.7,594.8,334.9z"/>
	<path class="st9" d="M572.5,341.3c1.8,0.1,3.6-0.1,5.3-0.6c4.7-1.5,8.6-4.6,11.2-8.8c1.8-2.9,3.1-6,3.9-9.2c0.9-3.7,1.6-7.5,2-11.4
		c1.1-8.8,1.3-17.7,0.5-26.5c-0.1-1.5-0.4-3-1-4.3c-0.3-0.6-0.8-1.2-1.3-1.6c-0.6-0.4-1.3-0.5-1.9-0.4c-1.3,0.4-2.5,1.3-3.1,2.6
		c-0.7,1.2-1.3,2.5-1.7,3.9c-1.8,5-2.2,10.4-1.3,15.7c0.1,1.2,0.5,2.3,1,3.4c0.3,0.4,0.7,0.7,1.3,0.7c0.5-0.1,1-0.3,1.3-0.8
		c0.3-0.4,0.6-0.9,0.8-1.4c0.2-0.5,0.4-1,0.6-1.5c0.3-1,0.6-2,0.7-3c0.5-3.5,0-7.1-1.5-10.2h0.3c-1.4,2.1-2.2,4.6-2.2,7.1
		c0,0.7,0,1.3,0.1,2c0,0.2,0.1,0.4,0.1,0.7c-0.2-0.9-0.4-1.8-0.4-2.6c-0.1-2.6,0.7-5.1,2.1-7.3l0.1-0.2l0.1,0.2
		c1.6,3.2,2.2,6.8,1.7,10.4c-0.3,2.2-1,4.3-2.2,6.1c-0.4,0.5-1,0.9-1.6,0.9c-0.7,0-1.3-0.4-1.7-0.9c-0.6-1.1-1-2.3-1.1-3.6
		c-0.9-5.3-0.5-10.8,1.3-15.9c0.5-1.4,1.1-2.7,1.8-4c0.4-0.7,0.9-1.2,1.4-1.8c0.6-0.6,1.3-0.9,2.1-1.1c0.8-0.1,1.6,0,2.3,0.5
		c0.7,0.5,1.2,1.1,1.5,1.8c0.7,1.4,1,3,1.1,4.5c0.8,8.9,0.7,17.8-0.5,26.6c-0.4,3.9-1.1,7.7-2.1,11.4c-0.8,3.3-2.2,6.4-4,9.3
		c-2.6,4.2-6.7,7.3-11.5,8.8c-1.3,0.4-2.6,0.5-4,0.5c-0.5,0-0.8-0.1-1-0.1C572.8,341.3,572.7,341.3,572.5,341.3z"/>
	<path class="st9" d="M591,198.4c-0.2-0.1-0.3-0.2-0.5-0.4l-1.4-1.3h0.1c-1,2.7-0.9,5.7,0.2,8.3c0.2,0.5,0.4,0.9,0.7,1.3
		c0.3,0.4,0.7,0.6,1.2,0.5c0.5-0.2,0.8-0.5,1-1c0.2-0.5,0.4-1,0.5-1.6c0.6-3.9,0.3-7.9-0.8-11.7c-0.2-0.7-0.4-1.4-0.8-2
		c-0.3-0.6-0.8-1.2-1.4-1.6c-0.6-0.4-1.4-0.4-2,0c-0.6,0.4-1.1,1-1.4,1.7c-0.3,0.7-0.6,1.5-0.7,2.3c-0.2,0.8-0.3,1.6-0.5,2.4
		c-1.2,6.6-0.5,13.9,0.3,21.3c0.9,8.4,1.3,16.9,1.2,25.4c-0.1,7.8-0.6,14.8-1.3,20.7s-1.4,10.6-2,13.8c-0.3,1.6-0.6,2.9-0.7,3.7
		l-0.2,1c0,0.1,0,0.2-0.1,0.3c0-0.1,0-0.2,0-0.3c0-0.3,0.1-0.6,0.2-1c0.1-0.9,0.4-2.1,0.6-3.7c0.5-3.3,1.2-8,1.8-13.8
		s1.1-12.9,1.1-20.6c0.1-8.5-0.3-16.9-1.2-25.3c-0.8-7.4-1.4-14.8-0.2-21.4c0.2-0.8,0.3-1.7,0.5-2.5c0.2-0.8,0.4-1.6,0.8-2.4
		c0.3-0.8,0.9-1.5,1.6-1.9c0.8-0.5,1.7-0.5,2.5,0c0.7,0.4,1.2,1.1,1.6,1.8c0.3,0.7,0.6,1.4,0.8,2.1c0.4,1.4,0.7,2.8,0.8,4.2
		c0.3,2.6,0.3,5.2-0.1,7.7c-0.1,0.6-0.2,1.2-0.5,1.7c-0.2,0.6-0.7,1-1.3,1.2c-0.6,0.1-1.2-0.2-1.5-0.6c-0.3-0.4-0.5-0.9-0.7-1.4
		c-0.6-1.6-0.9-3.3-0.8-5c0.1-1.2,0.3-2.4,0.8-3.5v-0.1l0.1,0.1l1.4,1.3C590.6,198.1,590.8,198.2,591,198.4z"/>
	<path class="st4" d="M574.2,115.8c-1.6,17.5,8.5,33,12.5,40.7c0.6-4.1,0.6-8.2-0.2-12.2c0.3,1.7,1,3.3,2,4.7l7.9,12.1
		c-1.3-5.4-2.4-10.8-3.2-16.3c3.8,5.7,9.5,9.8,16,11.8c0,0-11-6.5-12.3-19.9s1.2-20.9,1.2-20.9"/>
	<path class="st2" d="M598,115.8c0,0.1,0,0.1,0,0.2c0,0.2-0.1,0.3-0.2,0.6c-0.1,0.5-0.3,1.3-0.5,2.4c-0.5,3-0.8,6.1-0.8,9.2
		c0,2,0.1,4.2,0.3,6.6c0.1,2.6,0.6,5.1,1.4,7.5c2,5.8,5.9,10.7,11,14.1l1.3,0.9l-1.5-0.4c-6.6-2-12.2-6.2-16.1-11.9l0.5-0.2
		c0.6,4.2,1.4,8.5,2.4,12.9l0.8,3.4l0.3,1.4l-0.8-1.2l-5.5-8.4l-2.7-4.1c-1-1.3-1.6-2.8-1.8-4.4l0.5-0.1c0.8,4.1,0.9,8.2,0.2,12.3
		l-0.1,0.7l-0.3-0.6c-2.9-5.1-5.5-10.4-7.9-15.8c-1.8-4.2-3.1-8.6-3.9-13.1c-0.5-2.9-0.7-5.9-0.7-8.8c0.1-1,0.1-1.8,0.2-2.3
		c0-0.3,0-0.4,0-0.6s0-0.2,0-0.2c0,0.1,0,0.1,0,0.2c0,0.2,0,0.3,0,0.6c0,0.6,0,1.3-0.1,2.3c0,2.9,0.3,5.9,0.8,8.8
		c0.9,4.5,2.2,8.8,4,13c2.4,5.4,5.1,10.6,8,15.7l-0.4,0.1c0.6-4,0.6-8.1-0.2-12.1l0.5-0.1c0.2,1.5,0.8,3,1.8,4.2l2.7,4.1l5.5,8.4
		l-0.5,0.2l-0.8-3.4c-1-4.4-1.8-8.8-2.4-13l-0.2-1.1l0.6,0.9c3.8,5.6,9.3,9.7,15.8,11.7l-0.2,0.4c-5.2-3.4-9.1-8.5-11.2-14.4
		c-0.8-2.5-1.3-5-1.4-7.6c-0.2-2.4-0.2-4.6-0.2-6.6c0-3.1,0.3-6.2,0.9-9.2c0.2-1,0.4-1.9,0.6-2.4c0.1-0.3,0.1-0.5,0.2-0.6
		C597.9,115.9,598,115.9,598,115.8z"/>
	<polygon class="st4" points="607.5,328.6 587.1,331.8 563.1,345.8 610.3,348.5 619.8,336.2 	"/>
	<path class="st2" d="M626.9,344.2c-0.1-0.1-0.3-0.2-0.4-0.3l-1.1-0.8l-4.1-3.2l-14-11.1l0.2,0.1l-11.6,1.8l-8.8,1.4h0.1L570,342
		l-5,2.9l-1.4,0.8c-0.1,0.1-0.3,0.2-0.5,0.2c0.1-0.1,0.3-0.2,0.4-0.3l1.3-0.8l5-3l17.1-10.1l0,0l0,0l8.8-1.4l11.6-1.8h0.1l0.1,0.1
		l13.9,11.3l4,3.3l1,0.9C626.6,344,626.7,344.1,626.9,344.2z"/>
	<g class="st7">
		<path class="st10" d="M735.1,329c0.1,0.2-2.1,1.1-6.2,2.6s-10,3.4-17.3,5.6s-16.2,4.6-26.2,6.9c-2.6,0.6-5.3,1-8,1.1
			c-2.9,0.1-5.8-0.4-8.5-1.6c-2.8-1.3-5.1-3.5-6.6-6.3c-0.8-1.5-1.1-3.1-1.1-4.7c0-0.4,0-0.9,0.1-1.3s0.2-0.9,0.3-1.2
			c0.2-0.7,0.5-1.5,0.8-2.2c0.6-1.3,1.1-2.6,1.5-3.9c0.2-0.5,0.2-1.1,0.2-1.7c0-0.4-0.2-0.8-0.5-1.1c-0.6-0.6-1.7-0.8-3.1-0.8
			s-2.8-0.1-4.1,0c-5.3,0.1-10.5,0.6-15.8,1.2c-10,1.3-19.2,2.6-27,2.7c-2,0.2-4-0.1-5.8-0.8c-0.2-0.1-0.4-0.2-0.7-0.4
			c-0.1-0.1-0.2-0.1-0.3-0.2l-0.2-0.1c-0.1-0.1-0.1-0.2-0.2-0.2c-0.2-0.3-0.4-0.7-0.3-1.1c0-0.3,0.1-0.6,0.2-0.8
			c0.3-0.8,0.8-1.5,1.3-2.2c1.6-2.1,3.4-4,5.4-5.8c3.2-3,5.1-4.4,5.2-4.3s-1.5,1.8-4.4,5c-1.8,1.9-3.4,3.9-4.9,6
			c-0.4,0.6-0.7,1.2-1,1.9c0,0.1-0.1,0.3-0.1,0.4c0,0.1,0,0.1,0,0.1c0,0,0,0-0.1,0h-0.1l0,0l0,0l0,0l0.1-0.1l0,0l0.1,0.1l0.2,0.1
			c0.2,0.1,0.3,0.2,0.5,0.3c1.6,0.6,3.3,0.7,5,0.5c7.6-0.4,16.6-1.8,26.7-3.2c5.3-0.8,10.6-1.2,16-1.4c1.4-0.1,2.8,0,4.3,0
			c0.8,0,1.6,0.1,2.3,0.2c0.9,0.2,1.8,0.6,2.5,1.3c0.7,0.7,1.2,1.7,1.3,2.7c0.1,0.9,0,1.8-0.2,2.6c-0.4,1.5-1,2.9-1.6,4.3
			c-0.3,0.6-0.5,1.3-0.7,1.9c-0.1,0.3-0.1,0.6-0.2,0.9s0,0.6-0.1,0.9c0,1.2,0.3,2.5,0.9,3.6c1.2,2.3,3.1,4.1,5.4,5.2
			c2.3,1,4.8,1.5,7.3,1.4c2.5-0.1,5-0.4,7.5-1c9.9-2.1,18.8-4.4,26.2-6.3s13.4-3.6,17.5-4.8S735,328.8,735.1,329z"/>
	</g>
</g>
<g id="fossils">
	<path class="st11" d="M505,383.2l-1.9,1.2c0,0-1.8,6.3-1.7,6.4s-8.5,6-7.8,8.6c0.4,1.3,0.9,3.9,1.3,6.2c0.5,2.4,2.1,4.4,4.4,5.4
		l5.6,2.2c1.8,0.7,3.8,0.5,5.4-0.6c2.7-1.9,6.7-4.8,7.5-5.9c1.2-1.8,2-9.3,2-9.5c0,0,0-0.1,0-0.2c-0.8-5.2-4.3-9.6-9.1-11.5
		L505,383.2z"/>
	<path class="st0" d="M502.8,394.1c-1.7,0.6-3.2,1.5-4.5,2.6c-1.4,1.2-2.2,2.8-2.4,4.5c0,1.1,0.2,2.1,0.6,3.1c1.2,3.2,3.9,6,7.3,6.5
		c1.4,0.1,2.7,0,4.1-0.3c4.1-0.9,8.3-3.3,9.6-7.3c0.4-1.2,0.5-2.5,0.5-3.7c0.1-3.8-1.4-7.5-4.1-10.2c-2.5-2.3-5.9-3.3-9.3-3.6
		L502.8,394.1z"/>
	<path class="st2" d="M505.4,400.1c-0.4,0.1-0.7,0.4-1,0.7c-0.3,0.4-0.4,0.8-0.4,1.3c0.1,0.6,0.4,1.2,0.9,1.5
		c1.4,0.9,3.2,0.6,4.4-0.5c0.7-0.6,1.2-1.5,1.4-2.4c0.2-1,0.1-2.1-0.3-3c-0.4-0.9-1.1-1.7-1.9-2.3c-0.8-0.5-1.7-0.9-2.6-1
		c-0.8-0.2-1.7-0.2-2.6-0.1c-0.7,0.1-1.5,0.3-2.1,0.7c-1,0.5-1.9,1.1-2.8,1.8l-0.7,0.6c-0.1,0.1-0.2,0.1-0.2,0.2
		c0.3-0.3,0.6-0.6,0.9-0.8c0.8-0.7,1.8-1.3,2.8-1.8c0.7-0.3,1.4-0.6,2.2-0.7c0.9-0.1,1.8-0.1,2.6,0.1c1,0.1,1.9,0.5,2.7,1
		c0.9,0.6,1.6,1.4,2,2.4c0.4,1,0.5,2.1,0.3,3.1c-0.2,1-0.8,1.8-1.5,2.5c-1.2,1.2-3.1,1.5-4.6,0.5c-0.5-0.4-0.9-1-0.9-1.6
		c0-0.5,0.1-1,0.4-1.4c0.2-0.2,0.4-0.4,0.7-0.6C505.2,400.1,505.3,400.1,505.4,400.1z"/>
	<path class="st2" d="M505.4,410.7c-0.2-1.1-0.2-2.2,0-3.2c0.1-0.9,0.3-1.7,0.5-2.3c0.1-0.3,0.1-0.6,0.3-0.9
		c-0.1,1.1-0.3,2.1-0.5,3.2c-0.1,0.7-0.2,1.5-0.2,2.3C505.4,410.1,505.4,410.4,505.4,410.7z"/>
	<path class="st2" d="M514.4,406.6c-0.6-0.8-1.3-1.5-2-2.2c-0.8-0.6-1.6-1.2-2.4-1.7c0.3,0.1,0.6,0.2,0.8,0.4
		c1.2,0.7,2.3,1.6,3.1,2.8C514.1,406.1,514.3,406.4,514.4,406.6z"/>
	<path class="st2" d="M517.6,396.7c0,0.2-1.5,0.3-3.4,0.7c-0.9,0.2-1.8,0.4-2.4,0.5c-0.3,0.1-0.7,0.2-1,0.2c0.3-0.2,0.7-0.3,1-0.4
		c0.8-0.2,1.6-0.4,2.4-0.6C516,396.8,517.6,396.7,517.6,396.7z"/>
	<path class="st2" d="M512.2,388c-0.3,0.2-0.7,0.4-1,0.7c-0.6,0.7-1.2,1.5-1.6,2.3c-0.5,0.8-0.9,1.7-1.2,2.6
		c-0.1,0.4-0.3,0.8-0.4,1.1c0-0.4,0.1-0.8,0.3-1.2c0.3-0.9,0.7-1.8,1.2-2.6c0.5-0.9,1-1.6,1.7-2.3c0.2-0.2,0.5-0.4,0.7-0.5
		C511.9,388.1,512.1,388,512.2,388z"/>
	<path class="st2" d="M505.8,401.3c0,0-0.1,0.1-0.3,0.2c-0.2,0.2-0.3,0.5-0.1,0.7c0.2,0.4,0.6,0.6,1,0.6c0.5,0,1-0.3,1.2-0.8
		c0.1-0.5,0-1-0.3-1.4c-0.2-0.3-0.6-0.6-1-0.6c-0.4,0-0.8,0-1.2,0.2c0,0,0.1-0.1,0.3-0.2c0.3-0.1,0.6-0.2,0.9-0.1c1,0.1,1.7,1,1.6,2
		c0,0.1,0,0.2,0,0.2c-0.3,0.7-1,1-1.7,0.8c-0.3-0.1-0.6-0.4-0.7-0.7c-0.2-0.3-0.1-0.7,0.2-0.9C505.7,401.4,505.7,401.3,505.8,401.3z
		"/>
	<path class="st2" d="M504.2,402.4c-0.4,0.2-0.7,0.3-1.1,0.4c-0.9,0.3-1.7,0.8-2.5,1.3c-0.8,0.5-1.5,1.2-2.2,1.9
		c-0.5,0.5-0.8,0.9-0.8,0.9c0-0.1,0.1-0.2,0.2-0.3c0.2-0.2,0.3-0.5,0.5-0.7c0.6-0.7,1.4-1.4,2.2-1.9c0.8-0.5,1.7-1,2.6-1.3
		c0.3-0.1,0.6-0.2,0.9-0.2C504,402.4,504.1,402.4,504.2,402.4z"/>
	<path class="st2" d="M504.9,400.3c-0.4-0.2-0.7-0.5-1-0.8c-0.3-0.3-0.6-0.6-1-0.9c-0.5-0.3-1-0.5-1.5-0.6c-1-0.1-2-0.1-3,0
		c-0.4,0.1-0.8,0.1-1.3,0.1c0.4-0.1,0.8-0.2,1.3-0.3c1-0.2,2.1-0.2,3.1,0c0.6,0.1,1.1,0.3,1.6,0.6c0.4,0.3,0.7,0.6,1,1
		C504.3,399.8,504.6,400.1,504.9,400.3z"/>
	<path class="st2" d="M505.9,394.7c0.2,0.2,0.3,0.4,0.4,0.7c0.3,0.6,0.4,1.2,0.5,1.9c0,0.7,0,1.3-0.2,2c-0.1,0.3-0.2,0.5-0.3,0.7
		c0.3-0.9,0.4-1.8,0.3-2.7C506.5,396.4,506.3,395.5,505.9,394.7z"/>
	<path class="st2" d="M510.8,401.3c-0.3,0.5-0.9,0.8-1.5,0.8c-0.6,0.1-1.2-0.1-1.6-0.6C508.6,402.1,509.9,402,510.8,401.3
		L510.8,401.3z"/>
	<path class="st2" d="M511.4,409.6c-0.3-1-0.7-2-1.1-2.9c-0.5-0.9-1-1.8-1.6-2.7c0.2,0.2,0.4,0.4,0.6,0.7c0.9,1.2,1.6,2.5,2,4
		C511.3,409,511.3,409.3,511.4,409.6z"/>
	<path class="st2" d="M517.3,403.3c-0.2-0.3-0.4-0.5-0.6-0.8c-0.5-0.7-1.2-1.2-2-1.5c-0.8-0.3-1.6-0.5-2.5-0.6
		c-0.3-0.1-0.7-0.1-1-0.3c0.3,0,0.7,0,1,0.1c0.9,0.1,1.7,0.3,2.5,0.5c0.8,0.3,1.5,0.8,2,1.6C516.9,402.6,517.1,402.9,517.3,403.3z"
		/>
	<path class="st2" d="M515.5,391.3c-1.2,0.6-2.3,1.3-3.3,2.1c-0.7,0.6-1.3,1.3-1.8,2.1c-0.4,0.6-0.5,1-0.6,1c0-0.1,0-0.2,0.1-0.3
		c0.1-0.3,0.2-0.5,0.4-0.8c0.5-0.8,1.1-1.6,1.8-2.1c0.7-0.6,1.5-1.1,2.4-1.5C514.7,391.5,515.1,391.4,515.5,391.3z"/>
	<path class="st2" d="M504.6,385.5c0.1,0.1,0.1,0.2,0.1,0.4c0.1,0.3,0.2,0.7,0.2,1c0.1,1.1,0.1,2.3,0,3.4c-0.1,1.2-0.5,2.3-1.2,3.2
		c-0.2,0.3-0.5,0.5-0.8,0.7c-0.1,0.1-0.2,0.1-0.4,0.1c0.4-0.2,0.8-0.5,1-0.9c0.6-0.9,1-2,1.1-3.1c0.1-1.1,0.2-2.3,0.1-3.4
		C504.7,386,504.5,385.5,504.6,385.5z"/>
	<g class="st12">
		<path d="M504.2,402.7c-0.2,0.6-0.1,1.2,0.3,1.6c0.4,0.4,1,0.7,1.5,0.7c2,0.1,4-0.9,5-2.6c0.9-1.2,1.2-2.7,1.1-4.2
			c-0.3-1.8-1.5-3.3-3.1-4c-1.7-0.7-3.5-0.7-5.2-0.1c1.6,0,3.2,0.3,4.6,1.1c0.3,0.2,0.7,0.5,0.9,0.8c0.8,0.7,1.4,1.6,1.6,2.6
			c0.1,0.9,0,1.9-0.3,2.7c-0.2,0.5-0.4,0.9-0.7,1.3c-1.1,1.2-2.8,1.6-4.4,1.1c-0.5-0.1-1.1-0.5-1.3-1"/>
	</g>
	<g class="st7">
		<path d="M666.8,396.6c0,0.1,0.1,0.1,0.2,0.2l0,0L666.8,396.6z"/>
	</g>
	<g class="st7">
		<path d="M693.5,429.3c-1.6-3.9-3.7-7.5-6.3-10.7c-6.2-7.7-15.1-13.3-20.2-21.7c-1.3-1.5-2.9-2.6-4.6-3.3
			c-5.5-2.2-11.3-1.9-17.2-1.5c-1,0-2.1,0.3-3,0.7c-1.1,0.7-2,1.8-2.5,3c-2.8,6.1-0.2,13.4-2.1,19.9c-0.4,1-0.6,2-0.6,3
			c0.3,1.3,0.9,2.5,1.9,3.4c5.4,6.3,10.9,12.6,17.6,17.5s14.8,8.3,23.1,7.9c3.7-0.1,7.3-1.3,10.4-3.4c3.1-2.2,5-5.7,5-9.5
			C694.7,432.7,694.3,430.9,693.5,429.3z"/>
	</g>
	<g class="st7">
		<path d="M667.2,397.1l1.5,2.1c-0.5-0.9-1.1-1.7-1.7-2.4l1.3,1.9L667.2,397.1z"/>
	</g>
	<path class="st0" d="M667,402.5l-5-6.3l-8.8-2.2l-9.7,2.6l-0.6,12.9l4,5c0,0,13,16.4,11.7,17.8s-14.9-17.9-14.9-17.9l-2.9,1.8
		l11.5,14.4c0,0,9.7,8.6,12.3,9.7c3.4,1.4,7,3.4,10.8,2.7c11-1.9-9.8-10.7-13.7-12.4s-10.7-12.6-11.8-14.5s0-4.8,2.4-4.2
		s6.2,8.4,7.6,12.1s7.8,6.5,13.6,9.4s18.2,3.5,18.2,3.5s1.9-4-2.3-9.4s-14-17-14-17 M669,412.8c-0.1,0.8-0.2,1.5-0.3,2.3
		c0,0.5-0.2,1.1-0.4,1.5c-0.4,0.7-1.1,1.2-1.8,1.6c-0.7,0.6-1.7,0.9-2.7,0.8c-0.5-0.1-0.9-0.3-1.3-0.6c-0.8-0.5-1.5-1.2-2-2
		c-0.5-1-0.7-2.1-0.6-3.2c0-1-0.1-2-0.1-3c-0.1-0.6,0-1.2,0.3-1.7c0.2-0.2,0.4-0.4,0.6-0.5l0,0c2-1.1,4.4-0.1,6.1,0.9
		c1,0.5,1.7,1.3,2.1,2.3C669.1,411.9,669.1,412.3,669,412.8z M688.3,432.6c-1.4,0.2-5.5-0.3-7-1.4c-1.4-0.8-2.2-2.5-1.7-4.1
		c0.1-0.8,0.5-1.6,1.1-2.2c0.2,0,1.3-1.5,4.1,1S689.7,432.4,688.3,432.6L688.3,432.6z"/>
	<path class="st0" d="M679.9,434.5c0,0-1.2,6.6,0,5.5s2.5-6,2.5-6l-2.9,0.3"/>
	<path class="st0" d="M684.1,435c0,0-1.2,6.6,0,5.4s2.5-6,2.5-6l-2.9,0.3"/>
	<path class="st0" d="M687.7,435.9c0,0-2.3,8.2-0.8,6.6s3.2-7,3.2-7L687.7,435.9z"/>
	<path class="st2" d="M668.6,419.9c-0.2,0.2-0.4,0.3-0.6,0.5c-0.6,0.4-1.2,0.7-1.9,0.9c-1,0.3-2.1,0.4-3.1,0.1
		c-1.3-0.3-2.3-1.1-3-2.2c-0.3-0.6-0.5-1.2-0.6-1.9c-0.1-0.6-0.2-1.2-0.3-1.8c-0.2-1.2-0.2-2.2-0.3-3.1s-0.1-1.6,0-2.1
		c0-0.2,0-0.4,0-0.6s0-0.2,0-0.2s0,0.3,0,0.8s0,1.2,0.1,2.1s0.2,1.9,0.3,3.1c0.1,1.3,0.4,2.5,0.9,3.6c0.6,1.1,1.7,1.9,2.9,2.2
		c1,0.2,2,0.2,3-0.1C667,420.9,667.8,420.4,668.6,419.9z"/>
	<path class="st2" d="M682.7,424.6l-0.2-0.1l-0.4-0.4l-1.5-1.4l-2.2-2.1l-1.3-1.2c-0.2-0.2-0.5-0.4-0.7-0.6
		c-0.3-0.1-0.6-0.1-0.9-0.1c-0.3,0-0.6,0.1-1,0.2c-0.3,0.1-0.7,0.1-1,0c-0.6-0.1-1.2-0.4-1.7-0.7c-0.9-0.6-1.6-1.3-2.1-2.2
		c-0.4-0.6-0.6-1.2-0.7-1.9c0-0.3,0-0.5,0-0.8c0.1,0.9,0.4,1.8,0.9,2.6c0.5,0.8,1.3,1.6,2.1,2.1c0.5,0.3,1,0.6,1.6,0.7
		c0.3,0.1,0.6,0.1,0.9,0c0.3-0.1,0.6-0.1,1-0.2c0.3-0.1,0.7,0,1,0.1c0.3,0.2,0.6,0.4,0.8,0.6l1.3,1.2l2.2,2.1l1.5,1.4l0.4,0.4
		C682.7,424.6,682.8,424.6,682.7,424.6z"/>
</g>
<g id="Heron">
	<path class="st2" d="M202.1,305.9c0,0,18.1,0.3,26,4.2l-3.4,0.3l0.4,0.9l-21.4,1.7L202.1,305.9z"/>
	<path class="st6" d="M186.6,325.3c-2.5,0.5-5.7-1.5-5.9-3.7c-0.6-6.8,9.3-6.6,9.3-6.6l13.7-2l-1.6-7.1c0,0-8.3-6.2-17.4-5.3
		c-4.4,0.4-8.5,2.3-11.6,5.3c-4.8,2.4-10.2,5.7-13.5,9.6c-1.1,1.1-1.8,2.5-2,4c3.9-1.7,7.5-4.2,10.6-7.2c-2.6,2.6-5,5.5-7.1,8.5
		c-0.9,1.1-1.5,2.4-1.8,3.7c-0.1,0.7-0.1,1.4-0.1,2.1c0,0.1,0,0.3,0.1,0.4c0.2,0.2,0.6,0,0.8-0.3l6.4-6.8c-1.4,3.3-1.8,7-2.2,10.6
		c-0.1,0.7-0.1,1.4,0.1,2c0.1,0.2,0.2,0.3,0.3,0.3s0.3-0.1,0.4-0.3c0.9-1.6,1.5-3.3,2-5.1c0.4-1.1,0.8-2.1,1.3-3.1
		c1.7,8.2,5.4,10.4,10.4,11.2c2.3,0.4,4.6,0.4,6.9,0c4-0.8,4.1,2.6,4,4.4l-1.8,10c0,0-5.8-5.2-17.6-3.7s-57.8,75-57.8,75
		s4.7,5.9,17.7-2.7c7.6-4.9,14.1-11.4,19-19.1c0,0,15,2.3,20.9-2.7s25.8-26,28-36.3c0,0,3.8-15.6,2.1-25
		C198,324.2,186.6,325.3,186.6,325.3z"/>
	<path class="st2" d="M178.8,357.5c0,0.2-0.1,0.5-0.2,0.7c-0.2,0.5-0.4,1.1-0.7,2c-0.6,1.7-1.6,4.1-2.9,7.1
		c-1.5,3.6-3.4,6.9-5.6,10.1c-1.3,1.9-2.8,3.7-4.4,5.3c-0.9,0.9-1.8,1.7-2.8,2.5c-0.5,0.4-1,0.8-1.6,1.1c-0.3,0.2-0.6,0.3-1,0.3
		c-0.2,0-0.4,0-0.6-0.1c-0.2-0.1-0.4-0.3-0.4-0.5l0.4,0.1c-1.4,1.7-2.9,3.6-4.3,5.5c-3.5,4.9-6.6,9.6-9.9,13.7
		c-2.8,3.7-5.9,7.1-9.4,10.1c-2.4,2-5,3.7-7.8,5.1c-0.8,0.4-1.5,0.7-2.3,1c-0.3,0.1-0.5,0.2-0.8,0.3c0.3-0.1,0.5-0.3,0.8-0.4
		c0.5-0.2,1.3-0.6,2.3-1.1c2.7-1.4,5.3-3.2,7.7-5.2c3.4-3,6.5-6.4,9.3-10.1c3.2-4.1,6.3-8.9,9.8-13.7c1.4-2,2.9-3.8,4.3-5.6l0.4-0.5
		v0.6c0,0.4,0.8,0.3,1.3,0s1-0.7,1.5-1.1c1-0.8,1.9-1.6,2.7-2.4c1.6-1.6,3.1-3.4,4.4-5.3c2.2-3.2,4.1-6.5,5.6-10c1.3-3,2.3-5.4,3-7
		c0.3-0.8,0.6-1.4,0.8-1.9C178.6,358,178.7,357.7,178.8,357.5z"/>
	<polygon class="st2" points="144.8,421 146.6,478.7 148.6,478.3 147.4,421.6 157.4,400.1 154.7,399.9 	"/>
	<circle class="st2" cx="146.6" cy="420.9" r="2.9"/>
	<polygon class="st2" points="150.4,421 152.3,478.7 154.3,478.3 153.1,421.6 163.2,399.5 160.6,399.9 	"/>
	<circle class="st2" cx="152.2" cy="420.9" r="2.9"/>
	<path class="st4" d="M225.1,310.4c-3.3,0.3-6.6,0.3-9.9,0.2c-3.3,0.1-6.6,0-9.9-0.3c3.3-0.3,6.6-0.3,9.9-0.2
		C218.6,310,221.9,310.1,225.1,310.4z"/>
	<path d="M158.7,385.9c1.9-3.5,5.1-10.3,6.9-13.9"/>
	<path class="st2" d="M134.4,399c0,0,0.7-0.3,1.9-0.8c1.8-0.8,3.4-1.8,5-2.9c3.9-2.8,8.8-7.5,14-12.8s9.9-10.2,12.9-14
		c1.2-1.5,2.3-3,3.4-4.7c0.7-1.1,1.1-1.8,1.1-1.8c0,0.2-0.1,0.3-0.2,0.5c-0.1,0.3-0.4,0.8-0.7,1.4c-1,1.7-2.1,3.3-3.3,4.8
		c-3,3.9-7.7,8.7-12.8,14.1s-10.1,10-14.2,12.7c-1.6,1.1-3.3,2-5.1,2.8c-0.5,0.2-1,0.4-1.5,0.5C134.8,399,134.6,399,134.4,399z"/>
	<path class="st2" d="M134.6,399.6c-0.1,0.4-0.3,0.7-0.5,1c-0.4,0.7-1,1.6-1.7,2.7c-1.9,2.9-4.1,5.8-6.3,8.5
		c-2.3,2.7-4.7,5.3-7.3,7.7c-1,0.9-1.8,1.6-2.4,2.1c-0.3,0.3-0.6,0.5-0.9,0.7c0.2-0.3,0.5-0.6,0.8-0.9l2.3-2.3
		c1.9-1.9,4.5-4.6,7.1-7.8s4.9-6.1,6.4-8.4l1.8-2.6C134.1,400.1,134.3,399.8,134.6,399.6z"/>
	<path class="st2" d="M147.5,391.1c-0.1,0.4-0.2,0.8-0.3,1.2c-0.4,1.1-0.8,2.2-1.3,3.2c-1.6,3.5-3.4,6.8-5.5,10
		c-2.1,3.2-4.3,6.2-6.8,9.1c-0.9,1.1-1.8,2-2.3,2.5c-0.3,0.3-0.6,0.6-0.9,0.9c0.2-0.4,0.5-0.7,0.8-1c0.5-0.6,1.3-1.5,2.2-2.6
		c1.8-2.3,4.2-5.5,6.6-9.2c2.1-3.2,3.9-6.4,5.6-9.8c0.6-1.3,1.1-2.4,1.4-3.1C147.1,391.9,147.3,391.5,147.5,391.1z"/>
	<path class="st2" d="M184.4,357.8c-0.1,0.1-0.6-0.3-1.6-0.6c-1.3-0.3-2.7-0.2-4,0.3c-1.3,0.5-2.4,1.2-3.5,2.1
		c-0.4,0.4-0.9,0.8-1.4,1.1c0.3-0.5,0.7-1,1.1-1.3c1-1,2.2-1.8,3.6-2.3c1.4-0.5,2.9-0.6,4.2-0.1C183.5,357,184,357.3,184.4,357.8z"
		/>
	<path class="st2" d="M197.6,337.1c0.3,0.5,0.3,1.2,0.2,1.7c-0.1,0.3-0.2,0.6-0.4,0.9c-0.1,0.1-0.3,0.3-0.4,0.4
		c-0.2,0.1-0.5,0.1-0.7,0c-0.2-0.1-0.3-0.3-0.4-0.5c-0.1-0.2-0.2-0.4-0.2-0.5c-0.1-0.4-0.2-0.8-0.3-1.2h0.5
		c-0.1,0.2-0.1,0.4-0.1,0.6c0,0.5-0.1,0.9-0.2,1.4c-0.2,0.5-0.5,0.8-1,1c-0.5,0.2-1,0-1.2-0.5c-0.2-0.3-0.3-0.6-0.4-1
		c-0.2-0.6-0.2-1.3,0.1-1.9c0.1,0.6,0.2,1.2,0.3,1.9c0.2,0.5,0.5,1.3,1.1,1.1c0.3-0.1,0.5-0.4,0.7-0.7c0.1-0.4,0.2-0.8,0.2-1.2
		c0-0.2,0.1-0.5,0.1-0.7l0.4-1.3l0.1,1.4c0,0.4,0.1,0.8,0.3,1.1c0.1,0.2,0.1,0.3,0.2,0.5c0,0.1,0.1,0.3,0.2,0.4
		c0.1,0.1,0.4-0.1,0.6-0.3c0.2-0.2,0.3-0.4,0.4-0.7C197.5,338.1,197.6,337.6,197.6,337.1z"/>
	<path class="st2" d="M197.2,342c0,0-0.1,0.3-0.5,0.5c-0.2,0.2-0.5,0.2-0.8,0.2c-0.4,0-0.7-0.3-0.9-0.6c-0.4-0.8-0.4-1.6-0.2-2.5
		c0.2,0,0.2,1.1,0.7,2.2c0.2,0.5,0.8,0.5,1.1,0.3S197.2,342,197.2,342z"/>
	<path class="st2" d="M177.4,317c0,0-0.1,0.1-0.3,0.4c-0.2,0.4-0.4,0.7-0.7,1c-0.2,0.2-0.6,0.3-0.9,0.3c-0.4-0.1-0.7-0.5-0.7-0.9
		c0-0.8,0.1-1.5,0.3-2.3l0.5,0.2c-0.1,0.2-0.2,0.5-0.4,0.7c-0.2,0.4-0.5,0.7-0.8,1.1c-0.3,0.4-0.7,0.6-1.2,0.7
		c-0.3,0-0.5-0.2-0.6-0.5c-0.1-0.2-0.1-0.4-0.1-0.6c0-0.3,0.1-0.7,0.2-1c0.2-0.6,0.5-1.2,1-1.6c0.1,0-0.4,0.6-0.7,1.7
		c-0.1,0.3-0.1,0.6-0.1,0.9c0,0.3,0.1,0.6,0.3,0.6c0.3-0.1,0.6-0.3,0.8-0.5c0.3-0.3,0.5-0.6,0.8-1c0.1-0.2,0.2-0.4,0.4-0.6l0.5,0.2
		c-0.2,0.7-0.3,1.4-0.3,2.1c0,0.3,0.1,0.5,0.3,0.5c0.2,0,0.4,0,0.6-0.2c0.3-0.3,0.5-0.5,0.8-0.8C177.2,317,177.4,317,177.4,317z"/>
	<path class="st2" d="M178.6,310.4c0,0.1-0.1,0.3-0.5,0.5c-0.5,0.3-1.2,0.3-1.7,0c-0.3-0.2-0.4-0.5-0.4-0.9c0-0.2,0-0.5,0.1-0.7
		c0.1-0.4,0.3-0.6,0.4-0.6s0,0.3,0,0.6s-0.1,0.9,0.3,1.1c0.4,0.2,0.8,0.2,1.2,0.1C178.3,310.4,178.6,310.3,178.6,310.4z"/>
	<g class="st12">
		<path d="M148.9,399.5c0,0,0.3,0.7,4.7-3s5.7-6.8,5.7-6.8c4.2-1.2,7.8-3.7,10.3-7.2c4.2-5.9,10.8-25.7,10.8-25.7l-1.6,0.7
			c0,0-6.9,23.2-20.8,29.6L148.9,399.5z"/>
	</g>
	<path class="st2" d="M193.4,369.9c-0.1,0.2-0.2,0.4-0.3,0.5c-0.3,0.5-0.6,1-0.9,1.4c-0.8,1.2-2.1,2.9-3.7,4.9
		c-3.3,4.1-7.9,9.6-13.2,15.5c-1.3,1.4-2.7,2.7-4.2,4c-1.4,1.2-3,2.1-4.8,2.6c-1.7,0.5-3.3,0.8-4.8,1.1c-1.4,0.3-2.8,0.4-4.3,0.5
		c-2.1,0.1-4.1,0-6.2-0.4c-0.7-0.1-1.3-0.3-1.6-0.4c-0.2,0-0.4-0.1-0.6-0.2c0.2,0,0.4,0,0.6,0.1c0.4,0.1,0.9,0.2,1.6,0.3
		c2,0.3,4.1,0.3,6.1,0.2c1.4-0.1,2.8-0.3,4.2-0.5c1.5-0.3,3.1-0.7,4.7-1.1c3.3-0.9,6-3.7,8.8-6.5c5.3-5.9,10-11.3,13.3-15.3
		c1.7-2,3-3.7,3.8-4.8S193.4,369.9,193.4,369.9z"/>
	<g class="st12">
		<path d="M202.3,306.5c-0.2-0.1-12.6-1.2-12.6-1.2l0.9,6.8l13.1,0.4L202.3,306.5z"/>
	</g>
	<path class="st10" d="M193.1,308.7c0,1.9-1.5,3.4-3.4,3.4c-1.9,0-3.4-1.5-3.4-3.4c0-1.9,1.5-3.4,3.4-3.4c0,0,0,0,0,0
		C191.6,305.3,193.1,306.8,193.1,308.7z"/>
	<path class="st2" d="M191.5,308.7c0,1-0.8,1.9-1.9,1.8s-1.9-0.8-1.8-1.9c0-1,0.8-1.9,1.9-1.9C190.7,306.8,191.5,307.7,191.5,308.7z
		"/>
</g>
<g id="Duck">
	<path class="st6" d="M317.1,419.6c-1,0.1-2.1-0.1-3.1-0.4c-0.7-0.3-1.3-0.8-1.9-1.3c-0.7-0.5-2.5-0.5-3-1.2c-0.6-0.8-1-1.8-1.1-2.8
		l-1.5,1c1.9,5.7,6.9,9.7,12.9,10.3c-0.6-0.9-0.4-2,0.4-2.6c0.3-0.2,0.7-0.4,1.2-0.4c-0.3-0.8,0-1.7,0.7-2.1
		c0.7-0.5,1.4-0.8,2.2-0.9C321.7,419.5,319.4,419.6,317.1,419.6z"/>
	<g class="st12">
		<path d="M317.1,419.6c-1,0.1-2.1-0.1-3.1-0.4c-0.7-0.3-1.3-0.8-1.9-1.3c-0.7-0.5-2.5-0.5-3-1.2c-0.6-0.8-1-1.8-1.1-2.8l-1.5,1
			c1.9,5.7,6.9,9.7,12.9,10.3c-0.6-0.9-0.4-2,0.4-2.6c0.3-0.2,0.7-0.4,1.2-0.4c-0.3-0.8,0-1.7,0.7-2.1c0.7-0.5,1.4-0.8,2.2-0.9
			C321.7,419.5,319.4,419.6,317.1,419.6z"/>
	</g>
	<path class="st6" d="M313.5,422.5c-1.1-0.1-2.1-0.4-3-0.9c-0.6-0.4-1.2-1-1.7-1.6c-0.6-0.6-2.4-0.9-2.8-1.7
		c-0.5-0.9-0.7-1.9-0.6-2.9l-1.6,0.7c0.9,5.9,5.3,10.7,11.1,12.2c-0.5-0.9-0.1-2.1,0.8-2.6c0.4-0.2,0.8-0.3,1.3-0.2
		c-0.1-0.8,0.3-1.6,1-2c0.7-0.3,1.5-0.5,2.4-0.5C318,423,315.8,422.8,313.5,422.5z"/>
	<path class="st4" d="M272.1,387.9c0,0,0.2-6.8,5.4-7.8c0,0,7.9-2.9,11.3,3.3s-1.4,12.4-1.4,12.4l-1.1,4.2l-12,3.4l5.5-10.1
		c0,0-3.4,0-4.7-0.7S272.1,387.9,272.1,387.9z"/>
	<path class="st6" d="M273.7,386.1c0,0,1,0.3,0.9,1.8s-0.8,2.6,0.2,3.1s2.3,1.3,2.3,1.3s-4.9,1-7.4,1.3s-6.1,0-6.6-0.4
		s-1-0.5-0.7-1.2s0.7-1,3.3-0.9s6.4-3.8,6.7-5C272.5,385.6,273.7,386.1,273.7,386.1z"/>
	<path class="st2" d="M279.8,385c0.4-0.3,0.9-0.1,1.2,0.3c0,0,0,0.1,0,0.1c0.2,0.5,0.2,1,0,1.4c0,0.3-0.2,0.6-0.4,0.9
		c-0.2,0.3-0.5,0.4-0.8,0.3c-0.4-0.1-0.6-0.7-0.7-1.1c-0.1-0.4-0.1-0.7,0-1.1c0.1-0.4,0.5-0.9,0.9-0.9"/>
	<path class="st6" d="M337.8,402.8c-6.3,7.4-14.4,12.3-24.4,12.8c-9.7,0.4-18.7,1.9-28.4,0.6c-3.5-0.4-6.7-1.9-9.2-4.3
		c-2.4-2.5-3.3-6.7-1-9.3c0,0,9.3-6.4,16.1-8.3c11.5-3.2,36.5-1.9,39.1-0.2l-1.3,1.3l11.8,4.1L337.8,402.8z"/>
	<path class="st2" d="M287.7,401.5l0.2-0.1l0.6-0.4c0.5-0.4,1.3-0.9,2.3-1.5c1.2-0.7,2.5-1.4,3.9-1.9c0.8-0.4,1.7-0.6,2.5-0.9
		c1-0.3,2-0.4,3-0.5c5-0.2,10-0.1,15,0.2c2.8,0.2,5.8,0.4,8.9,0.8c1.6,0.2,3.1,0.7,4.6,1.4c1.5,0.7,2.8,1.9,3.7,3.2l0.2,0.3h-0.3
		l-4.4,0.2v-0.4h0.2l4,0.8l0.3,0.1l-0.2,0.2c-2.1,2.5-4.6,4.7-7.4,6.3c-2.6,1.5-5.4,2.8-8.3,3.6c-2.6,0.8-5.3,1.3-7.9,1.6
		c-2.3,0.3-4.7,0.5-7,0.5c-1.9,0-3.9-0.2-5.8-0.6c-1.4-0.3-2.8-0.8-4.1-1.5c-0.8-0.4-1.6-0.9-2.3-1.5c-0.3-0.2-0.5-0.4-0.7-0.6
		c0,0,0.3,0.2,0.8,0.6c0.7,0.5,1.5,1,2.3,1.4c1.3,0.6,2.7,1.1,4.1,1.4c1.9,0.4,3.8,0.6,5.7,0.6c2.3,0,4.7-0.2,7-0.5
		c2.7-0.3,5.3-0.9,7.9-1.7c2.9-0.9,5.6-2.1,8.2-3.6c2.8-1.7,5.2-3.8,7.3-6.3l0.1,0.3l-4-0.8h-0.2l-1.5-0.3l1.5-0.1l4.4-0.2L332,402
		c-0.9-1.3-2.1-2.4-3.6-3.1c-1.4-0.7-2.9-1.2-4.4-1.4c-3.1-0.4-6-0.6-8.9-0.8c-5.6-0.3-10.7-0.5-14.9-0.3c-1,0-2,0.2-3,0.4
		c-0.9,0.2-1.7,0.5-2.5,0.8c-1.3,0.5-2.6,1.2-3.9,1.9c-1,0.6-1.8,1.1-2.3,1.4l-0.6,0.4L287.7,401.5z"/>
	<path class="st2" d="M301.5,406.1c1.6,0.6,3.3,1.2,5,1.6c1.7,0.3,3.4,0.5,5.2,0.5c-0.5,0.1-1,0.2-1.5,0.2c-1.2,0-2.5-0.1-3.7-0.4
		c-1.2-0.3-2.4-0.6-3.5-1.2C302.4,406.7,302,406.4,301.5,406.1z"/>
	<path class="st2" d="M296.7,406.6c0.5,0.2,1,0.5,1.4,0.8c1.2,0.6,2.4,1,3.7,1.3c1.3,0.2,2.6,0.3,3.9,0.1c0.5-0.1,1.1-0.2,1.6-0.2
		c-0.5,0.2-1,0.4-1.6,0.5c-1.3,0.2-2.7,0.2-4,0c-1.3-0.2-2.6-0.7-3.8-1.4C297.6,407.3,297.1,407,296.7,406.6z"/>
	<path class="st2" d="M293.6,407.2c1.2,0.8,2.6,1.3,4,1.8c1.4,0.3,2.9,0.4,4.3,0.3c-0.4,0.2-0.8,0.3-1.3,0.3c-2.1,0.2-4.2-0.3-6-1.5
		C294.3,407.8,293.9,407.5,293.6,407.2z"/>
	<g class="st7">
		<path d="M331.7,403.3c-0.6,2.2-2,4-3.8,5.4c-1.7,1.4-3.5,2.7-5.6,3.6c-4.7,1.8-9.6,2.9-14.6,3.1c-5.1,0.3-10.8,1.1-15.6-0.7
			c-2.7-1.1-4.1-3.4-5.5-6c0,0,4.5,8.5,22.2,5.9S331.7,403.3,331.7,403.3z"/>
	</g>
	<g class="st7">
		<path d="M315.1,408.3c-1.4-0.4-2.9-0.9-4.3-1.3c0.3,0.1,0.6,0.2,0.8,0.4c0.2,0.2,0.3,0.4,0.1,0.7c0,0,0,0,0,0.1
			c-0.2,0.2-0.4,0.1-0.6,0.1c-1.4,0.1-2.8,0-4.2-0.2c0.2-0.1,0.4,0.2,0.3,0.4c-0.1,0.2-0.3,0.3-0.5,0.3c-1.8,0.5-3.7,0.5-5.5,0
			l0.3,0.4c-2.2,0.7-4.5-0.4-6.8-1.1c0.5,1,1.2,1.9,2.2,2.5c1,0.4,2,0.7,3,0.9c0.9,0.2,1.8,0.1,2.5-0.2c0.3-0.2,0.5-0.4,0.9-0.5
			c0.5,0,1.1,0.1,1.5,0.4c1.3,0.6,2.9,0.4,4.1-0.4c0.2-0.2,0.5-0.4,0.8-0.5c0.5-0.1,1.1-0.1,1.6,0.1c0.9,0.3,1.8,0.4,2.7,0.2
			c0.9-0.2,1.4-1.2,1.2-2C315.1,408.4,315.1,408.3,315.1,408.3"/>
	</g>
	<path class="st10" d="M295.3,395.4c0.4-0.1,0.8-0.2,1.2-0.3c0.8-0.1,1.9-0.3,3.2-0.5c3.5-0.5,7.1-0.7,10.7-0.8
		c3.6,0,7.2,0.2,10.7,0.7c1.4,0.2,2.5,0.4,3.2,0.5c0.4,0.1,0.8,0.1,1.2,0.3c-0.4,0-0.8,0-1.2-0.1c-0.8-0.1-1.9-0.3-3.2-0.4
		c-7.1-0.8-14.3-0.8-21.3,0c-1.4,0.2-2.5,0.3-3.2,0.4C296.1,395.3,295.7,395.4,295.3,395.4z"/>
	<path class="st10" d="M303.7,413c0.3,0,0.7-0.1,1-0.1c0.6,0,1.6-0.1,2.7-0.2s2.5-0.3,4-0.5c1.6-0.3,3.2-0.7,4.8-1.2
		c1.6-0.5,3.1-1.1,4.6-1.8c1.2-0.6,2.4-1.2,3.6-1.9c1-0.6,1.8-1.1,2.3-1.4c0.3-0.2,0.6-0.4,0.9-0.5c-0.2,0.2-0.5,0.4-0.8,0.6
		c-0.7,0.6-1.5,1.1-2.3,1.5c-1.2,0.7-2.3,1.4-3.6,2c-1.5,0.7-3,1.3-4.6,1.8c-1.6,0.5-3.2,0.9-4.8,1.2c-1.3,0.2-2.7,0.4-4,0.5
		c-1.2,0.1-2.1,0.1-2.7,0C304.4,413.1,304,413.1,303.7,413z"/>
	<path class="st10" d="M299.2,412.8c0-0.1,0.5,0,1.1,0s1,0.1,1.1,0.2s-0.5,0.2-1.1,0.1S299.1,412.9,299.2,412.8z"/>
	<path class="st10" d="M308.4,407.4c0-0.1,0.3-0.1,0.6-0.1s0.5,0.1,0.5,0.2s-0.3,0.1-0.6,0.1S308.4,407.5,308.4,407.4z"/>
	<path class="st10" d="M302.5,407.8c0-0.1,0.3-0.1,0.7,0s0.6,0.3,0.6,0.4s-0.3,0.1-0.7,0S302.5,407.8,302.5,407.8z"/>
	<path class="st10" d="M297.8,408.5c0-0.1,0.3-0.1,0.5,0s0.4,0.3,0.4,0.4s-0.3,0.1-0.5,0S297.7,408.6,297.8,408.5z"/>
	<path class="st4" d="M279.7,393.2l2.3,4.8c-3.4,2.5-3.9,5-4.2,7.9c-0.2,2.9,0.3,5.8,1.6,8.5c-2.9-1.3-5.9-4.3-6.4-7.4
		C272.3,402.3,277.9,395.9,279.7,393.2z"/>
	<path class="st2" d="M262.4,392.7c0.6,0.2,1.1,0.3,1.7,0.4c1.4,0.1,2.9,0,4.3-0.4c1.4-0.3,2.8-0.7,4.1-1.3c0.5-0.3,1.1-0.5,1.7-0.6
		c-0.5,0.4-1,0.6-1.6,0.9c-1.3,0.6-2.7,1.1-4.2,1.4c-1.4,0.4-2.9,0.5-4.4,0.3c-0.4-0.1-0.9-0.2-1.3-0.4
		C262.5,392.8,262.4,392.7,262.4,392.7z"/>
	<path class="st2" d="M277.4,408.7c-0.2-0.5-0.3-1.1-0.3-1.7c0-1.4,0.2-2.8,0.7-4.1c0.5-1.3,1.3-2.5,2.2-3.5
		c0.4-0.4,0.8-0.8,1.3-1.1c0,0-0.5,0.5-1.2,1.2c-0.9,1-1.6,2.2-2.1,3.4c-0.5,1.3-0.8,2.6-0.8,3.9C277.4,408,277.5,408.6,277.4,408.7
		z"/>
	<path class="st2" d="M285.2,393.4c-0.1-0.1,0.4-0.6,0.8-1.3s0.8-1.3,0.9-1.2c0,0.5-0.2,1-0.6,1.4
		C285.8,393,285.3,393.4,285.2,393.4z"/>
	<path class="st2" d="M284.2,393.9c-0.1,0,0.2-0.5,0.6-1.1s0.8-0.9,0.9-0.8s-0.2,0.5-0.6,1.1S284.3,393.9,284.2,393.9z"/>
	<path class="st2" d="M282.8,394.5c-0.1-0.1,0.3-0.5,0.8-1s0.8-1,0.8-1s-0.1,0.6-0.6,1.2S282.8,394.5,282.8,394.5z"/>
	<path class="st10" d="M283,381c0.4-0.1,0.8-0.1,1.1,0.1c0.9,0.2,1.7,0.7,2.4,1.3c0.7,0.6,1.2,1.4,1.5,2.3c0.1,0.4,0.2,0.7,0.2,1.1
		c-0.2-0.3-0.3-0.7-0.4-1c-0.3-0.8-0.9-1.5-1.5-2.1c-0.6-0.6-1.4-1-2.2-1.3C283.7,381.3,283.3,381.1,283,381z"/>
	<path class="st10" d="M271.8,389.6c-0.1-0.1,0.2-0.4,0.5-0.7s0.7-0.5,0.8-0.4s-0.2,0.4-0.5,0.7S271.9,389.6,271.8,389.6z"/>
	<path class="st2" d="M343.1,434.6c0,0,0.2,0.2,0.6,0.5c0.6,0.4,1.3,0.7,2.1,0.8c1.2,0.2,2.4,0,3.4-0.6c1.3-0.9,2.2-2.2,2.4-3.8
		c0.2-1.9-0.5-3.8-1.9-5c-0.8-0.7-1.7-1.2-2.7-1.5c-1.1-0.3-2.2-0.4-3.3-0.3c-2.4,0.1-4.8,0.7-7,1.7c-2.3,1.1-4.6,2.4-6.9,3.7
		c-4.4,2.6-9.3,4.2-14.4,4.8c-2.2,0.2-4.5,0-6.6-0.5c-1.9-0.4-3.7-1.1-5.4-2.1c-2.5-1.4-4.5-3.3-6-5.8c-0.5-0.9-1-1.8-1.2-2.8
		c0.4,0.9,0.9,1.8,1.4,2.7c1.5,2.3,3.6,4.2,6,5.5c1.7,0.9,3.5,1.6,5.3,2c2.1,0.5,4.3,0.6,6.5,0.4c5-0.5,9.8-2.2,14.2-4.7
		c2.2-1.4,4.5-2.6,6.9-3.8c2.3-1,4.7-1.5,7.2-1.7c1.2-0.1,2.3,0,3.5,0.3c1.1,0.3,2.1,0.8,2.9,1.6c1.5,1.3,2.3,3.4,2,5.4
		c-0.2,1.6-1.2,3.1-2.6,4c-1.1,0.6-2.3,0.8-3.5,0.6c-0.8-0.1-1.5-0.5-2.1-0.9C343.5,435,343.3,434.8,343.1,434.6z"/>
	<path class="st2" d="M356.6,422c0,0,0.1-0.1,0.3-0.2c0.4-0.1,0.8,0,1.1,0.1c0.5,0.3,0.9,0.8,0.9,1.4c0,0.7-0.5,1.4-1.2,1.6
		c-0.7,0.2-1.5,0-1.9-0.6c-0.3-0.5-0.5-1-0.5-1.6c0-0.4,0.1-0.7,0.4-1c0.2-0.2,0.4-0.1,0.4-0.1s-0.1,0.1-0.3,0.2
		c-0.2,0.3-0.2,0.6-0.2,0.9c0,0.5,0.2,0.9,0.4,1.3c0.4,0.4,0.9,0.6,1.4,0.4c0.5-0.2,0.9-0.6,0.9-1.2c0-0.4-0.2-0.9-0.6-1.1
		C357.5,422.1,357.1,422,356.6,422z"/>
</g>
<g id="Water">
	<path class="st3" d="M280.2,416.9c-22.5,3-45.7,5.3-67.5-0.8C176,405.8,128.1,394.8,85,394.5c-26-0.2-48,0-73.4,5v10.8
		c0,0,41.2-11.3,73.1-10.8s83.7,26.6,138.6,28s72.5-7.8,94.3-11.2s48.5-11.9,74.8-7.8l32.4,5v-7C377.3,397,329.4,410.3,280.2,416.9z
		 M180.8,419.3c-2.1-0.2-3.5-2.1-3.3-4.1s2.1-3.5,4.1-3.3c1.9,0.2,3.3,1.8,3.3,3.7C184.8,417.7,183,419.4,180.8,419.3z M190.4,417.3
		c-1-0.1-1.7-1-1.6-1.9s1-1.7,1.9-1.6c0.9,0.1,1.6,0.8,1.6,1.7C192.3,416.6,191.4,417.4,190.4,417.3L190.4,417.3z"/>
	<path class="st2" d="M418.9,405.4l-1-0.1l-3.1-0.4c-2.7-0.3-6.7-1-11.9-1.2l-4.1-0.2l-2.2-0.1h-2.3c-3.1,0-6.6-0.1-10.3,0
		s-7.6,0.3-11.8,0.6l-6.4,0.5l-3.3,0.3c-1.1,0.1-2.3,0.3-3.4,0.4l-7.1,0.8c-2.4,0.3-4.9,0.7-7.4,1c-5,0.7-10.2,1.5-15.6,2.4
		l-34.3,5.9c-6,1-12.3,2-18.6,2.8l-4.8,0.5c-0.8,0.1-1.6,0.2-2.4,0.3l-2.5,0.1l-4.9,0.3c-1.6,0-3.3,0-5,0s-3.4,0-5-0.1l-5.1-0.2
		l-10.3-0.5c-6.9-0.4-13.9-0.9-20.9-2l-2.6-0.5l-2.6-0.5c-1.7-0.4-3.4-0.8-5.1-1.3l-10.1-2.6c-6.7-1.6-13.3-3.3-19.8-4.7
		s-12.9-2.8-19.2-4.1c-6.3-1.1-12.5-2.3-18.6-3.3s-12-1.7-17.8-2.5c-5.8-0.6-11.4-1.3-16.8-1.6c-10.9-0.9-21-1-30.3-1.1l-6.8,0.2
		c-2.2,0.1-4.3,0.1-6.4,0.2l-6.1,0.4c-2,0.1-3.9,0.2-5.7,0.4l-10.2,1l-8.6,1.1l-3.6,0.5l-3.2,0.5l-5,0.8l-3.1,0.5
		c-0.7,0.1-1.1,0.1-1.1,0.1s0.4-0.1,1-0.2l3.1-0.5l5-0.9l3.2-0.5l3.6-0.5l8.6-1.2l10.2-1c1.8-0.2,3.7-0.3,5.7-0.4l6.1-0.4
		c2.1-0.2,4.2-0.2,6.4-0.2l6.8-0.2c9.3,0,19.5,0.1,30.3,1c5.4,0.3,11.1,1,16.8,1.6c5.8,0.8,11.7,1.5,17.8,2.5s12.3,2.1,18.6,3.2
		s12.7,2.5,19.2,4.1s13.1,3.1,19.8,4.7l10.1,2.6c1.7,0.4,3.4,0.9,5.1,1.3l2.6,0.5l2.6,0.5c7,1.1,14,1.6,20.8,2l10.3,0.5l5.1,0.2
		c1.7,0.1,3.4,0.1,5,0.1s3.3,0.1,5,0l4.9-0.3l2.4-0.1c0.8-0.1,1.6-0.2,2.4-0.3l4.8-0.5c6.4-0.8,12.6-1.7,18.6-2.7l34.3-5.9
		c5.4-0.8,10.6-1.7,15.6-2.4c2.5-0.3,5-0.7,7.4-1l7.1-0.8c1.2-0.1,2.3-0.3,3.4-0.4l3.4-0.3l6.4-0.5c4.2-0.3,8.1-0.4,11.8-0.5
		s7.1,0,10.3,0h2.3l2.2,0.1l4.1,0.3c5.2,0.2,9.2,0.9,11.9,1.3l3.1,0.4C418.6,405.3,418.9,405.4,418.9,405.4z"/>
</g>
<g id="Rock">
	<polygon class="st3" points="374.3,452.6 353.7,440.8 317.5,454 288.2,478 395.2,478 	"/>
	<polygon class="st0" points="288.2,478 325.3,456.5 374.3,452.6 352.9,439.9 317.5,454 	"/>
	<polygon class="st0" points="341.9,478.1 360.1,465.8 377,464.6 362.9,467.7 355.8,478 	"/>
	<path class="st2" d="M377.6,464.3c-0.4,0.1-0.9,0.2-1.3,0.2l-3.7,0.3l-12.4,1h0.1l-2,1.4c-4.6,3.1-8.7,5.9-11.7,7.9l-3.6,2.4
		l-1,0.6c-0.2,0.1-0.4,0.2-0.4,0.2c0.1-0.1,0.2-0.2,0.3-0.3l0.9-0.7l3.5-2.5c3-2.1,7.1-4.9,11.6-8l2-1.4h0h0.1l12.5-0.8l3.7-0.2
		C376.7,464.4,377.1,464.3,377.6,464.3z"/>
	<path class="st2" d="M374.3,452.5c0,0,0.1,0.1,0.4,0.4l1.1,1.3l4.2,5l15.7,18.8l0.1,0.2h-0.2h-87.4h-20.3l0.3-0.2l29.2-23.9l0,0
		l35.3-14.2l0,0l0,0l15.9,9.4l4.2,2.5l1.1,0.6l0.4,0.2l-0.4-0.2l-1.1-0.6l-4.2-2.5l-15.9-9.3h0.1l-35.3,14.3l0,0l-29.1,23.9
		l-0.1-0.3H308l87.4,0.1l-0.1,0.2c-6.6-8-11.9-14.4-15.6-18.8l-4.2-5.1l-0.9-1.3L374.3,452.5z"/>
</g>
<g id="Mosquitoes">
	<path class="st6" d="M416.9,241.6c-3.1,0-5.2,3.1-6.4,5.9c-1.1,2.9-0.8,6.2,0.9,8.8c2.2,3.5,6.1,5.6,10.2,5.5
		c4.1-0.3,7.8-2.9,9.4-6.7c1.5-3.9,0.5-8.3-2.5-11.2c-3.8-3.5-7.7-4.1-12.7-2.2"/>
	<g class="st13">
		<path class="st10" d="M416.9,241.6c-3.1,0-5.2,3.1-6.4,5.9c-1.1,2.9-0.8,6.2,0.9,8.8c2.2,3.5,6.1,5.6,10.2,5.5
			c4.1-0.3,7.8-2.9,9.4-6.7c1.5-3.9,0.5-8.3-2.5-11.2c-3.8-3.5-7.7-4.1-12.7-2.2"/>
	</g>
	<path class="st10" d="M419.4,249.2c-0.4-4.8-1.7-9.4-3.9-13.6c-0.7-1.5-1.7-2.8-3-3.8c-1.6-1.4-4-1.2-5.4,0.4
		c-0.8,0.9-1.1,2.2-0.8,3.4c0.3,1.5,0.9,3,1.8,4.2C410.7,244.1,414.3,246.8,419.4,249.2"/>
	<path class="st2" d="M419.4,249.2c-0.2,0-0.3-0.1-0.5-0.2c-0.3-0.1-0.7-0.3-1.3-0.6c-1.6-0.8-3.1-1.7-4.5-2.7
		c-2.1-1.5-3.9-3.5-5.3-5.6c-0.9-1.3-1.6-2.7-1.9-4.2c-0.4-1.7,0.2-3.5,1.6-4.7c0.7-0.5,1.6-0.7,2.5-0.6c0.8,0.1,1.7,0.4,2.4,0.8
		c1.3,0.9,2.3,2.1,3,3.6c1.2,2.3,2.2,4.7,2.9,7.2c0.5,1.7,0.8,3.4,1,5.1c0.1,0.6,0.1,1.1,0.1,1.4c0,0.2,0,0.3,0,0.5
		c-0.1-0.6-0.2-1.2-0.3-1.9c-0.3-1.7-0.7-3.4-1.1-5c-0.7-2.4-1.7-4.8-2.9-7c-0.7-1.3-1.6-2.5-2.8-3.3c-1.3-0.9-2.9-1-4.3-0.2
		c-1.2,1-1.7,2.6-1.4,4.1c0.3,1.4,0.9,2.8,1.8,4c1.4,2.1,3.1,4,5.1,5.6c1.4,1,2.8,2,4.3,2.8C418.3,248.6,418.9,248.9,419.4,249.2z"
		/>
	<path class="st10" d="M422.8,249.2c4.7-0.9,9.2-2.8,13.1-5.5c1.4-0.9,2.6-2,3.4-3.5c0.8-1.5,0.7-3.3-0.3-4.6
		c-1.1-1.1-2.8-1.6-4.3-1.1c-1.5,0.5-2.8,1.3-4,2.3C426.9,240,424.6,243.8,422.8,249.2"/>
	<path class="st2" d="M422.8,249.2c0-0.2,0-0.3,0.1-0.5c0.1-0.3,0.2-0.8,0.4-1.3c0.6-1.6,1.3-3.2,2.2-4.7c1.3-2.3,3-4.3,5-5.9
		c1.1-1,2.5-1.9,4-2.4c1.7-0.6,3.5-0.2,4.8,1c0.6,0.7,0.9,1.6,0.9,2.4c0,0.9-0.2,1.7-0.5,2.5c-0.8,1.4-1.9,2.5-3.2,3.4
		c-2.1,1.5-4.4,2.7-6.8,3.7c-1.6,0.7-3.3,1.2-5,1.6c-0.6,0.1-1.1,0.2-1.4,0.3C423.1,249.1,423,249.1,422.8,249.2
		c0-0.1,0.6-0.3,1.8-0.6c1.7-0.5,3.3-1,4.9-1.7c2.3-1,4.6-2.3,6.6-3.8c1.2-0.8,2.3-1.9,3-3.2c0.7-1.4,0.6-3-0.3-4.3
		c-1.1-1.1-2.8-1.4-4.2-0.9c-1.4,0.5-2.7,1.3-3.8,2.3c-2,1.6-3.7,3.5-5,5.7c-0.9,1.5-1.6,3-2.3,4.6
		C423.4,248,423.1,248.6,422.8,249.2z"/>
	<path class="st6" d="M419.4,248.3c-1.1,0-2,1.2-2.4,2.2c-0.4,1.1-0.3,2.3,0.3,3.3c0.8,1.3,2.3,2.1,3.9,2.1c1.6-0.1,2.9-1.1,3.5-2.5
		c0.6-1.5,0.2-3.1-0.9-4.2c-1.3-1.3-3.2-1.6-4.8-0.8"/>
	<path class="st10" d="M415.7,259.2c-0.6-0.2-1.1-0.6-1.6-1.1c-1.1-1.1-2-2.4-2.6-3.8c-0.6-1.5-0.8-3.1-0.5-4.6
		c0.1-0.6,0.4-1.3,0.8-1.7c0.1,0.1-0.3,0.7-0.4,1.8c-0.2,1.5,0,3,0.6,4.3C413.3,257.4,415.8,259,415.7,259.2z"/>
	<path class="st10" d="M419.1,260.3c0,0.2-0.4,0.4-1,0.3s-0.9-0.5-0.8-0.6s0.5,0,0.9,0S419.1,260.2,419.1,260.3z"/>
	<path class="st10" d="M430.5,250c0.1,0,0.2,0.5,0.3,1.4c0,1.1-0.2,2.2-0.6,3.3c-0.4,1-1.1,1.9-1.9,2.7c-0.6,0.6-1.1,0.8-1.2,0.7
		c1-1.1,1.9-2.3,2.6-3.6C430.6,252.1,430.3,250,430.5,250z"/>
	<path class="st10" d="M423.6,242.8c-0.1,0.1-0.4-0.1-0.6-0.2s-0.5-0.2-0.5-0.3s0.3-0.4,0.8-0.2S423.8,242.8,423.6,242.8z"/>
	<path class="st10" d="M418.8,254.4c0,0.1-0.4,0-0.8-0.4c-0.5-0.5-0.8-1.2-0.9-1.9c-0.1-0.7,0.1-1.4,0.5-2c0.3-0.4,0.6-0.6,0.7-0.5
		c-0.4,0.8-0.6,1.6-0.6,2.5C417.9,252.9,418.3,253.7,418.8,254.4z"/>
	<path class="st10" d="M420.6,255.2c0,0.2-0.2,0.3-0.4,0.3s-0.4-0.2-0.4-0.3c0.1-0.2,0.2-0.3,0.4-0.3
		C420.5,254.9,420.6,255,420.6,255.2z"/>
	<path class="st6" d="M239.2,251.9c-2.3,0.6-3.3,3.3-3.7,5.6c-0.3,2.4,0.6,4.8,2.3,6.4c2.3,2.2,5.6,3.1,8.7,2.2
		c3.1-1,5.3-3.6,5.8-6.8c0.4-3.2-1.2-6.3-4-7.9c-3.5-1.9-6.6-1.6-9.9,0.8"/>
	<g class="st13">
		<path class="st10" d="M239.2,251.9c-2.3,0.6-3.3,3.3-3.7,5.6c-0.3,2.4,0.6,4.8,2.3,6.4c2.3,2.2,5.6,3.1,8.7,2.2
			c3.1-1,5.3-3.6,5.8-6.8c0.4-3.2-1.2-6.3-4-7.9c-3.5-1.9-6.6-1.6-9.9,0.8"/>
	</g>
	<path class="st10" d="M242.4,257.2c-1.2-3.5-3-6.7-5.5-9.5c-0.8-1-1.8-1.8-3-2.3c-1.5-0.7-3.3,0-4,1.5c-0.4,0.8-0.4,1.8,0,2.6
		c0.5,1.1,1.2,2.1,2.2,2.8C235,255,238.2,256.3,242.4,257.2"/>
	<path class="st2" d="M242.4,257.2c-0.5,0-1-0.1-1.4-0.2c-1.3-0.3-2.6-0.7-3.9-1.2c-1.9-0.8-3.6-1.8-5.1-3.2
		c-0.9-0.8-1.7-1.7-2.3-2.8c-0.6-1.2-0.5-2.8,0.3-3.9c1-1,2.5-1.3,3.8-0.8c1.1,0.5,2.1,1.2,2.9,2.1c1.4,1.5,2.5,3.1,3.5,4.9
		c0.7,1.2,1.2,2.4,1.7,3.7C242.3,256.2,242.4,256.7,242.4,257.2c-0.1,0-0.7-2-2.4-4.9c-1-1.7-2.2-3.3-3.5-4.7
		c-0.7-0.9-1.7-1.6-2.7-2c-1.1-0.4-2.3-0.2-3.2,0.6c-0.7,0.9-0.8,2.2-0.3,3.3c0.5,1,1.2,1.9,2.1,2.6c1.4,1.4,3.1,2.4,4.9,3.2
		C240.4,256.8,242.5,257.1,242.4,257.2z"/>
	<path class="st10" d="M245.1,256.5c3.3-1.6,6.3-3.8,8.8-6.6c0.9-0.9,1.5-2,1.9-3.3c0.5-1.6-0.4-3.3-2-3.8c-0.8-0.3-1.8-0.1-2.5,0.3
		c-1,0.6-1.9,1.5-2.6,2.5C246.4,248.8,245.4,252.2,245.1,256.5"/>
	<path class="st2" d="M245.1,256.5c-0.1-0.5-0.1-1,0-1.5c0.1-1.4,0.3-2.7,0.7-4c0.5-1.9,1.4-3.8,2.6-5.4c0.7-1,1.5-1.9,2.5-2.6
		c1.2-0.8,2.7-0.8,3.9-0.1c1.1,0.9,1.6,2.3,1.2,3.7c-0.3,1.2-0.9,2.3-1.8,3.1c-1.3,1.5-2.8,2.8-4.4,4c-1.1,0.8-2.2,1.5-3.4,2.1
		C245.9,256.1,245.5,256.3,245.1,256.5c-0.1-0.2,1.8-1,4.5-3.1c1.6-1.2,3-2.6,4.2-4.1c0.8-0.8,1.3-1.8,1.6-2.9
		c0.3-1.1-0.1-2.3-1-3.1c-1-0.6-2.3-0.5-3.3,0.1c-0.9,0.6-1.7,1.4-2.4,2.4c-1.2,1.6-2.1,3.3-2.6,5.2
		C245.2,254.4,245.2,256.5,245.1,256.5z"/>
	<path class="st6" d="M242.3,256.5c-0.9,0.2-1.3,1.2-1.4,2.1c-0.1,0.9,0.2,1.8,0.9,2.4c0.9,0.8,2.1,1.2,3.3,0.8
		c1.2-0.4,2-1.4,2.2-2.6c0.2-1.2-0.4-2.4-1.5-3c-1.2-0.7-2.7-0.6-3.7,0.3"/>
	<path class="st10" d="M241.6,265.4c0,0.1-0.6-0.1-1.4-0.5c-1.1-0.6-2-1.4-2.7-2.4c-0.8-1-1.2-2.2-1.2-3.4c0-1,0.3-1.5,0.3-1.5
		s0,0.6,0.1,1.4c0.2,1.1,0.6,2.2,1.3,3.1C239.5,264.4,241.7,265.2,241.6,265.4z"/>
	<path class="st10" d="M244.4,265.6c0.1,0.1-0.2,0.4-0.7,0.4s-0.8-0.2-0.7-0.4s0.4-0.2,0.7-0.2S244.3,265.4,244.4,265.6z"/>
	<path class="st10" d="M250.9,255.6c0.1-0.1,1,1.5,0.6,3.5c-0.1,1.2-0.7,2.4-1.7,3.1c0.5-1,0.9-2.1,1.2-3.2
		C251.1,257.9,251.1,256.8,250.9,255.6z"/>
	<path class="st10" d="M244.4,251.6c-0.2,0.1-0.3,0.1-0.5,0.1c-0.2,0-0.4-0.1-0.5-0.2s0.1-0.4,0.5-0.4S244.6,251.5,244.4,251.6z"/>
	<path class="st10" d="M243,261.2c0,0.1-0.3,0.1-0.7-0.1c-0.5-0.3-0.9-0.7-1.1-1.3c-0.2-0.5-0.2-1.1,0-1.7c0.2-0.4,0.4-0.6,0.4-0.5
		s-0.3,1,0.1,2S243.1,261,243,261.2z"/>
	<path class="st10" d="M244.5,261.4c0,0.2-0.1,0.3-0.3,0.3c0,0,0,0,0,0c-0.2,0-0.3-0.1-0.4-0.2c0-0.2,0.1-0.3,0.2-0.4c0,0,0,0,0.1,0
		C244.3,261.2,244.5,261.3,244.5,261.4C244.5,261.4,244.5,261.4,244.5,261.4z"/>
	<path class="st6" d="M321.4,196c-2.3,0.6-3.3,3.3-3.7,5.6c-0.3,2.4,0.6,4.8,2.3,6.4c2.3,2.2,5.6,3.1,8.7,2.2c3.1-1,5.3-3.6,5.8-6.8
		c0.4-3.2-1.2-6.3-4-7.9c-3.5-1.9-6.6-1.6-9.9,0.8"/>
	<g class="st13">
		<path class="st10" d="M321.4,196c-2.3,0.6-3.3,3.3-3.7,5.6c-0.3,2.4,0.6,4.8,2.3,6.4c2.3,2.2,5.6,3.1,8.7,2.2
			c3.1-1,5.3-3.6,5.8-6.8c0.4-3.2-1.2-6.3-4-7.9c-3.5-1.9-6.6-1.6-9.9,0.8"/>
	</g>
	<path class="st10" d="M324.7,201.2c-1.2-3.5-3-6.7-5.5-9.5c-0.8-1-1.8-1.8-3-2.3c-1.5-0.7-3.3,0-4,1.5c-0.4,0.8-0.4,1.7,0,2.5
		c0.5,1.1,1.2,2.1,2.1,2.8C317.2,199,320.4,200.3,324.7,201.2"/>
	<path class="st2" d="M324.7,201.2c-0.5,0-1-0.1-1.5-0.2c-1.3-0.3-2.6-0.7-3.9-1.2c-1.9-0.8-3.6-1.8-5.1-3.2
		c-0.9-0.8-1.7-1.7-2.3-2.8c-0.6-1.2-0.5-2.8,0.3-3.9c1-1,2.5-1.3,3.8-0.8c1.1,0.5,2.1,1.2,2.9,2.1c1.3,1.5,2.5,3.1,3.5,4.9
		c0.7,1.2,1.2,2.4,1.7,3.7C324.5,200.2,324.6,200.7,324.7,201.2c-0.7-1.7-1.5-3.3-2.4-4.9c-1-1.7-2.2-3.3-3.5-4.7
		c-0.7-0.9-1.7-1.6-2.7-2c-1.1-0.4-2.3-0.2-3.2,0.6c-0.7,0.9-0.8,2.2-0.3,3.3c0.5,1,1.2,1.9,2.1,2.6c1.4,1.4,3.1,2.4,4.9,3.2
		C322.6,200.8,324.7,201.1,324.7,201.2z"/>
	<path class="st10" d="M327.3,200.5c3.3-1.6,6.3-3.8,8.8-6.6c0.9-0.9,1.6-2,2-3.3c0.5-1.6-0.4-3.3-2-3.8c-0.8-0.3-1.8-0.1-2.5,0.3
		c-1,0.6-1.9,1.5-2.6,2.5C328.6,192.9,327.7,196.2,327.3,200.5"/>
	<path class="st2" d="M327.3,200.5c-0.1-0.5-0.1-1,0-1.5c0.1-1.4,0.3-2.7,0.7-4c0.5-1.9,1.4-3.8,2.6-5.4c0.7-1,1.5-1.9,2.5-2.6
		c1.2-0.8,2.7-0.8,3.9-0.1c1.1,0.9,1.6,2.3,1.2,3.7c-0.3,1.2-0.9,2.3-1.8,3.1c-1.3,1.5-2.8,2.8-4.4,4c-1.1,0.8-2.2,1.5-3.5,2.1
		C328.2,200.2,327.7,200.3,327.3,200.5c0-0.2,1.9-1,4.5-3.1c1.6-1.2,3-2.6,4.3-4.1c0.8-0.8,1.3-1.8,1.6-2.9c0.3-1.1-0.1-2.3-1-3.1
		c-1-0.6-2.3-0.5-3.3,0.1c-0.9,0.6-1.7,1.4-2.4,2.4c-1.2,1.6-2.1,3.3-2.6,5.2C327.5,198.4,327.4,200.6,327.3,200.5z"/>
	<path class="st6" d="M324.5,200.5c-0.9,0.2-1.3,1.2-1.4,2.1c-0.1,0.9,0.2,1.8,0.9,2.4c0.9,0.8,2.1,1.2,3.3,0.8
		c1.2-0.4,2-1.4,2.2-2.6c0.2-1.2-0.4-2.4-1.5-3c-1.2-0.7-2.7-0.6-3.7,0.3"/>
	<path class="st10" d="M323.8,209.4c-0.5,0-1-0.2-1.4-0.5c-1.1-0.6-2-1.4-2.7-2.4c-0.7-1-1.2-2.2-1.2-3.4c0-1,0.3-1.5,0.3-1.5
		s0,0.6,0.1,1.4c0.2,1.1,0.6,2.2,1.3,3.1C321.7,208.4,323.9,209.2,323.8,209.4z"/>
	<path class="st10" d="M326.6,209.6c0.1,0.1-0.2,0.4-0.7,0.4s-0.8-0.2-0.7-0.4s0.4-0.2,0.7-0.2S326.5,209.4,326.6,209.6z"/>
	<path class="st10" d="M333.1,199.6c0.1-0.1,1,1.4,0.7,3.5c-0.1,1.2-0.7,2.4-1.7,3.1c0.5-1,0.9-2.1,1.2-3.2
		C333.3,201.9,333.3,200.8,333.1,199.6z"/>
	<path class="st10" d="M326.7,195.6c-0.2,0.1-0.3,0.1-0.5,0.1c-0.2,0-0.3-0.1-0.5-0.2c-0.1-0.1,0.1-0.4,0.5-0.4
		S326.8,195.5,326.7,195.6z"/>
	<path class="st10" d="M325.2,205.2c0,0.1-0.3,0.1-0.7-0.1c-1-0.6-1.5-1.8-1-2.9c0.2-0.4,0.4-0.6,0.4-0.5s-0.3,1,0.1,2
		S325.3,205,325.2,205.2z"/>
	<path class="st10" d="M326.7,205.4c0,0.2-0.1,0.3-0.3,0.3c0,0,0,0,0,0c-0.2,0-0.3-0.1-0.4-0.2c0-0.2,0.1-0.3,0.3-0.3c0,0,0,0,0,0
		C326.5,205.2,326.7,205.3,326.7,205.4C326.7,205.4,326.7,205.4,326.7,205.4z"/>
</g>
</svg>
