<?xml version="1.0" encoding="utf-8"?>
<!-- Generator: Adobe Illustrator 22.1.0, SVG Export Plug-In . SVG Version: 6.00 Build 0)  -->
<svg version="1.1" id="图层_1" xmlns="http://www.w3.org/2000/svg" xmlns:xlink="http://www.w3.org/1999/xlink" x="0px" y="0px"
	 viewBox="0 0 960.5 297" style="enable-background:new 0 0 960.5 297;" xml:space="preserve">
<style type="text/css">
	.st0{stroke:#000000;stroke-miterlimit:10;}
	.st1{fill:#FFFFFF;stroke:#000000;stroke-miterlimit:10;}
</style>
<path class="st0" d="M65.7,60.1c-5.8,17.2-11.8,34.3-18.2,51.3c-7.8,20.7-16.5,41.1-25.8,61.2c-6.3,13.6-22.1,29.6-21.1,46.2
	c1,17,22.9,31.1,35.4,40.4c64,47.5,157.3,49.8,224.1,6.7c18-11.6,54.3-36.5,50.8-60.8c-10.4-71.9-34.6-141.7-70.8-204.7
	c2.9,5-17,40.9-19.6,47.3c-3.3,8-5.2,19.9-12.2,25.8c-11.1,9.3-30.1,4.2-43.2,4.5c-13.7,0.3-35,5.5-45.9-5.9
	c-16.9-17.9-15-50.5-33-69.8C76,13.3,72.4,40.1,67.4,55C66.8,56.7,66.3,58.4,65.7,60.1z"/>
<path class="st1" d="M152,174.9c3.7,26.6-9.6,44.4-31.9,57.7c-13.3,4.4-26.7,0-35.6-8.9c-26.7-26.7-35.6-80.1,0-106.8
	c17.8-8.9,44.5-8.9,55,12.4C147.1,141.2,151.9,157.3,152,174.9z"/>
<path class="st1" d="M282.8,174.9c3.7,26.6-9.6,44.4-31.9,57.7c-13.3,4.4-26.7,0-35.6-8.9c-26.7-26.7-35.6-80.1,0-106.8
	c17.8-8.9,44.5-8.9,55,12.4C277.9,141.2,282.7,157.3,282.8,174.9z"/>
<ellipse class="st0" cx="102.6" cy="172.5" rx="3.5" ry="50.4"/>
<ellipse class="st0" cx="233.4" cy="172.5" rx="3.5" ry="50.4"/>
<g>
	<path d="M417.4,197.4v26h-8.2v37.3h-29.3v-98.6h29.3v35.2H417.4z M451.7,162.1v98.6h-29.3v-98.6H451.7z"/>
	<path d="M478.7,292.2v-23.5c3.7,1.5,6.9,2.3,9.6,2.3c8.8,0,14.4-4.9,17-14.8c-4.7,2.8-9.3,4.2-13.9,4.2c-6.7,0-12.2-2.5-16.5-7.5
		s-6.5-11.3-6.5-19v-45.3h27v38.7c0,4.3,1.8,6.4,5.3,6.4c3.4,0,5.1-2.4,5.1-7.1v-38.1h27V253c0,12-3.4,21.7-10.1,29
		c-8,8.8-17.8,13.1-29.2,13.1C488.6,295.1,483.6,294.2,478.7,292.2z"/>
	<path d="M574.1,287.3h-27v-60.1c0-11,2.9-20,8.7-26.9c3.3-4,7.5-7.2,12.7-9.5c5.1-2.4,10.4-3.5,15.8-3.5c10.7,0,19.8,3.6,27.1,10.8
		c7.4,7.2,11,16.1,11,26.6c0,10.2-3.7,19-11,26.4c-7.3,7.4-16,11.1-26,11.1c-1.6,0-4-0.2-7.2-0.5V232c2.2,1.8,4.4,2.7,6.6,2.7
		c2.8,0,5.2-1,7.2-3.1c2-2.1,3-4.5,3-7.4c0-2.8-1-5.3-3.1-7.3c-2.1-2-4.5-3-7.4-3c-6.9,0-10.4,4.8-10.4,14.4L574.1,287.3
		L574.1,287.3z"/>
	<path d="M673.7,188v28.9c-1.9-1.1-3.6-1.6-5.1-1.6c-4.9,0-7.4,3.8-7.4,11.3v34.2h-27v-39.4c0-10.4,2.8-18.7,8.5-24.9
		c5.7-6.2,13.3-9.3,22.7-9.3C667.6,187.2,670.3,187.4,673.7,188z"/>
	<path d="M715.8,187.2c10.2,0,19,3.7,26.2,11s10.9,16.1,10.9,26.4c0,10.4-3.7,19.3-11.1,26.6s-16.3,11-26.8,11
		c-10.4,0-19.4-3.7-26.8-11c-7.4-7.3-11.1-16.2-11.1-26.5c0-10.5,3.7-19.4,11.1-26.6S704.9,187.2,715.8,187.2z M715.1,213.8
		c-2.9,0-5.3,1-7.4,3.1s-3,4.7-3,7.7c0,3,1,5.5,3.1,7.7c2,2.1,4.5,3.2,7.3,3.2c2.9,0,5.4-1.1,7.4-3.2c2-2.1,3.1-4.7,3.1-7.7
		c0-3-1-5.6-3-7.7S718,213.8,715.1,213.8z"/>
	<path d="M788.3,162.1v27.6h12.1v28.5h-12.1c0,5.7,0.9,9.7,2.7,11.8c1.8,2.2,5.1,3.2,9.9,3.2v28.4c-1.4,0-2.4,0.1-3.1,0.1
		c-6.1,0-11.9-1.4-17.3-4.3c-5.4-2.8-9.8-6.7-13-11.6c-4.1-6.2-6.2-14.4-6.2-24.7v-59.1L788.3,162.1L788.3,162.1z"/>
	<path d="M847.9,187.2c10.2,0,19,3.7,26.2,11s10.9,16.1,10.9,26.4c0,10.4-3.7,19.3-11.1,26.6c-7.4,7.3-16.3,11-26.8,11
		s-19.4-3.7-26.8-11c-7.4-7.3-11.1-16.2-11.1-26.5c0-10.5,3.7-19.4,11.1-26.6S837,187.2,847.9,187.2z M847.1,213.8
		c-2.9,0-5.3,1-7.4,3.1s-3,4.7-3,7.7c0,3,1,5.5,3.1,7.7c2,2.1,4.5,3.2,7.3,3.2c2.9,0,5.4-1.1,7.4-3.2c2-2.1,3.1-4.7,3.1-7.7
		c0-3-1-5.6-3-7.7C852.5,214.9,850.1,213.8,847.1,213.8z"/>
	<path d="M960.5,260.7h-27V220c0-4.1-1.7-6.2-5.1-6.2c-3.4,0-5.1,2.1-5.1,6.2v40.7h-27v-40.1c0-9.4,3.1-17.3,9.3-23.7
		c6.2-6.4,13.8-9.6,22.8-9.6c10.3,0,18.6,3.7,24.8,11.2c4.9,5.8,7.3,13.9,7.3,24.3L960.5,260.7L960.5,260.7z"/>
</g>
</svg>
